<?xml version="1.0" encoding="utf-8"?>
<!-- Generator: Adobe Illustrator 24.2.1, SVG Export Plug-In . SVG Version: 6.00 Build 0)  -->
<svg version="1.1" id="Layer_1" xmlns="http://www.w3.org/2000/svg" xmlns:xlink="http://www.w3.org/1999/xlink" x="0px" y="0px"
	 viewBox="0 0 1000 1000" style="enable-background:new 0 0 1000 1000;" xml:space="preserve">
<style type="text/css">
	.st0{fill:#FFFFFF;}
</style>
<g>
	<path class="st0" d="M782.6,218.8c-77.7-77.8-172.9-115.5-279.4-118c-108.5,1.7-207,39.5-284.7,117.1s-114.8,173-118.5,282
		c3.5,109.4,40.3,205.1,118.5,282.8c77.7,77.2,172.5,116.7,281.7,116.5c114.4-0.2,212.3-43,291.1-126.5
		c71.9-76.2,105.6-168.2,108.7-272.2C896.9,391.6,860,296.4,782.6,218.8z M587.2,339.7c-0.1-3.4,2.1-3.1,4.3-3.1h70.7
		c23.3,0,46.6,0.1,69.9-0.1c3.4,0,4.7,0.8,4.6,4.5c-0.2,12.1-0.2,24.2,0,36.4c0,3-0.9,4-3.9,4c-47.4-0.1-94.8-0.1-142.3,0
		c-2.5,0-3.4-1-3.4-3.3C587.2,365.3,587.2,352.5,587.2,339.7z M510.7,584.8c-2,22.9-9.9,43.5-26.4,60
		c-15.4,15.4-34.3,24.2-55.4,28.9c-15.4,3.4-30.9,4.1-46.5,4c-56.9-0.1-113.8-0.1-170.7,0c-2.7,0-3.8-0.7-3.6-3.3c0-0.9,0-1.9,0-2.8
		v-350c0-6.2,0-6.2,6-6.2c59.7,0,119.5-0.1,179.2,0.1c17.7,0,35.3,1.9,51.7,9c24.1,10.5,41,27.7,48.9,53.1c5.7,18.4,7,37.1,2.7,55.8
		c-5.5,23.7-20.7,39-44.2,45.7c-1.5,0.4-3,0.9-3.9,1.2c7.6,2,15.6,3.3,22.9,6.3c14.4,5.9,23.9,17.1,30.2,31.1
		C511.3,539.1,512.7,561.7,510.7,584.8z M787.4,564.7L787.4,564.7c-30.1-0.1-60.1,0-90.2,0v0.1c-30.1,0-60.1,0-90.2,0
		c-1.9,0-3.6-0.1-3.5,2.6c0.8,14.2,3.4,27.7,12.6,39.2c10.5,13.2,25,18.9,41,20.7c14.8,1.7,29.7,0.6,43.6-5.3
		c13.3-5.6,22.3-15.2,24.3-30.2c0.5-1.3,1.6-2.3,3-2.6c19.3-0.2,38.6-0.1,57.8-0.1c2.2,0,2.9,0.8,2.9,3.2
		c-0.4,15.6-3.6,30.5-11.4,44c-8.2,14.2-20.1,24.8-34.5,32.5c-20.7,11-43,15.2-66,16.2c-23.3,1-46.3-0.7-68.5-8.2
		c-22.5-7.7-41.4-20.5-55.7-39.5c-15.4-20.3-23-43.7-25.8-68.6c-2.8-24.4,0.5-48.3,8.4-71.6c5.1-15.5,12.8-30,22.9-42.8
		c9.4-11.8,21-21.7,34.1-29.1c19.8-11.3,41.2-16.2,63.6-17.1c17.3-0.7,34.4,0.2,51.2,4.9c17.3,4.7,32.8,12.5,45.9,25
		c17,16.2,27,36.1,33.1,58.5c5.7,21.2,6.7,42.7,5.8,64.5C791.6,563.8,790.6,564.8,787.4,564.7z"/>
	<path class="st0" d="M392.6,516.3h-47.3c-16.4,0-32.9,0.1-49.3-0.1c-4.1-0.1-5.2,1-5.2,5.1c0.2,28.8,0.1,57.6,0.1,86.5
		c0,5.4,0,5.4,5.7,5.4c28.2,0,56.3,0,84.5,0c5.5,0,11-0.1,16.5-0.5c17-1.2,29.4-11,34.2-27.2c3.4-11.2,3.3-22.4,1.6-33.9
		C430.2,530.2,414.3,516.3,392.6,516.3z"/>
	<path class="st0" d="M290.9,456.9c0,3,1.1,3.8,4.1,3.8c19.1-0.1,38.2,0,57.3-0.1c15.3-0.1,30.7-0.1,46-0.9
		c9.3-0.5,15.9-6,19.2-14.6c5.7-15,6.1-30.3,1.8-45.9c-2.9-10.7-13.9-20.2-26.8-19.6c-15.6,0.7-31.2,0.2-46.8,0.2
		c-16.8,0-33.6,0-50.4,0c-2.5,0-4.4,0.1-4.4,3.5C291,407.8,291,432.3,290.9,456.9z"/>
	<path class="st0" d="M719.9,502.7c-3.3-13.8-9.3-26.2-21.9-33.5c-21.9-12.7-44.5-11.7-65.9,1c-15.4,9.2-23.7,24.1-28.1,41.3
		c-1.2,4.8-1.2,4.9,3.5,4.9h54.8c18.4,0,36.8-0.1,55.2,0.1c3.3,0,4.4-1.1,4-4.2S720.7,505.8,719.9,502.7z"/>
</g>
</svg>
