<?xml version="1.0" encoding="utf-8"?>
<!-- Generator: Adobe Illustrator 24.2.1, SVG Export Plug-In . SVG Version: 6.00 Build 0)  -->
<svg version="1.1" id="Layer_1" xmlns="http://www.w3.org/2000/svg" xmlns:xlink="http://www.w3.org/1999/xlink" x="0px" y="0px"
	 viewBox="0 0 1000 1000" style="enable-background:new 0 0 1000 1000;" xml:space="preserve">
<style type="text/css">
	.st0{fill:#706D6D;}
</style>
<path class="st0" d="M100,500.5C99.3,280.4,279,100.4,500.1,99.9C720.2,99.4,899.2,278.3,900,499.4
	c0.8,220.9-177.8,400.1-399.3,400.7C279.9,900.6,100.7,722,100,500.5z M448.8,416.9V688h90.1v-9.4c0-48.8,0.1-97.7-0.1-146.5
	c-0.2-12.9,4.7-25.4,13.5-34.9c12.8-14.2,29-18.6,47.5-14.7c18.2,3.8,27.6,16.6,31.2,33.6c2.2,10.5,3.3,21.2,3.3,32
	c0.4,43.3,0.2,86.6,0.2,130v10h89.2c0.2-2.3,0.5-4,0.5-5.7c0-50.6,0.6-101.2-0.4-151.8c-0.3-16.9-2.5-34.4-7.2-50.6
	c-19.7-67.7-104-93.5-157.5-48.7c-7.2,6-12.9,13.7-20.5,21.8v-36.4h-89.8V416.9z M397.3,688.2V417.3h-88.6v270.9L397.3,688.2
	L397.3,688.2z M353.2,378.8c23.5-0.1,41.2-11.3,48.1-30.4c7.9-21.9-1.1-46.3-20.9-57c-22.5-12-54-6.6-68.2,12.3
	c-11.6,15.3-12.7,32.4-4.6,49.3C316.5,371.8,333,378.9,353.2,378.8z"/>
</svg>
