<?xml version="1.0" encoding="utf-8"?>
<!-- Generator: Adobe Illustrator 24.2.1, SVG Export Plug-In . SVG Version: 6.00 Build 0)  -->
<svg version="1.1" id="Layer_1" xmlns="http://www.w3.org/2000/svg" xmlns:xlink="http://www.w3.org/1999/xlink" x="0px" y="0px"
	 viewBox="0 0 1000 1000" style="enable-background:new 0 0 1000 1000;" xml:space="preserve">
<style type="text/css">
	.st0{fill:#FFFFFF;}
</style>
<path class="st0" d="M900,535.9c-2.1,15.1-3.6,30.4-6.3,45.4c-17.9,99.5-68.4,179.7-146.3,243.1c-35.2,28.7-75.2,49.1-117.9,64
	c-17.8,6.2-29.9-2.4-30-21.5c-0.2-33.1-0.1-66.1-0.1-99.2c0-29.6-2.7-58.4-26.5-81c16.3-3,31.7-5.1,46.6-8.8
	c41.1-10.3,77.9-28.2,102.9-64c18.8-26.8,27-57.7,30.6-89.8c2.5-22.5,3.2-45.1-1.1-67.6c-4.7-25.7-16.3-49.7-33.5-69.3
	c-3.5-4-4.2-7.3-2.4-12.4c11.2-32.6,6.7-64.6-5.3-95.9c-0.7-1.9-4.1-3.7-6.5-4c-13.6-1.7-26.5,1.8-38.5,7.5
	c-20.1,9.6-39.7,20.4-59.6,30.3c-3.8,1.9-9,3.3-12.8,2.3c-61.3-15.7-125.5-15.7-186.8,0.1c-4.2,0.8-8.5,0-12.1-2.1
	c-25.8-16.5-53-29.8-82.8-37.1c-18.5-4.6-22.1-2-27.4,16.2c-8.3,28.7-9.5,57.2,0.4,85.9c0.7,2-0.2,5.6-1.7,7.3
	c-33.3,38.2-41.3,83.1-36.6,131.9c2.8,28.5,9.4,55.8,22.1,81.5c17.4,35.1,46.7,57,82.4,69.9c20.3,7.4,42.1,10.8,63.2,15.8
	c3.8,0.9,7.7,1.2,12.3,1.9c-4,5.3-8.6,9.8-11.1,15.2c-4.8,10.5-8.2,21.7-12.4,32.5c-1,2.5-2,6.2-3.9,6.9c-28,10.5-56.2,16-83.8-1
	c-12-7.4-20.9-17.9-27.9-30c-11.6-19.9-27.8-34.5-49.9-41.2c-7.4-2.2-15.9-2.5-23.6-1.7c-8.2,0.8-9.4,4.3-4.6,10.8
	c3.1,4.1,6.6,8.4,10.9,10.9c21,12.1,32.8,31.4,42.4,52.4c5.7,12.5,10.7,25.3,21.2,35c16.7,15.3,37,21.1,58.6,22.1
	c18.9,0.9,37.8-0.2,57.9-0.4c0,0.5,0.4,2.9,0.4,5.4c0.2,20.8,0.5,41.7,0.6,62.5c0.1,20.5-12.5,29-32,22.3
	c-76.5-26.4-138.9-72-187.8-136.3c-42.1-55.3-68.9-117.2-77.8-186.3c-14.1-110.3,11-211,79-299.5c58.7-76.4,135.5-126.9,230-146.4
	c141.6-29.2,266.3,6.5,370.2,107.4c58.2,56.5,94.3,126.1,109.9,206c2.7,13.7,3.7,27.8,5.6,41.7c0.4,2.3,0.9,4.5,1.5,6.7V535.9z"/>
</svg>
