<svg xmlns="http://www.w3.org/2000/svg" xmlns:xlink="http://www.w3.org/1999/xlink" viewBox="0 0 699.52 448.18"><defs><style>.cls-1{fill:none;}.cls-2{isolation:isolate;}.cls-3{fill:#e0e0e0;}.cls-4{fill:#f5f5f5;}.cls-5{fill:#1e154a;}.cls-14,.cls-6{fill:#3f2f7c;}.cls-7{fill:#ebebeb;}.cls-8{fill:#fff;}.cls-9{fill:#8f81b3;}.cls-10,.cls-11{fill:#f0b3ad;}.cls-11{opacity:0.47;}.cls-11,.cls-23,.cls-24{mix-blend-mode:multiply;}.cls-12{opacity:0.82;}.cls-13{fill:#de312d;}.cls-14{opacity:0.49;}.cls-15,.cls-24{opacity:0.2;}.cls-16{fill:#74d3c5;}.cls-17{fill:#6f4439;}.cls-18{fill:#f6f6f6;}.cls-19{clip-path:url(#clip-path);}.cls-20{fill:#595739;}.cls-21{fill:#3b6246;}.cls-22{fill:#5b806a;}.cls-23{opacity:0.5;}.cls-25{clip-path:url(#clip-path-2);}.cls-26{fill:#e25f97;}.cls-27{fill:#fafafa;}.cls-28{opacity:0;}</style><clipPath id="clip-path"><path class="cls-1" d="M417.64,59s.19-5.15,4.11-6.77a6,6,0,0,1,6.45.86,5.31,5.31,0,0,1-3.17,5C422.47,59.18,418.71,59.39,417.64,59Z"/></clipPath><clipPath id="clip-path-2"><path class="cls-1" d="M405.84,62S403.17,57.55,399,58a6,6,0,0,0-5.22,3.88,5.29,5.29,0,0,0,5.19,2.83C401.71,64.48,405.1,62.83,405.84,62Z"/></clipPath></defs><g class="cls-2"><g id="Ilustracion_DW" data-name="Ilustracion DW"><path class="cls-3" d="M229.17,57.53a53.41,53.41,0,0,1,13.07-5.68l2.69-12.94,21.87-.38,3.14,12.83a53.58,53.58,0,0,1,13.27,5.22l11.05-7.24L310,64.53l-6.85,11.29a53.68,53.68,0,0,1,5.69,13.08l12.94,2.69.38,21.87-12.84,3.15a53.27,53.27,0,0,1-5.22,13.26l7.25,11-15.19,15.73-11.3-6.85a53.51,53.51,0,0,1-13.08,5.69l-2.69,12.94-21.86.38L244.07,156a53.73,53.73,0,0,1-13.27-5.22L219.75,158,204,142.81l6.85-11.3a53.48,53.48,0,0,1-5.68-13.08l-12.94-2.69-.38-21.86,12.83-3.15a53.73,53.73,0,0,1,5.22-13.27l-7.24-11,15.19-15.73,11.3,6.85Zm11.65,29.13A23.46,23.46,0,1,0,274,86.08,23.46,23.46,0,0,0,240.82,86.66Z"/><path class="cls-4" d="M130,31.67a33.87,33.87,0,0,1,8.3-3.61L140,19.85l13.87-.25,2,8.15a34.22,34.22,0,0,1,8.42,3.31l7-4.59,10,9.64L177,43.27a34.39,34.39,0,0,1,3.6,8.3l8.21,1.71L189,67.16l-8.15,2a34.15,34.15,0,0,1-3.31,8.41l4.6,7-9.64,10-7.17-4.35a34,34,0,0,1-8.3,3.61L155.34,102l-13.87.24-2-8.14a34.22,34.22,0,0,1-8.42-3.31l-7,4.59-10-9.64,4.35-7.17a33.8,33.8,0,0,1-3.61-8.29l-8.21-1.71-.24-13.88,8.15-2a33.76,33.76,0,0,1,3.31-8.41l-4.6-7,9.64-10L130,31.67Zm7.4,18.48a14.89,14.89,0,1,0,21.05-.37A14.88,14.88,0,0,0,137.41,50.15Z"/><path class="cls-4" d="M611.26,208.82A36,36,0,0,1,620,205l1.79-8.63,14.59-.26,2.1,8.57a35.65,35.65,0,0,1,8.86,3.48l7.37-4.83,10.5,10.13L660.63,221a36,36,0,0,1,3.79,8.73l8.63,1.79.26,14.59-8.57,2.1a35.43,35.43,0,0,1-3.48,8.85l4.83,7.38L656,275l-7.54-4.58a35.69,35.69,0,0,1-8.73,3.8l-1.79,8.63-14.59.26-2.1-8.57a35.43,35.43,0,0,1-8.85-3.48L605,275.86l-10.5-10.13,4.58-7.54a35.69,35.69,0,0,1-3.8-8.73l-8.63-1.79-.26-14.59,8.57-2.1a35.65,35.65,0,0,1,3.48-8.86l-4.83-7.37,10.13-10.5,7.54,4.57ZM619,228.26a15.65,15.65,0,1,0,22.13-.39A15.65,15.65,0,0,0,619,228.26Z"/><path class="cls-3" d="M62.8,139.12A38.71,38.71,0,0,1,72.29,135l1.95-9.39,15.86-.27,2.28,9.31a38.68,38.68,0,0,1,9.63,3.79l8-5.26,11.41,11-5,8.2a38.77,38.77,0,0,1,4.12,9.48l9.39,2,.28,15.86L121,182a39.23,39.23,0,0,1-3.79,9.63l5.25,8-11,11.42-8.19-5a39.06,39.06,0,0,1-9.49,4.12l-1.95,9.39-15.86.28-2.29-9.32A39.13,39.13,0,0,1,64,206.75L56,212,44.56,201l5-8.19a38.46,38.46,0,0,1-4.12-9.49l-9.39-2-.28-15.87,9.31-2.28a38.77,38.77,0,0,1,3.79-9.62l-5.26-8,11-11.41,8.2,5Zm8.46,21.13a17,17,0,1,0,24.06-.43A17,17,0,0,0,71.26,160.25Z"/><path class="cls-5" d="M671.1,418.07c0,.14-147.54.26-329.49.26s-329.53-.12-329.53-.26,147.51-.26,329.53-.26S671.1,417.92,671.1,418.07Z"/><rect class="cls-6" x="119.36" y="110.39" width="454.85" height="300.79" rx="14.57"/><path class="cls-6" d="M101.58,391.75h492.8a0,0,0,0,1,0,0v8.52a17.8,17.8,0,0,1-17.8,17.8H119.38a17.8,17.8,0,0,1-17.8-17.8v-8.52A0,0,0,0,1,101.58,391.75Z"/><polygon class="cls-5" points="301.94 388.93 308.06 398.66 394.11 398.66 399.78 388.93 301.94 388.93"/><rect class="cls-7" x="140.4" y="130.94" width="412.36" height="244.6" rx="3.27"/><polygon class="cls-8" points="552.33 375.89 139.96 375.89 140.4 149.22 552.33 149.22 552.33 375.89"/><path class="cls-5" d="M174.22,140.38a3.29,3.29,0,1,1-3.29-3.29A3.29,3.29,0,0,1,174.22,140.38Z"/><path class="cls-5" d="M154.26,140.38a3.29,3.29,0,1,1-3.29-3.29A3.29,3.29,0,0,1,154.26,140.38Z"/><path class="cls-5" d="M163.85,140.38a3.3,3.3,0,1,1-3.3-3.29A3.3,3.3,0,0,1,163.85,140.38Z"/><path class="cls-5" d="M570.3,388.93c0,.16-101,.29-225.46.29s-225.48-.13-225.48-.29,100.93-.3,225.48-.3S570.3,388.77,570.3,388.93Z"/><path class="cls-3" d="M493,350.87h-6a.5.5,0,0,1-.5-.5.5.5,0,0,1,.5-.5h5.5v-5.5a.5.5,0,0,1,.5-.5.5.5,0,0,1,.5.5v6A.51.51,0,0,1,493,350.87Z"/><path class="cls-3" d="M475.37,350.87H463.71a.5.5,0,0,1-.5-.5.5.5,0,0,1,.5-.5h11.66a.5.5,0,0,1,.5.5A.5.5,0,0,1,475.37,350.87Zm-23.33,0H440.38a.5.5,0,0,1-.5-.5.5.5,0,0,1,.5-.5H452a.5.5,0,0,1,.5.5A.5.5,0,0,1,452,350.87Zm-23.33,0H417.05a.5.5,0,0,1-.5-.5.5.5,0,0,1,.5-.5h11.66a.5.5,0,0,1,.5.5A.5.5,0,0,1,428.71,350.87Zm-23.33,0H393.72a.5.5,0,0,1-.5-.5.5.5,0,0,1,.5-.5h11.66a.5.5,0,0,1,.5.5A.5.5,0,0,1,405.38,350.87Z"/><path class="cls-3" d="M382.05,350.87h-6a.51.51,0,0,1-.5-.5v-6a.5.5,0,0,1,.5-.5.5.5,0,0,1,.5.5v5.5h5.5a.5.5,0,0,1,.5.5A.5.5,0,0,1,382.05,350.87Z"/><path class="cls-3" d="M376.05,332.36a.5.5,0,0,1-.5-.5v-12.5a.5.5,0,0,1,.5-.5.5.5,0,0,1,.5.5v12.5A.5.5,0,0,1,376.05,332.36Zm0-25a.5.5,0,0,1-.5-.5v-12.5a.5.5,0,0,1,.5-.5.5.5,0,0,1,.5.5v12.5A.5.5,0,0,1,376.05,307.35Zm0-25a.5.5,0,0,1-.5-.5v-12.5a.5.5,0,0,1,.5-.5.5.5,0,0,1,.5.5v12.5A.5.5,0,0,1,376.05,282.34Z"/><path class="cls-3" d="M376.05,257.33a.5.5,0,0,1-.5-.5v-6a.5.5,0,0,1,.5-.5h6a.5.5,0,0,1,0,1h-5.5v5.5A.5.5,0,0,1,376.05,257.33Z"/><path class="cls-3" d="M475.37,251.33H463.71a.5.5,0,0,1,0-1h11.66a.5.5,0,0,1,0,1Zm-23.33,0H440.38a.5.5,0,0,1,0-1H452a.5.5,0,0,1,0,1Zm-23.33,0H417.05a.5.5,0,0,1,0-1h11.66a.5.5,0,0,1,0,1Zm-23.33,0H393.72a.5.5,0,0,1,0-1h11.66a.5.5,0,0,1,0,1Z"/><path class="cls-3" d="M493,257.33a.5.5,0,0,1-.5-.5v-5.5H487a.5.5,0,0,1,0-1h6a.5.5,0,0,1,.5.5v6A.5.5,0,0,1,493,257.33Z"/><path class="cls-3" d="M493,332.36a.5.5,0,0,1-.5-.5v-12.5a.5.5,0,0,1,.5-.5.5.5,0,0,1,.5.5v12.5A.5.5,0,0,1,493,332.36Zm0-25a.5.5,0,0,1-.5-.5v-12.5a.5.5,0,0,1,.5-.5.5.5,0,0,1,.5.5v12.5A.5.5,0,0,1,493,307.35Zm0-25a.5.5,0,0,1-.5-.5v-12.5a.5.5,0,0,1,.5-.5.5.5,0,0,1,.5.5v12.5A.5.5,0,0,1,493,282.34Z"/><path class="cls-6" d="M451.59,65.25c-6.32-.47-6.86-13.06-19.24-36.55C419,3.39,381.86,23.77,396.55,17.24c-.81.11-21.11,6.28-19.48,32.35,1.66,26.51,1.53,39.28-3.62,43s-11.17,16.87,9.85,22.58c9.65,2.62,25.67,1.31,40.6-2.83h0l.64-.18.63-.17h0c14.9-4.24,29.27-11.46,36.14-18.72C476.28,77.42,457.92,65.72,451.59,65.25Z"/><path class="cls-9" d="M437.29,69.16c-14.72-12.55-17.77-31.23-23.22-48.73-7.8-1.29-16.57,2-23.82,4.6a111.14,111.14,0,0,1,7.52,23.85c2.17,10.91,3.1,23.54-1.69,33.92C393.25,89,388,92.58,383.1,97a23.25,23.25,0,0,0-6.8,12.58c-.19.88-.32,1.76-.42,2.63a32.4,32.4,0,0,0,7.42,3c9.65,2.62,25.67,1.31,40.6-2.83h0l.64-.18.63-.17h0c14.8-4.21,29.06-11.36,36-18.57a17.26,17.26,0,0,0-4.21-8.7C451.43,78.23,443.65,74.59,437.29,69.16Z"/><path class="cls-10" d="M403.2,79.32s4.06,14.14,1.92,17c0,0,7,5.57,17.89,1.93,0,0,8.27-3.13,9.77-6.88,0,0-5.65-16.85-6.54-20.52C426.24,70.87,404.33,71.37,403.2,79.32Z"/><path class="cls-11" d="M405.12,87.62c5.64,2.13,11.49,2.57,17.18-.79a24.88,24.88,0,0,0,6.92-6.24c-1.32-4.09-2.59-8.13-3-9.72,0,0-21.91.5-23,8.45C403.2,79.32,404.37,83.4,405.12,87.62Z"/><path class="cls-10" d="M429.46,36.41l-.1,0c-4.35-12-17.71-18.76-30.74-15.1C385,25.11,377,38.8,380.63,51.88a23.5,23.5,0,0,0,2.29,5.39c3.86,9.53,14.31,28.6,35.61,26.8C418.53,84.07,441.94,73.35,429.46,36.41Z"/><path class="cls-10" d="M389.1,64.89c2.23,3,2.72,6.33,1.11,7.55s-4.73-.18-7-3.13-2.72-6.34-1.11-7.56S386.87,61.94,389.1,64.89Z"/><path class="cls-10" d="M439.67,52.69c.09,3.7-1.49,6.73-3.51,6.78s-3.73-2.91-3.82-6.61,1.49-6.73,3.51-6.78S439.59,49,439.67,52.69Z"/><path class="cls-6" d="M403.93,60.65s-4.36,5-11.1.4l-1.81.51,2,.3S400.54,67.59,403.93,60.65Z"/><path class="cls-6" d="M403.7,55.49s-5.11-3.34-13.27,1.68c0,0,8.09-2.77,11.54-1.19C402,56,404.06,56.94,403.7,55.49Z"/><path class="cls-6" d="M417.29,57.55s6.33,2,9.67-5.44l1.82-.51-1.59,1.32S423.78,61.71,417.29,57.55Z"/><path class="cls-6" d="M414.79,53s2.63-5.51,12.21-5.47c0,0-8.35,1.84-10.47,5C416.53,52.54,415.24,54.45,414.79,53Z"/><g class="cls-12"><path class="cls-6" d="M410.72,66.58s3.5,2.13,4.43-.91C415.15,65.67,414.32,69.52,410.72,66.58Z"/><path class="cls-6" d="M409.13,65.94A1.34,1.34,0,0,0,410.26,68,2.9,2.9,0,0,1,409.13,65.94Z"/><path class="cls-6" d="M416.16,64.07a1.34,1.34,0,0,1,.12,2.36A2.86,2.86,0,0,0,416.16,64.07Z"/></g><path class="cls-6" d="M429.84,34.05l1.36-.38c-1.45-5.66-2.79-8.55-6.73-13-3-3.43-5.2-4.31-9.85-4-3.43.19-7.23-1-10.45.38a14.31,14.31,0,0,0-2.34,1.67,2.32,2.32,0,0,1-1,.54,37.31,37.31,0,0,0-10,1.52,13.78,13.78,0,0,0-9.17,8.09,24.18,24.18,0,0,0-1.42,4.39c-.49,2.38-1.26,2.25-1,4.57-4.62,15,5.2,22.94,5.2,22.94-.25-.63,2.17,3.38,2,2.77,2.45,4,4.2,8.91,4.87,9.42,1.25,1,1.65-1.88,1.65-1.88-5.59-7.19-5.51-17.9-4.54-25.38l18-5a.89.89,0,0,0,.73-.92c.19-1.88.42-3.75.64-5.63l.09-.73,1.15-.24,2.6,6,6.9-1.94c-.28-1.43-.55-2.83-.83-4.23.35.06.7.13,1,.22.59.93,1.15,1.87,1.72,2.8.16.25.61.54.84.48l2.8-.77a16.15,16.15,0,0,1,4.17,4.72,2.47,2.47,0,0,0-.1.29s5.72,18.44,5.83,24.67c0,0,1,1.28,1.89,0,.69-1.08-.63-14.59-2.25-21.36C433.4,41.18,431.49,37.92,429.84,34.05Z"/><path class="cls-13" d="M410.07,73.23s.52.51,2.24-.84A6.25,6.25,0,0,1,419,71.16a1.7,1.7,0,0,0,1.38-.63,5.2,5.2,0,0,1-3.71,5.71C412.2,77.86,410.07,73.23,410.07,73.23Z"/><path class="cls-8" d="M412.84,73.45a38,38,0,0,0,5.26-1.39s.33,1.76-2.16,2.38S412.84,73.45,412.84,73.45Z"/><path class="cls-14" d="M419.09,43.43c-4.83,1.36-7.46,7-5.87,12.71.11.38.23.74.37,1.1-3.07-1.75-5.54.76-6.22,1.57-.06-.32-.14-.64-.23-1-1.59-5.66-6.79-9.16-11.63-7.8s-7.46,7.05-5.87,12.71,6.8,9.16,11.63,7.8c4.27-1.2,6.81-5.77,6.26-10.72,2.55-3.14,5.42-2.35,6.32-2,2.07,4.63,6.68,7.3,11,6.09,4.84-1.36,7.47-7,5.87-12.71S423.93,42.07,419.09,43.43Zm-18,26.42c-4.49,1.26-9.34-2-10.82-7.26s1-10.56,5.46-11.82,9.34,2,10.82,7.25S405.57,68.58,401.07,69.85Zm23.58-6.63c-4.49,1.27-9.34-2-10.82-7.25s1-10.56,5.47-11.82,9.33,2,10.81,7.25S429.15,62,424.65,63.22Z"/><rect class="cls-4" x="369.14" y="184.68" width="122.69" height="98.51" rx="4.59" transform="translate(-0.4 0.74) rotate(-0.1)"/><path class="cls-5" d="M487.32,283.09a8.42,8.42,0,0,0,1.1-.17,4.56,4.56,0,0,0,2.61-1.84,4.5,4.5,0,0,0,.79-2.23c0-.88,0-1.86,0-2.92q0-3.18,0-7.31c0-11-.09-26.9-.16-46.55,0-9.83-.05-20.6-.08-32.16a6.22,6.22,0,0,0-.22-2.08,4.38,4.38,0,0,0-2.88-2.84,7.12,7.12,0,0,0-2.14-.19l-9.1,0-19,.05-84.55.16a4.34,4.34,0,0,0-4.07,2.85,7.11,7.11,0,0,0-.27,2.67v2.78c0,3.7,0,7.38,0,11q0,10.95,0,21.57c0,14.14,0,27.79.05,40.79q0,4.86,0,9.62c0,.79,0,1.58,0,2.36a4.45,4.45,0,0,0,.57,2.14,4.38,4.38,0,0,0,3.61,2.19h17.91l32.15,0h46.56l12.65,0,3.3,0,1.12,0-1.12,0-3.3,0-12.65.07-46.56.16-32.15.09-17.93,0a4.83,4.83,0,0,1-4.63-4.78c0-.79,0-1.58,0-2.37,0-3.17,0-6.37,0-9.62,0-13-.05-26.64-.08-40.79q0-10.6,0-21.57c0-3.66,0-7.33,0-11v-2.78a7.59,7.59,0,0,1,.3-2.85,4.85,4.85,0,0,1,4.55-3.19l84.56-.12,19,0h9.1a7,7,0,0,1,2.27.21,5,5,0,0,1,2,1.18,4.84,4.84,0,0,1,1.19,1.94,6.56,6.56,0,0,1,.24,2.22c0,11.56,0,22.33,0,32.15v46.56q0,4.13,0,7.31c0,1.06,0,2,0,2.93a4.63,4.63,0,0,1-3.52,4.11A3.9,3.9,0,0,1,487.32,283.09Z"/><rect class="cls-6" x="388.77" y="178.73" width="84.04" height="111.81" transform="translate(195.09 664.85) rotate(-89.86)"/><g class="cls-15"><polygon points="374.78 276.52 413.96 224.38 438.08 257.12 454.53 239.69 486.59 276.8 374.78 276.52"/></g><g class="cls-15"><path d="M448.44,218.06a8.81,8.81,0,1,1-8.78-8.82A8.8,8.8,0,0,1,448.44,218.06Z"/></g><path class="cls-16" d="M375.9,111.43s-.61-1.23,2.87-5.15,27.59-12.89,27.59-12.89,9.4,11.33,18.1,3.52a22.9,22.9,0,0,0,7.32-12.55s21.29-1.23,21.74.17l5.74,26.75-10,.08Z"/><path class="cls-10" d="M426.75,172.58l37-37.08L459,115.26l19.93-5.9s5.95,28.27,5.17,33.25c-1.51,9.63-46.95,37.24-46.95,37.24Z"/><path class="cls-16" d="M452.49,84.13a26.92,26.92,0,0,1,16.21,8c7.7,7.9,16.92,28.63,16.92,28.63l-26,6.39Z"/><path class="cls-10" d="M422,176.64l-10.39,6.51s-5.23,8.74-6,10.92a61,61,0,0,0-1.46,7.67s2.27,2.07,3.19-1.12l1.06-2.45-.89,5.68s2.3,1.78,3.42-1.25a37,37,0,0,0,1.61-5.9l3.54-4.89-3.56,11.69s-.68,2.35,1.42,2.14c.82-.08,2.67-4.2,2.67-4.2s1.52,2,2.78.19,6.18-8.76,6.18-8.76,6.63-8.21,6.65-8.43c0,0,4.87-4.59,4.87-4.59l-10.39-7.27-4.49,3.83A.76.76,0,0,1,422,176.64Z"/><path class="cls-17" d="M407.59,203.65a3.46,3.46,0,0,0,.15-.66l.34-1.81c.13-.77.29-1.68.47-2.68.08-.51.17-1,.27-1.58a8.73,8.73,0,0,1,.51-1.63,28.83,28.83,0,0,1,3-5.21c.45-.64.82-1.14,1.08-1.49a4,4,0,0,0,.39-.55,4.88,4.88,0,0,0-.46.5c-.28.33-.67.82-1.13,1.45a25.63,25.63,0,0,0-3.09,5.22,8,8,0,0,0-.52,1.67c-.09.55-.18,1.08-.26,1.58-.16,1-.3,1.92-.42,2.7l-.27,1.81A4.59,4.59,0,0,0,407.59,203.65Z"/><path class="cls-17" d="M421.47,191.38a3.61,3.61,0,0,0-.24.34c-.14.23-.34.56-.58,1-.5.83-1.16,2-1.89,3.28h0l-.09.23c-.58,1.43-1.1,2.73-1.46,3.68l-.42,1.12a2.2,2.2,0,0,0-.12.42,1.43,1.43,0,0,0,.2-.39c.12-.26.29-.63.49-1.1.39-.92.93-2.21,1.51-3.65l.09-.22h0c.73-1.3,1.37-2.47,1.83-3.32.23-.42.41-.76.53-1S421.49,191.39,421.47,191.38Z"/><path class="cls-10" d="M363,109c0,.11.09.21.13.32a5.94,5.94,0,0,1,.32,1.55,4.59,4.59,0,0,0,0,.75,2.48,2.48,0,0,0,.2.44,7.5,7.5,0,0,1,.28,3.09,5.91,5.91,0,0,0,.58,3.31,2.18,2.18,0,0,0,2.91.89,1.48,1.48,0,0,0,1.11,1.62,2.13,2.13,0,0,0,2-.61,3.92,3.92,0,0,0,1-1.9,1.65,1.65,0,0,0,1.64,1.58,2.52,2.52,0,0,0,2.08-1.28,6,6,0,0,0,.71-2.42,29.68,29.68,0,0,1,.51-3.25s1.06.17,1.55.22c.66.06.14,0,.14,0a6.71,6.71,0,0,0,1-1.77c.68-1.4,1.19-2.29,1.71-3.56.39-1,.64-1.9.05-2.52-1.42-1.49-4.18,1.55-4.18,1.55-.39-1.06-3.61-1.22-4.23.18-.26-.77-.16-1.22-.79-1.74a2.61,2.61,0,0,0-2.28-.57,1.85,1.85,0,0,0-1.38,1.79,3,3,0,0,0-5.08-.1,3.24,3.24,0,0,0-.46,1,1.25,1.25,0,0,0-.08.42.62.62,0,0,0,.07.19C362.66,108.43,362.85,108.67,363,109Z"/><path class="cls-10" d="M359.58,107.07a2.44,2.44,0,0,0-1.93.65,4,4,0,0,0-.6,2.67c1,.19,1.47.22,2.45.4.2,0,.37,0,.54.11.45.32.38,1.39.56,1.91a1.87,1.87,0,0,0,2.36,1,2.5,2.5,0,0,0,1.51-2.23,3.83,3.83,0,0,0-1-2.61A5.4,5.4,0,0,0,359.58,107.07Z"/><path class="cls-17" d="M367.89,106.4c.18,0,.18,2.92,0,6.49s-.47,6.47-.65,6.46-.19-2.91,0-6.49S367.71,106.39,367.89,106.4Z"/><path class="cls-17" d="M372.54,107c.18,0,.42,2.64.14,5.89s-.95,5.82-1.12,5.79.19-2.63.46-5.84S372.35,107,372.54,107Z"/><path class="cls-17" d="M376.9,107c.19,0,.27,2.2-.07,4.87s-.74,4.79-.91,4.77-.08-2.2.26-4.85S376.72,107,376.9,107Z"/><path class="cls-17" d="M361,107.61c0-.07.47-.18,1.14.13a3.67,3.67,0,0,1,1.79,2.08,7.53,7.53,0,0,1,.45,2.68c-.08.8-.67,1-.68.93s.26-.35.21-1a13,13,0,0,0-.6-2.42,4,4,0,0,0-1.4-1.92C361.38,107.79,361,107.72,361,107.61Z"/><path d="M428.06,54.07s.58,5.21-7.5,5Z"/><path class="cls-18" d="M417.64,59s.19-5.15,4.11-6.77a6,6,0,0,1,6.45.86,5.31,5.31,0,0,1-3.17,5C422.47,59.18,418.71,59.39,417.64,59Z"/><g class="cls-19"><path class="cls-20" d="M425.87,56.64a3.42,3.42,0,1,1-4.17-2.46A3.43,3.43,0,0,1,425.87,56.64Z"/><path class="cls-21" d="M425.64,56.53a3.26,3.26,0,1,1-4-2.34A3.27,3.27,0,0,1,425.64,56.53Z"/><path class="cls-22" d="M424.59,57A2.1,2.1,0,1,1,422,55.46,2.11,2.11,0,0,1,424.59,57Z"/><g class="cls-23"><path d="M422.91,56.54a3.42,3.42,0,0,1,3,.69,4,4,0,0,0-.09-.59,3.42,3.42,0,1,0-5.51,3.47A3.41,3.41,0,0,1,422.91,56.54Z"/></g><path d="M423.94,57.13a1.44,1.44,0,1,1-2.78.72,1.45,1.45,0,0,1,1-1.75A1.43,1.43,0,0,1,423.94,57.13Z"/><path class="cls-18" d="M426.25,56.54a1.18,1.18,0,1,1-1.44-.85A1.19,1.19,0,0,1,426.25,56.54Z"/><path class="cls-18" d="M424.48,58.65a.43.43,0,0,1-.31.52.42.42,0,0,1-.21-.82A.43.43,0,0,1,424.48,58.65Z"/></g><path d="M418.89,53.43A9.08,9.08,0,0,0,417.64,59s.19-5.15,4.11-6.77a6,6,0,0,1,6.45.86s1.57-1,1.17-1.39C426.56,48.76,420.86,49.87,418.89,53.43Z"/><g class="cls-24"><path d="M421.61,53.21a6,6,0,0,1,6.45.86s0,.15,0,.34a5.92,5.92,0,0,0,.15-1.34,6,6,0,0,0-6.45-.86c-3.46,1.43-4,5.61-4.1,6.57C418,57.15,418.89,54.33,421.61,53.21Z"/></g><path d="M394.35,62.73s2,4.83,9,.77Z"/><path class="cls-18" d="M405.84,62S403.17,57.55,399,58a6,6,0,0,0-5.22,3.88,5.29,5.29,0,0,0,5.19,2.83C401.71,64.48,405.1,62.83,405.84,62Z"/><g class="cls-24"><path d="M399.57,58.84a6,6,0,0,0-5.22,3.89l.17.29a6,6,0,0,1-.78-1.1A6,6,0,0,1,399,58c3.72-.43,6.24,3,6.77,3.75C404.67,60.52,402.5,58.5,399.57,58.84Z"/></g><g class="cls-25"><path class="cls-20" d="M395.05,64.28a3.42,3.42,0,1,0,2.46-4.17A3.43,3.43,0,0,0,395.05,64.28Z"/><ellipse class="cls-21" cx="398.36" cy="63.27" rx="3.25" ry="3.27" transform="translate(-3.16 101.68) rotate(-14.49)"/><path class="cls-22" d="M396.33,64a2.1,2.1,0,1,0,1.51-2.56A2.11,2.11,0,0,0,396.33,64Z"/><path d="M397,63.78A1.44,1.44,0,1,0,398,62,1.44,1.44,0,0,0,397,63.78Z"/><g class="cls-23"><path d="M398.72,62.47a3.42,3.42,0,0,1,3,.69,4,4,0,0,0-.09-.59A3.42,3.42,0,1,0,396.17,66,3.41,3.41,0,0,1,398.72,62.47Z"/></g><path class="cls-18" d="M401.75,62.62a1.18,1.18,0,1,1-1.44-.85A1.18,1.18,0,0,1,401.75,62.62Z"/><path class="cls-18" d="M400,64.73a.42.42,0,0,1-.3.52.42.42,0,1,1-.21-.82A.42.42,0,0,1,400,64.73Z"/></g><path d="M402.05,57.72A9.05,9.05,0,0,1,405.84,62S403.17,57.55,399,58a6,6,0,0,0-5.22,3.88s-1.84-.09-1.69-.65C393.08,57.35,398.6,55.56,402.05,57.72Z"/><rect class="cls-8" x="195.73" y="264.22" width="158.42" height="88.07" rx="8.65"/><path class="cls-5" d="M345.5,352.29s.42,0,1.23-.12a8.63,8.63,0,0,0,6.88-5.77,9.91,9.91,0,0,0,.45-3.68c0-1.34,0-2.77,0-4.28,0-12.11-.05-29.61-.08-51.24,0-2.7,0-5.47,0-8.3v-4.29a13.64,13.64,0,0,0-.4-4.28,8.49,8.49,0,0,0-6.21-5.69,9.29,9.29,0,0,0-2.25-.21H338l-40.6,0-93.05,0a8.49,8.49,0,0,0-5.49,2,8.31,8.31,0,0,0-2.81,5.1,23,23,0,0,0-.1,3v32.83c0,7.78,0,15.43,0,22.91v11.11c0,.91,0,1.85,0,2.72a8.35,8.35,0,0,0,.58,2.57,8.45,8.45,0,0,0,8.25,5.28h35.28l35.38,0,51.23.08,13.93.05,3.62,0,1.23,0-1.23,0-3.62,0-13.93.05-51.23.08-35.38,0H204.83a9,9,0,0,1-8.7-5.58,8.74,8.74,0,0,1-.61-2.72c-.06-.94,0-1.83,0-2.75,0-3.66,0-7.36,0-11.11V307.46q0-11.67,0-23.74v-9.09a21.49,21.49,0,0,1,.11-3.09,8.84,8.84,0,0,1,3-5.41,9,9,0,0,1,5.83-2.17l93.05,0,40.6,0h7.06a10.2,10.2,0,0,1,2.34.22,8.88,8.88,0,0,1,6.5,6,13.76,13.76,0,0,1,.41,4.4c0,1.44,0,2.88,0,4.29v8.3c0,21.63-.07,39.13-.09,51.24,0,1.51,0,2.94,0,4.28a10.23,10.23,0,0,1-.48,3.73,8.65,8.65,0,0,1-3.63,4.55,8.45,8.45,0,0,1-3.4,1.22,7.82,7.82,0,0,1-.92.07Z"/><rect class="cls-26" x="212.63" y="279.1" width="23.53" height="4.44"/><rect class="cls-26" x="212.63" y="333.49" width="23.53" height="4.44"/><rect class="cls-3" x="212.63" y="290.1" width="40.51" height="4.44"/><rect class="cls-26" x="260.32" y="290.1" width="17.91" height="4.44"/><rect class="cls-5" x="319.81" y="290.1" width="11.77" height="4.44"/><rect class="cls-6" x="284.52" y="290.1" width="31.18" height="4.44"/><rect class="cls-3" x="291.07" y="300.6" width="40.51" height="4.44" transform="translate(622.66 605.63) rotate(180)"/><rect class="cls-6" x="265.99" y="300.6" width="17.91" height="4.44" transform="translate(549.88 605.63) rotate(180)"/><rect class="cls-5" x="212.63" y="300.6" width="11.77" height="4.44" transform="translate(437.04 605.63) rotate(180)"/><rect class="cls-26" x="228.52" y="300.6" width="31.18" height="4.44" transform="translate(488.21 605.63) rotate(180)"/><rect class="cls-3" x="212.63" y="311.38" width="40.51" height="4.44"/><rect class="cls-5" x="260.32" y="311.38" width="17.91" height="4.44"/><rect class="cls-5" x="319.81" y="311.38" width="11.77" height="4.44"/><rect class="cls-26" x="251.12" y="322.36" width="11.77" height="4.44"/><rect class="cls-6" x="284.52" y="311.38" width="31.18" height="4.44"/><rect class="cls-6" x="211.78" y="322.36" width="31.18" height="4.44"/><rect class="cls-27" x="437.33" y="294.98" width="65.53" height="63.63" rx="8.1"/><path class="cls-5" d="M494.76,358.61a10.53,10.53,0,0,0,2.43-.42,8.54,8.54,0,0,0,2.6-1.43,8.22,8.22,0,0,0,2.38-3.24,7.93,7.93,0,0,0,.54-2.35c.07-.83,0-1.75,0-2.68q0-2.83,0-6.12c0-4.4,0-9.4,0-14.93s0-11.58,0-18.08c0-1.63,0-3.28,0-5a17.25,17.25,0,0,0-.1-2.5,7.39,7.39,0,0,0-.76-2.37,7.85,7.85,0,0,0-3.59-3.52,7.69,7.69,0,0,0-2.49-.73c-.86-.09-1.79,0-2.7-.06l-47.56,0a7.88,7.88,0,0,0-5.49,2.25,7.79,7.79,0,0,0-2.34,5.37q0,6.15,0,12.13c0,7.95,0,15.63,0,22.94,0,3.65,0,7.22,0,10.68,0,.86,0,1.74,0,2.56a8.53,8.53,0,0,0,.58,2.39,7.95,7.95,0,0,0,7.51,4.85h4.61l8.68,0,26.19.08,7.12.05,1.85,0,.63,0-.63,0-1.85,0-7.12.05L459,358.8l-8.68,0h-4.61a8.33,8.33,0,0,1-7.92-5.09,8.69,8.69,0,0,1-.62-2.53c-.06-.88,0-1.72,0-2.59,0-3.46,0-7,0-10.68,0-7.31,0-15,0-22.94,0-4,0-8,0-12.15a8.35,8.35,0,0,1,8.35-8.12l47.56,0c.92,0,1.82,0,2.75.07a7.75,7.75,0,0,1,2.64.78,8.32,8.32,0,0,1,3.8,3.73,9.83,9.83,0,0,1,.89,5.08v5c0,6.5,0,12.55,0,18.08s0,10.53,0,14.93q0,3.28,0,6.12c0,.94,0,1.83-.05,2.7a8.53,8.53,0,0,1-.58,2.4,8.27,8.27,0,0,1-2.47,3.29,8.58,8.58,0,0,1-2.67,1.41,8.43,8.43,0,0,1-1.83.32Z"/><path class="cls-5" d="M451.83,310h35.73l.05,12H485.9q-.84-6.42-4.81-8.69a14.83,14.83,0,0,0-6.66-1.36v31.26q0,3.28,1.14,4.35c.77.72,2.36,1.07,4.77,1.07v1.51H459.19v-1.51q3.48,0,4.62-1.08c.76-.73,1.14-2.17,1.14-4.34V311.89a15.3,15.3,0,0,0-6.66,1.36q-4.26,2.33-4.81,8.69h-1.71Z"/><path class="cls-8" d="M514,198.75V318.4a6.43,6.43,0,0,0,6.43,6.44h77.14A6.43,6.43,0,0,0,604,318.4V198.75a6.43,6.43,0,0,0-6.43-6.43H520.41A6.43,6.43,0,0,0,514,198.75Z"/><path class="cls-5" d="M514,198.75a2,2,0,0,1,0-.28,5.15,5.15,0,0,1,.07-.84,6.42,6.42,0,0,1,6-5.37c2.12,0,4.55,0,7.3,0l46.5-.08,15.41,0h8.2A6.67,6.67,0,0,1,604,197a8,8,0,0,1,.23,2.21v6.63c0,3,0,6,0,9.09q0,9.22,0,19c0,26,0,54.5,0,84.45a6.73,6.73,0,0,1-2.38,5.12,6.35,6.35,0,0,1-2.54,1.34,10.15,10.15,0,0,1-2.83.25H520.76a7.57,7.57,0,0,1-2.45-.35,6.64,6.64,0,0,1-3.73-3.09,6.5,6.5,0,0,1-.77-2.31,21.19,21.19,0,0,1-.07-2.37c0-1.56,0-3.11,0-4.65q0-9.22,0-17.89c0-11.55,0-22.3,0-32.12,0-19.63.06-35.51.08-46.5,0-5.48,0-9.74,0-12.64,0-1.44,0-2.54,0-3.29s0-1.12,0-1.12,0,.38,0,1.12,0,1.85,0,3.29c0,2.9,0,7.16.05,12.64,0,11,0,26.87.08,46.5,0,9.82,0,20.57,0,32.12q0,8.65,0,17.89c0,1.54,0,3.09,0,4.65a19.61,19.61,0,0,0,.07,2.31,6,6,0,0,0,.71,2.14,6.2,6.2,0,0,0,3.47,2.87,6.74,6.74,0,0,0,2.3.32h2.42l40.74,0h32.57a9.54,9.54,0,0,0,2.69-.23,6,6,0,0,0,2.35-1.23,6.26,6.26,0,0,0,2.19-4.73c0-29.95,0-58.49,0-84.45q0-9.74,0-19,0-4.6,0-9.09v-6.63a7,7,0,0,0-.21-2.1,6.25,6.25,0,0,0-6.08-4.63h-8.2l-15.41,0-46.5-.08c-2.74,0-5.19,0-7.29,0a6.34,6.34,0,0,0-4.6,2.3,6.54,6.54,0,0,0-1.37,2.93C514,198.37,514,198.75,514,198.75Z"/><rect class="cls-3" x="536.42" y="215.31" width="5.19" height="87.75" rx="2.45"/><path class="cls-5" d="M539.15,303.07a2.67,2.67,0,0,0,1.64-.71c1.07-.81.64-2.78.7-5,0-4.63,0-11.27-.09-19.47s0-18-.07-28.87c0-5.43,0-11.14,0-17.05V218.31a4.6,4.6,0,0,0-.07-1.08,2.14,2.14,0,0,0-.48-.89,2.24,2.24,0,0,0-1.89-.73,2.14,2.14,0,0,0-2.13,1.86,10.13,10.13,0,0,0,0,1.12v4.61q0,4.58,0,9c0,5.91,0,11.62,0,17.05,0,10.87,0,20.65-.06,28.88s-.07,14.84-.1,19.46c0,1.15,0,2.17,0,3.06a2.41,2.41,0,0,0,2.18,2.36,3.15,3.15,0,0,1,.46,0,2.44,2.44,0,0,1-1.77-.44,2.5,2.5,0,0,1-1-2q0-1.34,0-3.06c0-4.62,0-11.27-.09-19.46s0-18-.07-28.88c0-5.43,0-11.14,0-17.05V218.59c0-.4,0-.75,0-1.21a2.63,2.63,0,0,1,.48-1.2,2.73,2.73,0,0,1,2.24-1.16,2.83,2.83,0,0,1,2.33.92,2.65,2.65,0,0,1,.62,1.14,5.33,5.33,0,0,1,.09,1.23c0,1.55,0,3.09,0,4.61v9c0,5.91,0,11.62,0,17.05,0,10.86,0,20.64-.06,28.87s-.07,14.84-.1,19.47c0,1.14,0,2.16,0,3.05a2.6,2.6,0,0,1-.83,2.07A2.26,2.26,0,0,1,539.15,303.07Z"/><rect class="cls-3" x="556.38" y="215.31" width="5.19" height="87.75" rx="2.45"/><path class="cls-5" d="M559.12,303.07a2.64,2.64,0,0,0,1.63-.71c1.07-.81.64-2.78.71-5,0-4.63-.06-11.27-.1-19.47s0-18-.06-28.87c0-5.43,0-11.14,0-17.05,0-3,0-6,0-9v-4.61a4.12,4.12,0,0,0-.07-1.08,2,2,0,0,0-.48-.89,2.22,2.22,0,0,0-1.88-.73,2.14,2.14,0,0,0-2.13,1.86,10,10,0,0,0,0,1.12v13.63c0,5.91,0,11.62,0,17.05,0,10.87,0,20.65-.07,28.88s-.07,14.84-.09,19.46q0,1.72,0,3.06a2.41,2.41,0,0,0,.94,1.87,2.44,2.44,0,0,0,1.24.49,3.45,3.45,0,0,1,.47,0,2.42,2.42,0,0,1-.47,0,2.34,2.34,0,0,1-1.31-.46,2.5,2.5,0,0,1-1-2q0-1.34,0-3.06c0-4.62-.06-11.27-.1-19.46s0-18-.06-28.88c0-5.43,0-11.14,0-17.05v-9c0-1.53,0-3.06,0-4.61,0-.4,0-.75,0-1.21a2.75,2.75,0,0,1,2.73-2.36,2.83,2.83,0,0,1,2.33.92,2.75,2.75,0,0,1,.61,1.14,4.41,4.41,0,0,1,.09,1.23v4.61c0,3.06,0,6.06,0,9,0,5.91,0,11.62,0,17.05,0,10.86-.05,20.64-.07,28.87s-.07,14.84-.09,19.47c0,1.14,0,2.16,0,3.05a2.6,2.6,0,0,1-.82,2.07A2.27,2.27,0,0,1,559.12,303.07Z"/><rect class="cls-3" x="576.35" y="215.31" width="5.19" height="87.75" rx="2.45"/><path class="cls-5" d="M579.08,303.07a2.67,2.67,0,0,0,1.64-.71c1.07-.81.64-2.78.7-5,0-4.63,0-11.27-.09-19.47s0-18-.07-28.87c0-5.43,0-11.14,0-17.05V218.31a4.6,4.6,0,0,0-.07-1.08,2.14,2.14,0,0,0-.48-.89,2.24,2.24,0,0,0-1.89-.73,2.14,2.14,0,0,0-2.13,1.86,10.13,10.13,0,0,0,0,1.12v4.61q0,4.58,0,9c0,5.91,0,11.62,0,17.05,0,10.87,0,20.65-.06,28.88s-.07,14.84-.1,19.46c0,1.15,0,2.17,0,3.06a2.41,2.41,0,0,0,2.18,2.36,3.15,3.15,0,0,1,.46,0,2.44,2.44,0,0,1-1.77-.44,2.5,2.5,0,0,1-1-2q0-1.34,0-3.06c0-4.62-.05-11.27-.09-19.46s0-18-.07-28.88c0-5.43,0-11.14,0-17.05V218.59c0-.4,0-.75,0-1.21a2.63,2.63,0,0,1,.48-1.2A2.73,2.73,0,0,1,578.8,215a2.86,2.86,0,0,1,2.34.92,2.75,2.75,0,0,1,.61,1.14,5.33,5.33,0,0,1,.09,1.23c0,1.55,0,3.09,0,4.61v9c0,5.91,0,11.62,0,17.05,0,10.86,0,20.64-.06,28.87s-.07,14.84-.1,19.47c0,1.14,0,2.16,0,3.05a2.6,2.6,0,0,1-.83,2.07A2.26,2.26,0,0,1,579.08,303.07Z"/><path class="cls-26" d="M538.68,256.44h-.95a5,5,0,0,1-5.05-5h0a5,5,0,0,1,5.05-5.05h.95a5,5,0,0,1,5.05,5.05h0A5,5,0,0,1,538.68,256.44Z"/><path class="cls-26" d="M560,275.47h-1a5,5,0,0,1-5-5.05h0a5,5,0,0,1,5-5h1a5,5,0,0,1,5,5h0A5,5,0,0,1,560,275.47Z"/><path class="cls-26" d="M579.19,239.61h-1a5,5,0,0,1-5-5.05h0a5,5,0,0,1,5-5h1a5,5,0,0,1,5,5h0A5,5,0,0,1,579.19,239.61Z"/><rect class="cls-8" x="501.83" y="54.39" width="123.59" height="123.59" rx="8.33"/><path class="cls-5" d="M617.09,178s.42,0,1.23-.13a8.24,8.24,0,0,0,6.71-6,12.38,12.38,0,0,0,.3-3.72c0-1.35,0-2.78,0-4.3,0-12.16-.05-29.73-.08-51.44,0-10.86,0-22.76,0-35.52,0-3.2,0-6.44,0-9.74,0-1.65,0-3.33,0-5a8.06,8.06,0,0,0-5.83-7.26,19.67,19.67,0,0,0-5.12-.32H603.59l-93.42,0a8.08,8.08,0,0,0-8,7.35c-.08,4,0,8.14,0,12.17V98c0,15.63,0,30.71,0,45.07,0,7.17,0,14.18,0,21v5.06a8.32,8.32,0,0,0,1.13,4.66,8.17,8.17,0,0,0,3.47,3.19,9.3,9.3,0,0,0,4.61.8l35.52,0,51.44.08,14,.05,3.63,0,1.24,0-1.24,0-3.63,0-14,.05-51.44.08-35.52,0a9.66,9.66,0,0,1-4.8-.85,7.79,7.79,0,0,1-2.07-1.4,7.9,7.9,0,0,1-1.59-1.95,8.8,8.8,0,0,1-1.21-4.89v-5.06c0-6.8,0-13.81,0-21,0-14.36,0-29.44,0-45.07q0-11.72,0-23.83c0-4,0-8.08,0-12.21a8.61,8.61,0,0,1,8.56-7.83l93.42,0h13.25a9.42,9.42,0,0,1,2.63.35,8.55,8.55,0,0,1,6.15,7.67c.06,1.7,0,3.34,0,5,0,3.3,0,6.54,0,9.74,0,12.76,0,24.66,0,35.52,0,21.71-.07,39.28-.09,51.44,0,1.52,0,2.95,0,4.3a12.68,12.68,0,0,1-.33,3.76,8.44,8.44,0,0,1-3.46,4.7,8.16,8.16,0,0,1-3.39,1.27,5.38,5.38,0,0,1-.93.08Z"/><path class="cls-3" d="M569.41,115H556.47a11.39,11.39,0,0,1-11.39-11.39V75.71H580.8v27.91A11.39,11.39,0,0,1,569.41,115Z"/><path class="cls-5" d="M569.41,115a18.12,18.12,0,0,0,3.31-.61,11.82,11.82,0,0,0,3.5-1.87,11,11,0,0,0,3.29-4.14,13,13,0,0,0,1-6.42c0-2.43,0-5,0-7.81,0-5.55,0-11.76,0-18.45l.34.35-24.33,0H545.08l.36-.37c0,8.33,0,16.17,0,23.25,0,1.76,0,3.5,0,5.14a11.09,11.09,0,0,0,7.3,10c2.42.94,4.84.64,6.91.72l5.31.06,3.33.06.86,0a1.11,1.11,0,0,1,.29,0l-.29,0-.86,0-3.33.06-5.31.06-3.33,0a11.62,11.62,0,0,1-11.49-11.09c-.06-1.7,0-3.4,0-5.17,0-7.08,0-14.92,0-23.25v-.37h11.76l24.33,0h.35v.35c0,6.69,0,12.9,0,18.45,0,2.78,0,5.38,0,7.81a13.35,13.35,0,0,1-1.17,6.61,11.23,11.23,0,0,1-3.47,4.21,11.54,11.54,0,0,1-3.63,1.83A9.33,9.33,0,0,1,569.41,115Z"/><path class="cls-26" d="M545.26,76c5.2,3.78,10.56,6.28,17,6.15s13.51-2.2,18.55-6.19Z"/><path class="cls-5" d="M580.8,81.44a2.89,2.89,0,0,1,.27.77l.6,2.23c.52,2,1.23,4.85,2.1,8.26q.66,2.64,1.42,5.72c.23,1,.54,2,.75,3.22a6.65,6.65,0,0,1-.48,3.58,6.79,6.79,0,0,1-2.42,2.93,6.89,6.89,0,0,1-3.79,1.14l-8,0-4.07,0a18.58,18.58,0,0,1-4-.24,11.31,11.31,0,0,1-6.47-3.9,11.47,11.47,0,0,1-1.82-3.07c-.41-1.07-.74-2.1-1.1-3.1-.69-2-1.34-3.85-1.93-5.56-1.14-3.33-2.07-6.06-2.75-8.06-.29-.9-.52-1.63-.71-2.21a2.76,2.76,0,0,1-.2-.79,3.74,3.74,0,0,1,.34.74l.84,2.16,3,8,2,5.52c.76,2,1.32,4.2,2.86,5.94a10.75,10.75,0,0,0,6.1,3.63,18,18,0,0,0,3.86.21l4.06,0,8,0a6.19,6.19,0,0,0,3.41-1,6.11,6.11,0,0,0,2.18-2.61,5.93,5.93,0,0,0,.46-3.22c-.18-1-.48-2.15-.7-3.17-.48-2-.92-4-1.33-5.73-.77-3.44-1.4-6.26-1.87-8.32l-.47-2.27A4,4,0,0,1,580.8,81.44Z"/><path class="cls-5" d="M550.45,83a2,2,0,1,1-2-2A2,2,0,0,1,550.45,83Z"/><path class="cls-26" d="M580.43,76.07c.19.84-.95,1.63-.94,2.49A3.86,3.86,0,0,1,577,82.24a1,1,0,0,0-.34.18,3.66,3.66,0,0,0-1,2.47L575,89.37a7.59,7.59,0,0,1-.74,2.7A2.58,2.58,0,0,1,572,93.48c-1.35-.08-2.19-1.55-2.39-2.89-.26-1.67.07-3.47-1.08-4.93a2,2,0,0,0-2.24-.74c-2,.75-.8,4-2.74,4.76a1.79,1.79,0,0,1-1.64-.24,4.68,4.68,0,0,1-1.59-3c-.44-1.76-.88-3.51-1.31-5.27l21.45-5.11"/><circle class="cls-26" cx="529.4" cy="139.97" r="11.05"/><circle class="cls-26" cx="563.63" cy="139.97" r="11.05"/><circle class="cls-26" cx="597.85" cy="139.97" r="11.05"/><g class="cls-28"><circle class="cls-8" cx="529.4" cy="139.97" r="11.05"/></g><g class="cls-15"><circle cx="597.85" cy="139.97" r="11.05"/></g><path class="cls-5" d="M540.45,140a22.83,22.83,0,0,0-.45-2.67,11,11,0,0,0-4-6,10.82,10.82,0,0,0-10.24-1.51,10.19,10.19,0,0,0-2.73,1.47,10.32,10.32,0,0,0-2.28,2.29,10.75,10.75,0,0,0,0,12.74,10.75,10.75,0,0,0,5,3.77A10.82,10.82,0,0,0,536,148.6a11,11,0,0,0,4-6,22.1,22.1,0,0,0,.45-2.67,8.55,8.55,0,0,1-.24,2.73,11,11,0,0,1-4,6.21,11.15,11.15,0,0,1-4.72,2.14,11.37,11.37,0,0,1-5.93-.46,10.84,10.84,0,0,1-2.86-1.53,10.71,10.71,0,0,1-2.4-2.4,11.22,11.22,0,0,1,0-13.37,10.71,10.71,0,0,1,2.4-2.4,10.84,10.84,0,0,1,2.86-1.53,11.37,11.37,0,0,1,5.93-.46,11.16,11.16,0,0,1,8.73,8.35A8.49,8.49,0,0,1,540.45,140Z"/><path class="cls-5" d="M574.67,140a22.83,22.83,0,0,0-.45-2.67,11,11,0,0,0-4-6A10.82,10.82,0,0,0,560,129.84a10.73,10.73,0,0,0-5,3.76,10.75,10.75,0,0,0,0,12.74,10.33,10.33,0,0,0,2.27,2.3,10.19,10.19,0,0,0,2.73,1.47,10.82,10.82,0,0,0,10.24-1.51,11,11,0,0,0,4-6,22.1,22.1,0,0,0,.45-2.67,8.55,8.55,0,0,1-.24,2.73,11,11,0,0,1-4,6.21,11.15,11.15,0,0,1-4.72,2.14,11.36,11.36,0,0,1-5.93-.46,10.75,10.75,0,0,1-2.87-1.53,10.47,10.47,0,0,1-2.39-2.4,11.22,11.22,0,0,1,0-13.37,10.47,10.47,0,0,1,2.39-2.4,10.75,10.75,0,0,1,2.87-1.53,11.36,11.36,0,0,1,5.93-.46,11.14,11.14,0,0,1,8.72,8.35A8.49,8.49,0,0,1,574.67,140Z"/><path class="cls-5" d="M608.88,140a22.83,22.83,0,0,0-.45-2.67,11,11,0,0,0-4-6,10.82,10.82,0,0,0-10.24-1.51,10.82,10.82,0,0,0-5,3.76,10.75,10.75,0,0,0,0,12.74,10.75,10.75,0,0,0,5,3.77,10.82,10.82,0,0,0,10.24-1.51,11,11,0,0,0,4-6,22.1,22.1,0,0,0,.45-2.67,8.55,8.55,0,0,1-.24,2.73,11,11,0,0,1-4,6.21,11.15,11.15,0,0,1-4.72,2.14,11.37,11.37,0,0,1-5.93-.46,10.84,10.84,0,0,1-2.86-1.53,10.71,10.71,0,0,1-2.4-2.4,11.22,11.22,0,0,1,0-13.37,10.71,10.71,0,0,1,2.4-2.4,10.84,10.84,0,0,1,2.86-1.53,11.37,11.37,0,0,1,5.93-.46,11.16,11.16,0,0,1,8.73,8.35A8.49,8.49,0,0,1,608.88,140Z"/><rect class="cls-8" x="167.06" y="162.2" width="165.56" height="80.77" rx="8.65"/><path class="cls-5" d="M324,243s.42,0,1.23-.12a8.51,8.51,0,0,0,3.34-1.25,8.63,8.63,0,0,0,3.54-4.51,9.91,9.91,0,0,0,.45-3.68c0-1.34,0-2.77,0-4.28,0-12.1,0-29.59-.08-51.2,0-1.35,0-2.71,0-4.1v-2.08a14.29,14.29,0,0,0-.09-2.08,8.47,8.47,0,0,0-4.86-6.5,9.21,9.21,0,0,0-4.27-.77H309.28l-40.57,0-93,0a8.45,8.45,0,0,0-5.49,2,8.29,8.29,0,0,0-2.81,5.09,21.36,21.36,0,0,0-.11,3v32.81q0,11.67,0,22.9v5.58a8.66,8.66,0,0,0,1.41,5.09,8.46,8.46,0,0,0,4.1,3.23c1.64.68,3.45.49,5.24.52l75.94.06,51.2.08,13.92,0,3.62,0,1.23,0-1.23,0-3.62,0-13.92,0-51.2.09-75.94.05c-.89,0-1.78,0-2.69,0a8.18,8.18,0,0,1-2.72-.54,9,9,0,0,1-4.34-3.4,9.13,9.13,0,0,1-1.49-5.37c0-1.85,0-3.71,0-5.58v-22.9q0-11.67,0-23.73V172.6a22.89,22.89,0,0,1,.11-3.08,8.83,8.83,0,0,1,3-5.41,8.93,8.93,0,0,1,5.83-2.17l93,0,40.57,0h13.93a9.61,9.61,0,0,1,4.43.81,8.86,8.86,0,0,1,5.08,6.81,14,14,0,0,1,.09,2.14v6.18c0,21.61-.07,39.1-.09,51.2,0,1.51,0,2.94,0,4.28a10.2,10.2,0,0,1-.48,3.73,8.67,8.67,0,0,1-3.63,4.54,8.3,8.3,0,0,1-3.4,1.22,5,5,0,0,1-.92.07Z"/><polygon class="cls-7" points="207.24 199.98 207.24 210.63 232.34 221.4 232.56 211.2 218.53 204.94 232.56 198.96 232.56 189.07 207.24 199.98"/><polygon class="cls-7" points="292.44 211.35 292.44 200.69 267.12 189.93 266.91 200.13 281.06 206.39 266.91 212.37 266.91 222.25 292.44 211.35"/><path class="cls-7" d="M251.3,180.28c0,.26-14.74,50-14.32,49.91s11,0,11,0l14.54-49.91Z"/><path class="cls-3" d="M184.28,172.91a3.5,3.5,0,1,1-3.49-3.27A3.39,3.39,0,0,1,184.28,172.91Z"/><path class="cls-3" d="M193.86,172.91a3.49,3.49,0,1,1-3.49-3.27A3.39,3.39,0,0,1,193.86,172.91Z"/><path class="cls-3" d="M203.44,172.91a3.49,3.49,0,1,1-3.48-3.27A3.39,3.39,0,0,1,203.44,172.91Z"/><rect class="cls-6" x="379.17" y="111.5" width="49.99" height="7.22"/></g></g></svg>