<?xml version="1.0" encoding="utf-8"?>
<!-- Generator: Adobe Illustrator 24.2.1, SVG Export Plug-In . SVG Version: 6.00 Build 0)  -->
<svg version="1.1" id="Layer_1" xmlns="http://www.w3.org/2000/svg" xmlns:xlink="http://www.w3.org/1999/xlink" x="0px" y="0px"
	 viewBox="0 0 120.9 266.6" style="enable-background:new 0 0 120.9 266.6;" xml:space="preserve">
<style type="text/css">
	.st0{fill:#3F2F7C;}
	.st1{fill:#8D80B1;}
	.st2{fill:#F0B3AD;}
	.st3{opacity:0.47;fill:#F0B3AD;enable-background:new    ;}
	.st4{opacity:0.82;}
	.st5{fill:#E69585;}
	.st6{opacity:0.15;fill:#121823;enable-background:new    ;}
	.st7{fill:#DBDBDB;}
	.st8{fill:none;stroke:#B9839A;stroke-width:1.33;stroke-miterlimit:10;}
	.st9{fill:none;stroke:#CB849C;stroke-width:0.67;stroke-linecap:round;stroke-miterlimit:10;}
	.st10{fill:#74D3C5;}
	.st11{fill:#717991;}
	.st12{fill:#939AA7;}
	.st13{fill:#E8ECED;}
	.st14{fill:none;stroke:#D395AB;stroke-width:1.33;stroke-miterlimit:10;}
	.st15{fill:none;stroke:#D395AB;stroke-width:0.67;stroke-linecap:round;stroke-linejoin:round;}
	.st16{fill:#9FA5B4;}
	.st17{fill:none;stroke:#9FA5B4;stroke-width:0.58;stroke-miterlimit:10;}
	.st18{opacity:0.4;fill:#9FA5B4;enable-background:new    ;}
	.st19{fill:#626C81;}
	.st20{fill:#F6F6F6;}
	.st21{fill:#595739;}
	.st22{fill:#3B6246;}
	.st23{fill:#5B806A;}
	.st24{opacity:0.5;}
	.st25{opacity:0.2;}
	.st26{fill:#BA7F6C;}
	.st27{fill:#391204;}
	.st28{fill:#FFFFFF;}
	.st29{fill:#E3E3E3;}
	.st30{fill:#DD4B43;}
	.st31{fill:#E06F69;}
	.st32{fill:none;}
	.st33{fill:#F1F1F1;}
</style>
<g>
	<g id="OBJECTS">
		<path class="st0" d="M83.9,39.3c-3.9-1-2.8-8.8-7.8-24.8C70.6-2.6,45.3,5.9,55.1,3.5c-0.5,0-13.8,1.5-15.7,17.9
			c-1.9,16.6-3.4,24.5-7,26.2c-3.6,1.7-8.8,9.2,3.6,15.1c5.7,2.7,15.8,3.7,25.5,2.8l0,0h0.4h0.4l0,0c9.7-1,19.4-3.9,24.5-7.6
			C97.8,49.6,87.8,40.3,83.9,39.3z"/>
		<path class="st1" d="M74.6,40.2c-7.7-9.4-7.5-21.3-9-32.8c-4.7-1.7-10.5-0.6-15.3,0.2c1.3,5.1,1.9,10.3,2,15.6
			c0.1,7-0.7,14.9-4.8,20.8c-2.4,3.5-6,5.2-9.5,7.4c-2.6,1.7-4.5,4.1-5.6,7c-0.2,0.5-0.4,1.1-0.5,1.6c1.3,1.1,2.7,2,4.3,2.7
			c5.7,2.7,15.8,3.7,25.5,2.8l0,0H62h0.4l0,0c9.6-1,19.2-3.8,24.3-7.5c0-2.1-0.6-4.2-1.7-6C82.3,47.4,77.9,44.2,74.6,40.2z"/>
		<path class="st2" d="M52.4,42.7c0,0,0.9,9.2-0.7,10.7c0,0,3.7,4.2,10.9,3.2c0,0,5.5-1,6.8-3.2c0,0-1.6-11.1-1.8-13.4
			C67.6,40,54,37.9,52.4,42.7z"/>
		<path class="st3" d="M52.6,48c3.2,2,6.8,2.9,10.7,1.4c1.8-0.7,3.5-1.8,5-3.1C68,43.7,67.7,41,67.6,40c0,0-13.6-2.1-15.2,2.7
			C52.4,42.7,52.6,45.3,52.6,48z"/>
		<path class="st2" d="M73.4,19L73.4,19C71.8,10.9,64.2,5.3,56,6.2c-8.8,0.9-15.4,8.4-14.5,16.9c0.1,1.2,0.4,2.4,0.8,3.6
			c1.3,6.3,5.7,19.3,19.1,20.5C61.3,47.3,77,43.3,73.4,19z"/>
		<path class="st2" d="M45.2,32.2c1,2.1,1,4.2-0.2,4.8s-2.9-0.6-4-2.7s-1-4.2,0.2-4.8S44.2,30.1,45.2,32.2z"/>
		<path class="st2" d="M77.9,30.2c-0.4,2.3-1.7,4-2.9,3.8s-2-2.2-1.6-4.5s1.7-4,2.9-3.8S78.3,27.9,77.9,30.2z"/>
		<path class="st0" d="M55.3,28c0,0-2.8-2.6-8.4-0.4c0,0,5.3-0.8,7.3,0.5C54.2,28.1,55.4,28.9,55.3,28z"/>
		<path class="st0" d="M62.5,27.7c0,0,2.2-3.1,8.2-2c0,0-5.4,0.2-7,1.9C63.6,27.6,62.6,28.6,62.5,27.7z"/>
		<g class="st4">
			<path class="st0" d="M58.4,35.6c0,0,1.9,1.7,2.8-0.1C61.3,35.5,60.3,37.8,58.4,35.6z"/>
			<path class="st0" d="M57.5,35c-0.3,0.3-0.3,0.9,0.1,1.2c0.1,0.1,0.3,0.2,0.4,0.2C57.6,36.1,57.5,35.6,57.5,35z"/>
			<path class="st0" d="M62.1,34.7c0.4,0.3,0.5,0.8,0.2,1.2c-0.1,0.1-0.2,0.2-0.4,0.3C62.2,35.7,62.2,35.2,62.1,34.7z"/>
		</g>
		<path class="st0" d="M73.9,17.6l0.9-0.1c-0.1-3.1-1-6.2-2.8-8.8c-1.5-2.5-2.7-3.2-5.6-3.6c-2.2-0.3-4.4-1.4-6.5-0.9
			c-0.6,0.2-1.1,0.5-1.6,0.8c-0.2,0.1-0.5,0.2-0.7,0.2c-2.1-0.3-4.2-0.4-6.3-0.2c-2.7,0.2-5.1,1.7-6.6,4c-0.5,0.8-1,1.7-1.4,2.6
			c-0.6,1.4-1,1.2-1.2,2.7c-4.5,8.8,0.7,14.8,0.7,14.8c-0.1-0.4,1,2.3,0.9,1.9c1.1,2.7,1.6,6,2,6.4c0.7,0.7,1.2-1,1.2-1
			c-2.7-5.1-1.4-11.7,0-16.2l11.7-1.1c0.3,0,0.5-0.2,0.5-0.5c0.3-1.1,0.7-2.3,1-3.4l0.1-0.4H61c0.3,1.3,0.6,2.7,0.9,4l4.5-0.4
			c0-0.9,0-1.8,0-2.7l0.6,0.2c0.3,0.7,0.5,1.3,0.8,1.9c0.1,0.2,0.3,0.4,0.5,0.4l1.8-0.2c0.9,1,1.6,2.1,2,3.4L72,21.5
			c0,0,1.5,12,0.9,15.9c0,0,0.5,0.9,1.2,0.2s1.2-9.1,1-13.5C75.3,22.4,74.5,20.2,73.9,17.6z"/>
		<path class="st2" d="M15.4,40.2c0,0-0.3-2-0.6-6l-0.6-5.8c0,0-5-12.7,1.6-1.2c0.2,0.1,0.5,0,0.6-0.3c0-0.1,0-0.1,0-0.2
			c0-0.6-0.9-9.2-0.2-9.2s1.9,8.1,2.3,8.3s0.4-9.4,1.4-9.1s0.6,9.2,1.3,9.2s2.7-7.4,3.6-7.4s-1.1,8.6-0.9,10.3s1,1.8,1,1.8
			s1,0.5,1.9-1.5s1.6-2.5,2.6-1.8c-0.3,0.9-0.6,1.9-0.9,2.8c-0.2,0.5-2.6,6-5.7,6.8l-1,4.6L15.4,40.2z"/>
		<path class="st5" d="M14.8,34.6c0.4,3.8,0.6,5.6,0.6,5.6l6.3,1.2l0.8-3.4C19.9,36.9,17.3,35.8,14.8,34.6z"/>
		<path class="st6" d="M92.2,257.7c0,3.1-14.8,5.7-33.2,5.7s-33.2-2.5-33.2-5.7S40.7,252,59,252S92.2,254.6,92.2,257.7z"/>
		<polygon class="st5" points="63,193.4 68,245.1 62.3,245.3 51,195.6 		"/>
		<polygon class="st7" points="68.6,245 69.1,255.6 45,256.1 62.2,244.7 		"/>
		<line class="st8" x1="45.1" y1="256.2" x2="69.1" y2="255.6"/>
		<path class="st2" d="M55.3,52.6L43.8,56l-0.5,0.2c0,0,2.1,14.7,17.7,11.3s17.6-15.5,17.6-15.5l-15.1-0.4L55.3,52.6z"/>
		<path class="st9" d="M54,249.9c2,1.2,3.2,3.4,3.1,5.7"/>
		<path class="st9" d="M55.8,248.5c0,0,3.6,0.7,3.8,3.2"/>
		<path class="st9" d="M57.8,247c0,0,3.6,0.7,3.8,3.2"/>
		<path class="st10" d="M45.5,55.6c0,0,3.7,12.8,16.2,10.6c7-1,12.5-6.6,13.4-13.7c4.2,0,8.2,1.6,11.2,4.5
			c4.6,4.7,16.8,20.2,16.8,24.9s-14.9,25.5-14.9,25.5l-5.9-3.4l7.1-20.6l-8.7-6c0,0-2.8,25.5-9,29.9c-6.2,4.3-20.2,0-20.2,0
			L39.3,75.8c0,0-17.1,5.6-23.6,2.2S11,38.2,12.8,37.3S24,39.7,24,39.7s-1.5,22.7,0.9,22.7S37.1,56.8,45.5,55.6z"/>
		<path class="st10" d="M71.3,77.4c-7.1,0.8-14.1,1.1-21.2,1.3c-1.3,3.1-4,5.5-7.2,6.4l8.5,22.1c0,0,14,4.4,20.2,0
			c4.2-3,6.9-15.8,8.2-23.6C76,83.3,72.7,80.9,71.3,77.4z"/>
		<path class="st11" d="M46.1,75.5l29.5-4.4c0,0-3.1,21.2,6.2,34.8c0,0,20.5,50.1,4.3,84.7c-6.7,14.4-13.9,22.6-13.9,22.6l-11.5-7.5
			l8.1-26.9l-6.5-31.3l3.4,51.3l-14.9,4c0,0-14.8-56.4-16.5-66.5c-2.5-15.2,12.8-37,12.8-37S47.1,86.1,46.1,75.5z"/>
		<polygon class="st12" points="47.7,197.1 64.6,193.3 62.4,200.1 49.9,204.3 		"/>
		<polygon class="st2" points="63,203.8 45.1,241.7 50.8,244.2 71.5,213.1 		"/>
		<polygon class="st13" points="46.6,238.3 41.7,246.9 62,256.6 53.3,240.5 		"/>
		<line class="st14" x1="41.7" y1="246.9" x2="61.6" y2="256.4"/>
		<path class="st15" d="M56.7,246.8c0,0-3.5-0.2-5.7,4.4"/>
		<path class="st15" d="M55.8,244.7c0,0-3.5-1-4.8,1.2"/>
		<path class="st15" d="M54.6,242.5c0,0-3.5-1-4.8,1.2"/>
		<polygon class="st16" points="61.7,200.9 75.4,211.8 71.6,217.4 59.2,206.5 		"/>
		<path class="st17" d="M48,73.6c0,0,1.4,3.2,2.3,3.1s2.2-2.3,2.2-2.3l-1-2.2"/>
		<polygon class="st11" points="41.5,56.3 45.2,53.9 52.2,72.2 47.7,74.6 		"/>
		<path class="st16" d="M49.7,74.8c0,0.5,0.5,0.9,1,0.9c0,0,0,0,0,0c0.5,0.1,0.9-0.3,1-0.7c0.1-0.5-0.3-0.9-0.7-1
			c-0.1,0-0.2,0-0.3,0C50.2,73.9,49.7,74.3,49.7,74.8C49.7,74.8,49.7,74.8,49.7,74.8z"/>
		<path class="st17" d="M71.3,69.2c0,0-0.5,3.5,0.4,3.8s3-0.8,3-0.8l0.3-2.4"/>
		<polygon class="st11" points="74.5,51 78.9,50.8 75.6,70.2 70.6,69.9 		"/>
		<path class="st16" d="M72.1,71.1c-0.2,0.5-0.1,1,0.4,1.2c0,0,0,0,0,0c0.4,0.3,1,0.2,1.3-0.2c0,0,0,0,0,0c0.2-0.5-0.1-1.1-0.6-1.3
			C72.8,70.7,72.4,70.8,72.1,71.1z"/>
		<path class="st18" d="M70.6,78.5l-19,2.2c0,0,0,11.4,5.4,13S75.1,96.5,70.6,78.5z"/>
		<path class="st2" d="M82.5,104.1l-0.2,0.5c0,0-3.5-3.3-5-1.8c-0.8,0.8-7.6,7.6,1.1,1.4c0,0-8.6,11.3,2,2.1c0,0-6.5,10.6,1,1.9
			c0,0-1.8,10.1,1.4,1.6c0,0,1.5,2.8,2.6,1.9s2.5-4.3,2.5-4.3C86.1,106.1,84.4,105,82.5,104.1z"/>
		<polygon class="st19" points="62,141 45.2,134.8 58.6,194.6 64.6,193.3 65.3,191.5 		"/>
		<polygon class="st19" points="63.5,141 73.8,128.5 65.4,141.9 		"/>
		<path d="M69.5,29.6c0,0-0.2,3.1-5,2.1L69.5,29.6z"/>
		<path class="st20" d="M62.8,31.3c0,0,0.7-3,3.2-3.5c1.4-0.4,2.8,0.1,3.7,1.2c-0.2,1.3-1.2,2.3-2.4,2.6
			C65.8,31.9,64.2,31.8,62.8,31.3z"/>
		<path class="st21" d="M68.2,29.1c0.1,1.1-0.8,2.1-1.9,2.2s-2.1-0.8-2.2-1.9c-0.1-1.1,0.8-2.1,1.9-2.2C67.2,27.1,68.2,28,68.2,29.1
			C68.2,29.1,68.2,29.1,68.2,29.1z"/>
		<path class="st22" d="M68.1,29c0.1,1.1-0.7,2.1-1.8,2.1c-1.1,0.1-2.1-0.7-2.1-1.8s0.7-2.1,1.8-2.1c0,0,0,0,0,0
			C67.1,27.1,68,27.9,68.1,29z"/>
		<path class="st23" d="M67.4,29.1c0,0.7-0.5,1.3-1.2,1.3S65,30,64.9,29.3c0-0.7,0.5-1.3,1.2-1.3C66.8,27.9,67.4,28.4,67.4,29.1
			C67.4,29.1,67.4,29.1,67.4,29.1z"/>
		<g class="st24">
			<path d="M66.5,28.7c0.7,0,1.3,0.2,1.7,0.8c0-0.1,0-0.2,0-0.4c-0.1-1.1-1-2-2.2-1.9c-1.1,0.1-2,1-1.9,2.2c0,0.4,0.2,0.8,0.5,1.2
				C64.7,29.5,65.5,28.7,66.5,28.7z"/>
		</g>
		<path d="M67.1,29.2c0,0.5-0.3,0.9-0.8,0.9c-0.5,0-0.9-0.3-0.9-0.8c0-0.5,0.3-0.9,0.8-0.9C66.6,28.3,67,28.7,67.1,29.2
			C67,29.2,67,29.2,67.1,29.2z"/>
		<path class="st20" d="M68.5,29.1c0,0.4-0.3,0.7-0.7,0.8c0,0,0,0,0,0c-0.4,0-0.7-0.3-0.8-0.7c0-0.4,0.3-0.7,0.7-0.7c0,0,0,0,0,0
			C68.1,28.4,68.5,28.7,68.5,29.1C68.5,29.1,68.5,29.1,68.5,29.1z"/>
		<path class="st20" d="M67.2,30.1c0,0.1-0.1,0.3-0.2,0.3c-0.1,0-0.3-0.1-0.3-0.2c0-0.1,0.1-0.2,0.2-0.3
			C67.1,29.9,67.2,30,67.2,30.1C67.2,30.1,67.2,30.1,67.2,30.1z"/>
		<path d="M64.2,28.2c-0.8,0.9-1.3,2-1.4,3.1c0,0,0.7-3,3.2-3.5c1.4-0.4,2.8,0.1,3.7,1.2c0,0,1-0.4,0.8-0.7
			C69.2,26.3,65.7,26.3,64.2,28.2z"/>
		<g class="st25">
			<path d="M65.8,28.4c1.4-0.3,2.8,0.1,3.7,1.2c0,0.1,0,0.1,0,0.2c0.1-0.2,0.2-0.5,0.2-0.8c-0.9-1.1-2.3-1.6-3.7-1.3
				c-2.2,0.5-3,2.9-3.2,3.4C63.3,29.8,64.4,28.8,65.8,28.4z"/>
		</g>
		<path d="M48.6,30.9c0,0,0.6,3.1,5.2,1.5L48.6,30.9z"/>
		<path class="st20" d="M55.5,31.7c0,0-1.1-2.9-3.6-3.1c-1.4-0.2-2.8,0.5-3.5,1.7c0.4,1.2,1.5,2.1,2.8,2.3
			C52.6,32.7,54.1,32.4,55.5,31.7z"/>
		<path class="st21" d="M49.7,30.2c0.1,1.1,1.1,2,2.2,1.9c1.1-0.1,2-1.1,1.9-2.2c-0.1-1.1-1-2-2.2-1.9
			C50.5,28.1,49.7,29.1,49.7,30.2C49.7,30.2,49.7,30.2,49.7,30.2z"/>
		
			<ellipse transform="matrix(0.998 -6.244214e-02 6.244214e-02 0.998 -1.7721 3.2937)" class="st22" cx="51.8" cy="30" rx="2" ry="2"/>
		<path class="st23" d="M50.5,30.2c0,0.7,0.6,1.2,1.3,1.2c0.7,0,1.2-0.6,1.2-1.3c0-0.7-0.6-1.2-1.3-1.2C51,28.9,50.5,29.5,50.5,30.2
			C50.5,30.2,50.5,30.2,50.5,30.2z"/>
		<path d="M50.9,30.1c0,0.5,0.4,0.8,0.9,0.8s0.8-0.4,0.8-0.9c0-0.5-0.4-0.8-0.9-0.8C51.3,29.3,50.9,29.7,50.9,30.1
			C50.9,30.1,50.9,30.1,50.9,30.1z"/>
		<g class="st25">
			<path d="M52.1,29.2c-1.4-0.2-2.8,0.5-3.5,1.7l0.1,0.2c-0.1-0.2-0.3-0.5-0.3-0.7c0.7-1.2,2.1-1.9,3.5-1.7c2.2,0.2,3.3,2.5,3.6,3
				C54.8,30.3,53.5,29.4,52.1,29.2z"/>
		</g>
		<g class="st24">
			<path d="M52.1,29.6c0.7,0,1.3,0.2,1.7,0.8c0-0.1,0-0.2,0-0.4c-0.1-1.1-1-2-2.2-1.9s-2,1-1.9,2.2c0,0.4,0.2,0.9,0.5,1.2
				C50.3,30.4,51.1,29.6,52.1,29.6z"/>
		</g>
		<path class="st20" d="M53.9,30c0,0.4-0.3,0.7-0.7,0.7c0,0,0,0,0,0c-0.4,0-0.7-0.3-0.7-0.7c0-0.3,0.3-0.6,0.6-0.7
			C53.5,29.3,53.9,29.6,53.9,30C53.9,30,53.9,30,53.9,30z"/>
		<path class="st20" d="M52.6,31c0,0.1-0.1,0.3-0.2,0.3s-0.3-0.1-0.3-0.2c0-0.1,0.1-0.3,0.2-0.3c0,0,0,0,0,0
			C52.5,30.8,52.6,30.9,52.6,31z"/>
		<path d="M53.7,28.8c0.9,0.8,1.5,1.8,1.8,2.9c0,0-1.1-2.9-3.6-3.1c-1.4-0.2-2.8,0.5-3.5,1.7c0,0-1.1-0.3-0.9-0.6
			C48.4,27.6,51.9,27.1,53.7,28.8z"/>
		<path class="st26" d="M65,38.6c0,0-0.1,0.3-0.9,0.3s-7.8,0.6-7.8,0.6s-0.4,0-0.4-0.3l-0.1,0.2c0,0,2.4,2.8,3.8,2.9
			c1.1,0.1,2.2,0,3.2-0.5c0.9-0.9,1.7-1.9,2.4-3L65,38.6z"/>
		<path class="st27" d="M63.8,39.1l-7.2,0.6h-0.5c0,0,2.2,2,3.4,2.1c1,0.1,2.1-0.1,3-0.5c0.8-0.7,1.6-1.5,2.2-2.3L63.8,39.1z"/>
		<path class="st28" d="M56.9,39.6c0,0,1,1.5,2.1,1.4c1.4,0,2.8-0.2,4.2-0.5c0.6-0.2,1.1-1.4,1.1-1.4L56.9,39.6z"/>
		<path class="st29" d="M57.7,40.3c0.4,0,5.9-0.4,6.1-0.5c0.2-0.2,0.3-0.4,0.5-0.7l-7.3,0.5C56.9,39.6,57.2,40.2,57.7,40.3z"/>
		<path class="st30" d="M64.8,39L64.8,39L64.8,39C64.8,39,64.9,39,64.8,39z"/>
		<path class="st30" d="M56.7,39.6c0,0,2,0,3.8-0.1c1.5-0.1,3-0.4,3.3-0.4l0.9-0.1c-0.5,0-1.5-0.4-2.1-0.5c-0.7,0-1.5,0.2-2.2,0.3
			c-0.8-0.1-1.6,0-2.4,0.2l-1.7,0.7L56.7,39.6z"/>
		<path class="st30" d="M56.2,39.7L56.2,39.7z"/>
		<path class="st31" d="M57.6,39.2c0.5-0.3,1.1-0.4,1.7-0.3C60.3,39.1,57.6,39.2,57.6,39.2z"/>
		<path class="st32" d="M59.2,41.7L59,41.6L59.2,41.7z"/>
		<path class="st33" d="M59.2,41.7c0.1,0,0.3,0.1,0.4,0.1c1,0.1,2.1-0.1,3-0.5c0.1-0.1,0.2-0.1,0.3-0.2v0c0.1-0.1,0.2-0.2,0.3-0.3
			l0,0c-1.1,0-3.4,0.3-4.5,0.4c-0.2,0-0.4,0.1-0.5,0.1l0.5,0.2l0.3,0.1L59.2,41.7z"/>
		<path class="st33" d="M59.6,41.8c-0.1,0-0.3,0-0.4-0.1C59.3,41.7,59.5,41.7,59.6,41.8z"/>
		<path class="st33" d="M58.7,41.5l0.3,0.1L58.7,41.5z"/>
		<path class="st32" d="M59.6,41.8c-0.2,0-0.3-0.1-0.5-0.1C59.3,41.7,59.4,41.7,59.6,41.8z"/>
		<path class="st29" d="M59.6,41.8c1,0.1,2.1-0.1,3-0.5l0,0l-3.5,0.4l0,0C59.3,41.7,59.5,41.7,59.6,41.8z"/>
		<path class="st30" d="M62.6,41.3c-0.9,0.4-2,0.6-3,0.5c-1.2-0.1-3.4-2.1-3.4-2.1s1.6,3.5,4.5,3.2s3.5-2.6,4.1-3.9l0,0
			C64.1,39.8,63.4,40.6,62.6,41.3z"/>
		<path class="st31" d="M60.5,42.6c-0.6,0-1.3-0.2-1.8-0.4C58.2,41.8,59.5,43.1,60.5,42.6z"/>
	</g>
</g>
</svg>
