<svg xmlns="http://www.w3.org/2000/svg" viewBox="0 0 699.52 448.18"><defs><style>.cls-1{isolation:isolate;}.cls-2{fill:#e0e0e0;}.cls-3{fill:#717991;}.cls-4{fill:#fff;}.cls-5{fill:#e25f97;}.cls-6{fill:#fafafa;}.cls-7{fill:#a793f7;}.cls-8{opacity:0.3;}.cls-31,.cls-9{fill:#74d3c5;}.cls-10{fill:#1e154a;}.cls-11{fill:#3f2f7c;}.cls-12{opacity:0.1;}.cls-13,.cls-35{opacity:0.2;}.cls-14{opacity:0.4;}.cls-15{opacity:0.36;}.cls-15,.cls-22,.cls-31,.cls-35{mix-blend-mode:multiply;}.cls-16{fill:#6455bc;}.cls-17,.cls-22{fill:#f0b3ad;}.cls-18,.cls-36{opacity:0.5;}.cls-19{fill:#e8eced;}.cls-20{fill:#d395ab;}.cls-21{fill:#626c81;}.cls-22{opacity:0.47;}.cls-23{fill:#943530;}.cls-24{fill:#ba7f6c;}.cls-25{fill:#e3e3e3;}.cls-26{fill:#f1f1f1;}.cls-27{fill:#dd4b43;}.cls-28{fill:#e06f69;}.cls-29{opacity:0.82;}.cls-30{fill:#ff9a6c;}.cls-32{fill:#f4f4f4;}.cls-33{fill:#3b6246;}.cls-34{fill:#5b806a;}</style></defs><g class="cls-1"><g id="ilustracion_DG" data-name="ilustracion DG"><path class="cls-2" d="M179.21,54H133.13V7.89h46.08Zm-45.08-1h44.08V8.89H134.13Z"/><path class="cls-2" d="M178.71,8.39c.1.1-9.91,10.28-22.35,22.72s-22.63,22.46-22.73,22.36S143.54,43.19,156,30.75,178.61,8.29,178.71,8.39Z"/><path class="cls-2" d="M176.37,53.76a4,4,0,0,1-.4-.47l-1.08-1.41c-.92-1.24-2.27-3-4-5.18-3.37-4.34-8.19-10.21-13.88-16.38s-11.17-11.44-15.22-15.15c-2-1.86-3.69-3.35-4.84-4.36l-1.32-1.18a3.46,3.46,0,0,1-.44-.44,2.52,2.52,0,0,1,.5.36l1.39,1.11c1.19,1,2.89,2.41,4.95,4.23,4.13,3.65,9.66,8.9,15.36,15.08s10.49,12.1,13.8,16.51c1.65,2.2,3,4,3.83,5.28l1,1.47A3.15,3.15,0,0,1,176.37,53.76Z"/><path class="cls-2" d="M681.45,178.19H635.38V132.12h46.07Zm-45.07-1h44.07V133.12H636.38Z"/><path class="cls-2" d="M681,132.62c.11.1-9.9,10.27-22.35,22.72S636,177.8,635.88,177.69s9.9-10.27,22.35-22.72S680.85,132.52,681,132.62Z"/><path class="cls-2" d="M678.62,178a2.3,2.3,0,0,1-.41-.47l-1.07-1.41c-.92-1.23-2.27-3-4-5.17-3.38-4.34-8.2-10.22-13.88-16.38s-11.17-11.44-15.23-15.16c-2-1.85-3.68-3.34-4.84-4.35l-1.32-1.19c-.3-.27-.45-.42-.43-.44a3.22,3.22,0,0,1,.5.36l1.38,1.11c1.2,1,2.9,2.42,5,4.24,4.13,3.65,9.65,8.89,15.36,15.07s10.49,12.11,13.79,16.51c1.66,2.21,3,4,3.83,5.28l1,1.47A3.71,3.71,0,0,1,678.62,178Z"/><path class="cls-2" d="M100.34,248.92H54.26V202.85h46.08Zm-45.08-1H99.34V203.85H55.26Z"/><path class="cls-2" d="M99.84,203.35c.1.1-9.91,10.27-22.35,22.72s-22.62,22.46-22.73,22.35,9.91-10.27,22.36-22.72S99.74,203.25,99.84,203.35Z"/><path class="cls-2" d="M97.5,248.71a3.09,3.09,0,0,1-.4-.47L96,246.83c-.92-1.23-2.27-3-4-5.17-3.37-4.34-8.19-10.22-13.88-16.39S67,213.83,63,210.12c-2-1.85-3.69-3.34-4.84-4.35l-1.32-1.19a2.36,2.36,0,0,1-.44-.44,2.73,2.73,0,0,1,.5.36l1.39,1.11c1.19,1,2.89,2.41,5,4.24,4.13,3.65,9.66,8.89,15.36,15.07S89.05,237,92.36,241.43c1.65,2.21,3,4,3.83,5.28l1,1.47A3.71,3.71,0,0,1,97.5,248.71Z"/><path class="cls-2" d="M645.52,80.64h-7.38V79.16h7.38Zm-14.75,0h-7.38V79.16h7.38Zm-14.76,0h-7.37V79.16H616Zm-14.75,0h-7.37V79.16h7.37Zm45-1.63h-1.47V71.64h1.47Zm-57.38-.73H587.4V70.9h1.47Zm57.38-14h-1.47V56.89h1.47Zm-57.38-.73H587.4V56.15h1.47Zm57.38-14h-1.47V42.14h1.47Zm-57.38-.73H587.4V41.4h1.47Zm57.38-14h-1.47V27.39h1.47ZM588.87,34H587.4V26.65h1.47ZM643,23.26h-7.38V21.78H643Zm-14.75,0h-7.38V21.78h7.38Zm-14.75,0h-7.38V21.78h7.38Zm-14.75,0h-7.38V21.78h7.38Z"/><path class="cls-2" d="M588.63,28.68a5.43,5.43,0,1,1,5.43-5.43A5.44,5.44,0,0,1,588.63,28.68Zm0-9.38a3.95,3.95,0,1,0,4,3.95A4,4,0,0,0,588.63,19.3Z"/><path class="cls-2" d="M645.22,28.68a5.43,5.43,0,1,1,5.43-5.43A5.44,5.44,0,0,1,645.22,28.68Zm0-9.38a3.95,3.95,0,1,0,3.95,3.95A4,4,0,0,0,645.22,19.3Z"/><path class="cls-2" d="M588.63,86.87a5.43,5.43,0,1,1,5.43-5.43A5.44,5.44,0,0,1,588.63,86.87Zm0-9.38a4,4,0,1,0,4,4A4,4,0,0,0,588.63,77.49Z"/><path class="cls-2" d="M645.22,86.87a5.43,5.43,0,1,1,5.43-5.43A5.44,5.44,0,0,1,645.22,86.87Zm0-9.38a4,4,0,1,0,3.95,4A4,4,0,0,0,645.22,77.49Z"/><path class="cls-2" d="M615.63,40.73H605v-5H632.2v5H621.58v27h-6Z"/><path class="cls-2" d="M74.44,99.49H59l-1.84,4.25a9.5,9.5,0,0,0-.9,3.51,2.9,2.9,0,0,0,1.48,2.7,12.21,12.21,0,0,0,4.28.78v1.19H47.53v-1.19a6.54,6.54,0,0,0,3.86-2c1-1.06,2.25-3.26,3.73-6.58L70.73,67.37h.62l15.74,35.79q2.25,5.09,3.7,6.41a5.11,5.11,0,0,0,3.09,1.16v1.19H72.76v-1.19h.87A6.59,6.59,0,0,0,77.2,110a1.7,1.7,0,0,0,.71-1.48,3.84,3.84,0,0,0-.19-1.19c0-.2-.37-1-1-2.42Zm-1.1-2.38-6.5-15-6.7,15Z"/><path class="cls-3" d="M686.57,437.48c0,.14-152.32.26-340.18.26s-340.22-.12-340.22-.26,152.3-.26,340.22-.26S686.57,437.33,686.57,437.48Z"/><polygon class="cls-4" points="513.72 7.63 209.77 7.63 209.77 291.26 345.1 291.26 345.1 316.32 367.26 291.26 513.72 291.26 513.72 7.63"/><rect class="cls-2" x="209.29" y="7.63" width="304.91" height="20.56"/><path class="cls-4" d="M225.7,18.58a4.48,4.48,0,1,1-4.47-4.47A4.47,4.47,0,0,1,225.7,18.58Z"/><path class="cls-4" d="M238.57,18.58a4.48,4.48,0,1,1-4.48-4.47A4.48,4.48,0,0,1,238.57,18.58Z"/><path class="cls-4" d="M251.43,18.58A4.47,4.47,0,1,1,247,14.11,4.47,4.47,0,0,1,251.43,18.58Z"/><path class="cls-3" d="M513.72,291.51c0-1.86-.09-112.85-.22-283.88l.22.22-304,0,.26-.26V25.41c0,95.7,0,186.2,0,266.1l-.23-.23,135.33,0h.19v.2c0,8.82,0,16.93,0,24.81l-.32-.12,22.16-24.4.05-.06h.08l146.47-.23-146.47.57.12-.06-22.13,24.43-.32.35v-.48c0-7.88,0-16,0-24.81l.19.19-135.33,0h-.23v-.23c0-79.9,0-170.4,0-266.1v-18h.26l304,0h.22v.22C513.81,178.66,513.72,289.66,513.72,291.51Z"/><rect class="cls-2" x="226.3" y="69.29" width="46.71" height="6.56"/><path class="cls-3" d="M319.55,92.56c0,.15-20.84.26-46.55.26s-46.54-.11-46.54-.26,20.83-.26,46.54-.26S319.55,92.42,319.55,92.56Z"/><path class="cls-3" d="M291.67,120.14c0,.14-14.6.26-32.6.26s-32.61-.12-32.61-.26,14.6-.26,32.61-.26S291.67,120,291.67,120.14Z"/><path class="cls-3" d="M319.55,105.25c0,.14-20.84.26-46.55.26s-46.54-.12-46.54-.26S247.29,105,273,105,319.55,105.1,319.55,105.25Z"/><path class="cls-5" d="M353.8,253.45H316.26V215.9H353.8Zm-36.54-1H352.8V216.9H317.26Z"/><path class="cls-5" d="M283.18,253.45H245.63V215.9h37.55Zm-36.55-1h35.55V216.9H246.63Z"/><path class="cls-3" d="M284.74,261.77c0,.14-9.11.26-20.33.26s-20.34-.12-20.34-.26,9.1-.26,20.34-.26S284.74,261.62,284.74,261.77Z"/><path class="cls-3" d="M281.23,270.1c0,.14-7.89.26-17.63.26S246,270.24,246,270.1s7.89-.26,17.63-.26S281.23,270,281.23,270.1Z"/><path class="cls-3" d="M356.38,261.77c0,.14-9.1.26-20.33.26s-20.34-.12-20.34-.26,9.11-.26,20.34-.26S356.38,261.62,356.38,261.77Z"/><path class="cls-3" d="M352.88,270.1c0,.14-7.9.26-17.64.26s-17.63-.12-17.63-.26,7.89-.26,17.63-.26S352.88,270,352.88,270.1Z"/><path class="cls-5" d="M353.3,216.4c.11.1-8,8.37-18.08,18.46S316.86,253.05,316.76,253s8-8.36,18.09-18.46S353.2,216.3,353.3,216.4Z"/><path class="cls-5" d="M351.41,253.19s-.13-.12-.34-.38l-.88-1.14c-.75-1-1.84-2.43-3.22-4.18-2.74-3.52-6.65-8.28-11.26-13.28s-9-9.27-12.33-12.29c-1.64-1.51-3-2.72-3.92-3.54l-1.06-1a2.46,2.46,0,0,1-.35-.36s.15.08.42.28l1.12.89c1,.78,2.36,1.95,4,3.43a172.37,172.37,0,0,1,12.47,12.21c4.62,5,8.5,9.82,11.18,13.4,1.33,1.79,2.39,3.26,3.09,4.29.32.48.58.88.8,1.2A1.62,1.62,0,0,1,351.41,253.19Z"/><path class="cls-5" d="M281.91,218.62c.1.11-7.92,7.84-17.91,17.26s-18.16,17-18.26,16.89,7.92-7.83,17.9-17.26S281.81,218.52,281.91,218.62Z"/><path class="cls-5" d="M281.5,252.78a2.52,2.52,0,0,1-.35-.37l-.92-1.12c-.79-1-1.94-2.4-3.38-4.13-2.88-3.46-7-8.14-11.8-13s-9.44-9.06-12.87-12c-1.71-1.47-3.1-2.64-4.07-3.44-.45-.37-.81-.68-1.11-.94a2,2,0,0,1-.37-.35,2.13,2.13,0,0,1,.43.27l1.17.86c1,.75,2.45,1.88,4.19,3.31a171,171,0,0,1,24.72,25.07c1.4,1.76,2.51,3.21,3.25,4.23l.84,1.19A2.13,2.13,0,0,1,281.5,252.78Z"/><path class="cls-5" d="M486,252.89H448.41V215.34H486Zm-36.55-1H485V216.34H449.41Z"/><path class="cls-5" d="M420.35,252.89H382.8V215.34h37.55Zm-36.55-1h35.55V216.34H383.8Z"/><path class="cls-3" d="M421.91,261.21c0,.14-9.11.26-20.34.26s-20.33-.12-20.33-.26,9.1-.26,20.33-.26S421.91,261.06,421.91,261.21Z"/><path class="cls-3" d="M418.4,269.54c0,.14-7.89.26-17.63.26s-17.63-.12-17.63-.26,7.89-.26,17.63-.26S418.4,269.39,418.4,269.54Z"/><path class="cls-3" d="M488.54,261.21c0,.14-9.11.26-20.33.26s-20.34-.12-20.34-.26,9.1-.26,20.34-.26S488.54,261.06,488.54,261.21Z"/><path class="cls-3" d="M485,269.54c0,.14-7.89.26-17.63.26s-17.63-.12-17.63-.26,7.89-.26,17.63-.26S485,269.39,485,269.54Z"/><path class="cls-5" d="M485.46,215.84c.1.11-8,8.37-18.09,18.46S449,252.49,448.91,252.39s8-8.36,18.09-18.46S485.36,215.74,485.46,215.84Z"/><path class="cls-5" d="M483.57,252.63s-.13-.12-.34-.38l-.88-1.14c-.75-1-1.85-2.43-3.22-4.18-2.74-3.52-6.66-8.28-11.27-13.27s-9-9.28-12.33-12.3c-1.64-1.51-3-2.72-3.91-3.54l-1.06-1a2,2,0,0,1-.35-.36s.15.08.41.28l1.13.89c1,.78,2.35,2,4,3.43a174.45,174.45,0,0,1,12.47,12.21c4.62,5,8.5,9.83,11.17,13.4,1.34,1.79,2.4,3.26,3.1,4.29.31.48.58.88.8,1.2A2.85,2.85,0,0,1,483.57,252.63Z"/><path class="cls-5" d="M419.08,218.06c.09.11-7.92,7.84-17.91,17.27s-18.16,17-18.26,16.88,7.91-7.83,17.9-17.26S419,218,419.08,218.06Z"/><path class="cls-5" d="M418.67,252.22s-.14-.12-.35-.37l-.92-1.12c-.79-1-1.94-2.4-3.38-4.13-2.88-3.46-7-8.14-11.8-13s-9.45-9.06-12.87-12c-1.71-1.47-3.1-2.64-4.08-3.44-.44-.37-.81-.68-1.1-.94a2,2,0,0,1-.37-.35,2.13,2.13,0,0,1,.43.27l1.17.86c1,.75,2.45,1.88,4.19,3.31a172.87,172.87,0,0,1,13,11.9,168.75,168.75,0,0,1,11.71,13.17c1.41,1.76,2.52,3.21,3.26,4.24l.84,1.18A2.13,2.13,0,0,1,418.67,252.22Z"/><path class="cls-5" d="M484,174.41H356.77V47.15H484Zm-126.26-1H483V48.15H357.77Z"/><path class="cls-5" d="M478.14,168.53H362.37V52.76H478.14Zm-114.77-1H477.14V53.76H363.37Z"/><polygon class="cls-5" points="364.97 166.96 364.17 166.35 398.22 121.05 421.82 134.16 451.64 88.91 452.48 89.46 422.15 135.48 398.5 122.35 364.97 166.96"/><path class="cls-5" d="M416.38,101.87a15.25,15.25,0,1,1,15.25-15.25A15.27,15.27,0,0,1,416.38,101.87Zm0-29.5a14.25,14.25,0,1,0,14.25,14.25A14.27,14.27,0,0,0,416.38,72.37Z"/><rect class="cls-5" x="397.42" y="120.76" width="1.88" height="1.88"/><rect class="cls-5" x="420.92" y="133.76" width="1.88" height="1.88"/><rect class="cls-5" x="451.12" y="88.5" width="1.88" height="1.88"/><rect class="cls-5" x="415.44" y="100.43" width="1.88" height="1.88"/><rect class="cls-5" x="415.44" y="70.82" width="1.88" height="1.88"/><rect class="cls-5" x="430.24" y="85.68" width="1.88" height="1.88" transform="translate(344.57 517.81) rotate(-90)"/><rect class="cls-5" x="400.63" y="85.68" width="1.88" height="1.88" transform="translate(314.95 488.19) rotate(-90)"/><rect class="cls-5" x="363.63" y="165.71" width="1.88" height="1.88"/><path class="cls-5" d="M452.06,109.69c-.14,0-.26-8.64-.26-19.3s.12-19.3.26-19.3.26,8.64.26,19.3S452.21,109.69,452.06,109.69Z"/><path class="cls-5" d="M452.76,71.09a.7.7,0,1,1-.7-.7A.69.69,0,0,1,452.76,71.09Z"/><circle class="cls-5" cx="452.06" cy="110.11" r="0.7"/><path class="cls-2" d="M501.08,197.39c0,.14-52,.26-116.08.26s-116.1-.12-116.1-.26,52-.26,116.1-.26S501.08,197.25,501.08,197.39Z"/><polygon class="cls-6" points="536.82 347.37 538.47 423.08 456.2 424.24 454.54 348.53 536.82 347.37"/><path class="cls-3" d="M536.82,347.37l-.4,0-1.16,0-4.47.09-16.84.31-59.4.95.21-.24c.5,22.53,1.07,48.36,1.67,75.69h0l-.24-.27,82.27-1.11-.19.23c-.45-22.8-.83-41.69-1.1-54.91-.12-6.61-.21-11.79-.28-15.34,0-1.77,0-3.12-.07-4.05s0-1.41,0-1.41,0,.45,0,1.36.06,2.26.11,4c.09,3.54.22,8.71.38,15.3.32,13.25.77,32.19,1.31,55.05v.22h-.2l-82.27,1.2H456v-.27h0c-.59-27.33-1.15-53.16-1.63-75.7v-.24h.22l59.54-.71,16.8-.17,4.43,0h1.51Z"/><polygon class="cls-7" points="458.93 420.46 535.42 419.39 533.98 353.21 457.48 354.29 458.93 420.46"/><g class="cls-8"><polygon points="458.93 420.46 484.75 378.95 501.86 404.46 512.78 390.54 535.42 419.39 458.93 420.46"/></g><g class="cls-8"><path d="M508.21,374c.09,3.83-2.54,7-5.87,7s-6.09-3-6.17-6.85,2.54-7,5.87-7S508.13,370.22,508.21,374Z"/></g><polygon class="cls-6" points="516.24 340.32 517.89 416.03 435.62 417.18 433.96 341.48 516.24 340.32"/><path class="cls-3" d="M516.24,340.32l-.4,0-1.16,0-4.46.09-16.85.3-59.4,1,.21-.25c.5,22.54,1.07,48.37,1.68,75.7h0l-.25-.27,82.28-1.11-.2.23c-.45-22.8-.83-41.69-1.09-54.91-.13-6.61-.22-11.79-.29-15.35q0-2.64-.06-4c0-.91,0-1.4,0-1.4s0,.45,0,1.36.06,2.26.11,4c.09,3.54.22,8.71.38,15.29.32,13.25.77,32.2,1.31,55v.23h-.2l-82.28,1.21h-.23v-.27h0c-.59-27.33-1.14-53.17-1.63-75.7v-.25H434l59.55-.71,16.79-.17,4.43,0h1.51Z"/><polygon class="cls-9" points="438.35 412.38 514.84 411.3 513.4 345.13 436.9 346.2 438.35 412.38"/><polygon class="cls-9" points="438.35 412.38 464.17 370.87 481.28 396.37 492.2 382.46 514.84 411.3 438.35 412.38"/><path class="cls-9" d="M487.63,365.5c.09,3.83-2.54,7-5.87,7s-6.09-3-6.17-6.85,2.54-7,5.87-7S487.55,361.67,487.63,365.5Z"/><g class="cls-8"><polygon points="438.35 412.38 464.17 370.87 481.28 396.37 492.2 382.46 514.84 411.3 438.35 412.38"/></g><g class="cls-8"><path d="M487.63,365.5c.09,3.83-2.54,7-5.87,7s-6.09-3-6.17-6.85,2.54-7,5.87-7S487.55,361.67,487.63,365.5Z"/></g><polygon class="cls-6" points="507.31 330.7 508.97 406.41 426.69 407.56 425.04 331.86 507.31 330.7"/><path class="cls-3" d="M507.31,330.7l-.4,0-1.15,0-4.47.09-16.84.3-59.4,1,.2-.25c.5,22.54,1.08,48.37,1.68,75.7h0l-.24-.27L509,406.18l-.19.23c-.46-22.8-.83-41.69-1.1-54.91-.12-6.61-.22-11.8-.28-15.35,0-1.76-.05-3.11-.07-4s0-1.4,0-1.4,0,.45.05,1.35.07,2.27.11,4c.09,3.54.22,8.71.39,15.29.31,13.25.76,32.2,1.31,55v.23H509l-82.27,1.21h-.24v-.27h0c-.59-27.34-1.15-53.17-1.63-75.7v-.25H425l59.55-.71,16.8-.17,4.43,0h1.5Z"/><polygon class="cls-7" points="429.43 403.79 505.92 402.72 504.47 336.54 427.98 337.62 429.43 403.79"/><g class="cls-8"><polygon points="429.43 403.79 455.25 362.28 472.36 387.79 483.28 373.87 505.92 402.72 429.43 403.79"/></g><g class="cls-8"><path d="M478.71,357.37c.08,3.83-2.55,7-5.87,7s-6.09-3-6.18-6.85,2.55-7,5.88-7S478.63,353.54,478.71,357.37Z"/></g><polygon class="cls-6" points="497.74 340.45 499.53 416.16 410.6 417.32 408.81 341.61 497.74 340.45"/><path class="cls-3" d="M497.74,340.45a3.62,3.62,0,0,1-.43,0l-1.25,0-4.83.09-18.2.3-64.21,1,.23-.25c.54,22.53,1.16,48.36,1.81,75.7h0l-.26-.28,88.92-1.11-.2.23c-.5-22.79-.9-41.69-1.19-54.9-.13-6.61-.24-11.8-.31-15.35,0-1.76-.05-3.12-.07-4.05s0-1.41,0-1.41,0,.46.06,1.36.06,2.26.12,4c.09,3.53.23,8.7.41,15.29.34,13.25.83,32.19,1.41,55.05v.23h-.22l-88.92,1.2h-.26v-.28h0c-.63-27.33-1.23-53.16-1.76-75.69v-.25h.23l64.36-.72,18.16-.17,4.78,0h1.63Z"/><polygon class="cls-7" points="413.56 412.51 496.24 411.44 494.67 345.26 411.99 346.34 413.56 412.51"/><g class="cls-8"><polygon points="413.56 412.51 441.46 371 459.96 396.51 471.77 382.59 496.24 411.44 413.56 412.51"/></g><g class="cls-8"><path d="M466.83,365.63a6.66,6.66,0,0,1-6.35,7,6.81,6.81,0,0,1-6.67-6.85,6.63,6.63,0,0,1,6.34-7A6.82,6.82,0,0,1,466.83,365.63Z"/></g><rect class="cls-10" x="455.96" y="385.8" width="83.77" height="51.35"/><rect class="cls-11" x="404.78" y="385.8" width="91.83" height="51.35"/><path class="cls-6" d="M220.24,401.8,150,399.24a14.19,14.19,0,0,1-13.83-14.66L147.44,118a14.4,14.4,0,0,1,15-13.61L232.76,107a14.19,14.19,0,0,1,13.83,14.66L235.27,388.19A14.4,14.4,0,0,1,220.24,401.8Z"/><path class="cls-3" d="M220.24,401.8l.5,0a10.19,10.19,0,0,0,1.49-.09A14.51,14.51,0,0,0,234,393.11a14.93,14.93,0,0,0,1.17-5.78c.09-2.13.18-4.39.27-6.8.79-19.23,1.92-47,3.32-81.4s3.15-75.29,5-120.73q.72-17,1.47-34.89.38-8.92.76-18c.08-3,.51-6.09-.6-8.91a13.64,13.64,0,0,0-5.5-6.95,13.85,13.85,0,0,0-4.18-1.83,20.66,20.66,0,0,0-4.63-.49l-9.59-.35-19.41-.71-39.64-1.44a14.57,14.57,0,0,0-9.1,2.84,14,14,0,0,0-5.15,7.81,24.61,24.61,0,0,0-.46,4.75c-.06,1.61-.13,3.22-.2,4.83-.14,3.21-.27,6.42-.41,9.61q-.81,19.16-1.61,37.72c-1.06,24.73-2.08,48.58-3,71.3-2,45.44-3.73,86.36-5.22,120.73-.18,4.3-.37,8.49-.54,12.58q-.14,3.06-.27,6a16.55,16.55,0,0,0,.4,5.77,13.92,13.92,0,0,0,6.78,8.47,14.39,14.39,0,0,0,5.1,1.64c1.75.19,3.56.17,5.29.26l35.74,1.37,22.59.9,5.88.25,2,.12s-.68,0-2,0l-5.87-.17-22.6-.75L154,399.62c-1.75-.09-3.5-.06-5.34-.25a14.89,14.89,0,0,1-5.28-1.68,14.41,14.41,0,0,1-7-8.77,16.83,16.83,0,0,1-.44-5.92c.08-2,.17-4,.25-6.05q.26-6.13.52-12.58c1.43-34.37,3.14-75.29,5-120.74.95-22.72,2-46.57,3-71.3q.78-18.56,1.59-37.72c.14-3.19.27-6.4.41-9.61l.21-4.83a24.94,24.94,0,0,1,.47-4.9,14.86,14.86,0,0,1,5.46-8.28,15.39,15.39,0,0,1,9.65-3l39.64,1.45,19.4.7,9.59.36A21.28,21.28,0,0,1,236,107a14.73,14.73,0,0,1,10.25,9.3,13.52,13.52,0,0,1,.79,4.62c0,1.56-.11,3.06-.16,4.58q-.39,9.11-.77,18-.76,17.85-1.49,34.9c-2,45.43-3.74,86.35-5.22,120.72s-2.74,62.16-3.59,81.39c-.11,2.41-.21,4.67-.31,6.81a15.06,15.06,0,0,1-1.23,5.86,14.35,14.35,0,0,1-6.37,6.87,14,14,0,0,1-5.61,1.68,9.24,9.24,0,0,1-1.5.05Z"/><polygon class="cls-7" points="240.46 172.11 149.27 168.79 151.21 123.03 242.4 126.35 240.46 172.11"/><polygon class="cls-7" points="237.71 236.93 146.51 233.61 148.46 187.85 239.65 191.17 237.71 236.93"/><polygon class="cls-7" points="234.96 301.75 143.76 298.43 145.71 252.67 236.9 255.99 234.96 301.75"/><polygon class="cls-7" points="232.2 366.57 141.01 363.25 142.95 317.49 234.15 320.81 232.2 366.57"/><g class="cls-12"><polygon points="240.46 172.11 149.27 168.79 151.21 123.03 242.4 126.35 240.46 172.11"/></g><g class="cls-13"><polygon points="237.71 236.93 146.51 233.61 148.46 187.85 239.65 191.17 237.71 236.93"/></g><g class="cls-8"><polygon points="234.96 301.75 143.76 298.43 145.71 252.67 236.9 255.99 234.96 301.75"/></g><g class="cls-14"><polygon points="232.2 366.57 141.01 363.25 142.95 317.49 234.15 320.81 232.2 366.57"/></g><path class="cls-6" d="M218.9,402.58l-68.19.71c-7.3.08-13.28-6.12-13.35-13.83l-2.57-275.52c-.07-7.72,5.79-14,13.09-14.11l68.18-.71c7.31-.08,13.29,6.12,13.36,13.83L232,388.47C232.06,396.19,226.2,402.5,218.9,402.58Z"/><path class="cls-3" d="M218.9,402.58s.65,0,1.89-.22a12.79,12.79,0,0,0,5.17-2.14,13.79,13.79,0,0,0,5.32-7.51,18.11,18.11,0,0,0,.56-6c0-2.2-.06-4.53-.09-7-.21-19.82-.52-48.48-.91-83.88s-.77-77.59-1.24-124.41q-.18-17.56-.35-36-.09-9.19-.18-18.57c0-1.55,0-3.16-.09-4.68a14.4,14.4,0,0,0-1-4.43,13.57,13.57,0,0,0-5.83-6.64,12.46,12.46,0,0,0-4.17-1.4,30.28,30.28,0,0,0-4.49-.12l-9.16.1-18.54.2-37.89.39a12.6,12.6,0,0,0-8.45,3.48,13.67,13.67,0,0,0-4.16,8.45c-.16,1.59-.07,3.28-.07,4.94l0,5c0,3.31.07,6.61.1,9.9q.18,19.74.35,38.87c.23,25.49.45,50.07.66,73.48.41,46.83.77,89,1.08,124.42q.06,6.64.11,13,0,3.16.05,6.24a16.92,16.92,0,0,0,.74,5.89,13.59,13.59,0,0,0,7.17,8.09c3.23,1.57,6.78,1,10.09,1.05l34.17-.28,21.59-.15H217c1.27,0,1.92,0,1.92,0s-.65,0-1.92.06l-5.61.1-21.59.31-34.16.43-5.09,0a12.71,12.71,0,0,1-5.2-1.12,14,14,0,0,1-7.46-8.37,17.73,17.73,0,0,1-.79-6.07q0-3.08-.06-6.23-.08-6.32-.14-13c-.35-35.42-.78-77.59-1.24-124.42-.23-23.42-.47-48-.71-73.48q-.18-19.11-.37-38.87,0-4.93-.1-9.9l0-5a47.52,47.52,0,0,1,.08-5,14.52,14.52,0,0,1,4.41-9,13.31,13.31,0,0,1,9-3.69l37.88-.4,18.54-.19,9.17-.09a29.64,29.64,0,0,1,4.6.13,12.92,12.92,0,0,1,4.42,1.49,14.35,14.35,0,0,1,6.19,7,15,15,0,0,1,1.06,4.71c.1,1.61.05,3.15.08,4.72q.09,9.38.17,18.57.17,18.39.32,36c.41,46.82.77,89,1.08,124.41s.5,64.06.66,83.89c0,2.47,0,4.81,0,7,0,1.09,0,2.16,0,3.19-.07.52-.14,1-.21,1.51s-.22,1-.35,1.43a13.93,13.93,0,0,1-5.46,7.57,12.54,12.54,0,0,1-5.24,2.08,8.22,8.22,0,0,1-1.43.13A4.32,4.32,0,0,1,218.9,402.58Z"/><polygon class="cls-5" points="226.11 165.69 139.08 166.6 138.64 119.5 225.67 118.59 226.11 165.69"/><polygon class="cls-5" points="226.74 232.41 139.7 233.31 139.26 186.21 226.3 185.31 226.74 232.41"/><polygon class="cls-5" points="227.36 299.12 140.32 300.03 139.88 252.93 226.92 252.02 227.36 299.12"/><polygon class="cls-5" points="227.98 365.83 140.95 366.74 140.51 319.64 227.54 318.73 227.98 365.83"/><g class="cls-13"><polygon class="cls-4" points="226.74 232.41 139.7 233.31 139.26 186.21 226.3 185.31 226.74 232.41"/></g><g class="cls-8"><polygon class="cls-4" points="227.36 299.12 140.32 300.03 139.88 252.93 226.92 252.02 227.36 299.12"/></g><g class="cls-14"><polygon class="cls-4" points="227.98 365.83 140.95 366.74 140.51 319.64 227.54 318.73 227.98 365.83"/></g><g class="cls-15"><path class="cls-11" d="M221,389.12a11.06,11.06,0,1,1-8.41-13.19A11.07,11.07,0,0,1,221,389.12Z"/><path class="cls-11" d="M221,389.12c-.09,0,.16-1,.08-2.7a11,11,0,0,0-2.67-6.63,10.76,10.76,0,0,0-9.59-3.63,10.52,10.52,0,0,0-5.63,2.57A10.61,10.61,0,0,0,200.5,391a10.55,10.55,0,0,0,4,4.72,10.78,10.78,0,0,0,10.22.76,11.07,11.07,0,0,0,5.23-4.88c.8-1.54,1-2.51,1.07-2.49a2.23,2.23,0,0,1-.11.71,8.73,8.73,0,0,1-.67,1.93A11,11,0,0,1,215,397a11.36,11.36,0,0,1-15.25-5.68,11.36,11.36,0,0,1,2.93-13.25,11.4,11.4,0,0,1,12-1.86,11.22,11.22,0,0,1,6.73,10.17,8.78,8.78,0,0,1-.21,2A2.26,2.26,0,0,1,221,389.12Z"/></g><path class="cls-16" d="M563.75,217.2l-1.16-.35c-5.43,2.25-9,7.6-10.88,13.16s-2.34,11.49-3.43,17.26-3,11.65-7,15.87a65.15,65.15,0,0,0,8.43,6.15,6.75,6.75,0,0,0,3.14,1.23c1.81.07,3.36-1.23,4.6-2.55,6.1-6.52,6.85-18.27,7.5-27.17S566.24,225.78,563.75,217.2Z"/><g class="cls-13"><path d="M559.39,220.57s-13.27,46.4-12.41,47,3.48,2.21,3.48,2.21l12.1-48.56Z"/></g><path class="cls-16" d="M568.09,209.18a4,4,0,0,0-3.57-3.54,5.72,5.72,0,0,0-4.82,2.13,10.31,10.31,0,0,0-2.09,5c-.42,2.52-.07,5.51,2,7a5.08,5.08,0,0,0,5.54-.08,7.48,7.48,0,0,0,3.08-4.82,14.69,14.69,0,0,0-.19-5.83"/><path class="cls-3" d="M563.69,216.86a3.67,3.67,0,0,1-.66-1.61,10.06,10.06,0,0,1,1.58-8.06c.64-.87,1.18-1.29,1.22-1.24a13.15,13.15,0,0,1-.91,1.44,11.63,11.63,0,0,0-1.53,7.79A12.8,12.8,0,0,1,563.69,216.86Z"/><path class="cls-3" d="M561.74,221.15c0,.06-.25.21-.74.23a2.73,2.73,0,0,1-1.77-.61,2.66,2.66,0,0,1-.94-1.63c-.08-.48,0-.77.08-.77s.19,1.17,1.19,2A5.08,5.08,0,0,0,561.74,221.15Z"/><polygon class="cls-17" points="631.38 157.2 641.33 178.69 619.18 165.94 631.38 157.2"/><polygon class="cls-6" points="451.71 88.88 481.69 128.34 494.61 124.91 501.12 128.6 512.38 107.91 505.6 104.35 500.6 91.65 451.71 88.88"/><path class="cls-3" d="M451.71,88.88l48.9,2.62h.09l0,.09c1.59,4,3.27,8.28,5,12.69l-.08-.08,6.77,3.55.15.08-.08.14-5.74,10.57-5.51,10.13-.09.15-.15-.08-6.5-3.7.12,0-12.93,3.42-.1,0-.06-.08c-17.48-23.15-29-38.45-29.85-39.55l30.1,39.36-.16-.05,12.92-3.44.07,0,.06,0,6.5,3.69-.23.06,5.51-10.13,5.75-10.56.07.22-6.77-3.55-.06,0,0-.06c-1.73-4.41-3.41-8.66-5-12.7l.13.1Z"/><path class="cls-3" d="M487.69,100.37a7.05,7.05,0,0,1,2.89,9.66,7.32,7.32,0,0,1-9.79,3,7.06,7.06,0,0,1-2.89-9.67A7.32,7.32,0,0,1,487.69,100.37Z"/><path class="cls-3" d="M451.71,88.88c0-.08,7.38,3.53,16.39,8.06s16.29,8.28,16.24,8.36S477,101.78,468,97.24,451.66,89,451.71,88.88Z"/><path class="cls-5" d="M686,209.71h0a11.67,11.67,0,0,1-15.54,4.82L507.39,131.27l11-20.19,162.94,83.19A11.26,11.26,0,0,1,686,209.71Z"/><polygon class="cls-5" points="520.36 109.97 507.44 133.72 499.18 129.38 512.1 105.63 520.36 109.97"/><g class="cls-8"><polygon points="508.32 132.1 519.31 111.91 522.39 113.5 509.42 132.67 508.32 132.1"/></g><g class="cls-18"><polygon class="cls-4" points="502.72 122.87 514.66 119.91 516.59 116.89 504.32 119.93 502.72 122.87"/></g><g class="cls-13"><path d="M620,163.73a24.23,24.23,0,0,1,.6,25.62Z"/></g><path class="cls-3" d="M589.86,418.58c.09.19,1.07-.13,2.28-.07s2.17.42,2.28.23-.82-.93-2.25-1S589.75,418.41,589.86,418.58Z"/><path class="cls-3" d="M587.17,402c.18.13.87-.64,2-1.19s2.09-.71,2.09-.93-1.17-.4-2.43.27S587,401.89,587.17,402Z"/><path class="cls-19" d="M589,401.35,590.3,424s-22.56,8.91-22.73,13.11l43.95-.92L611,400.83Z"/><path class="cls-2" d="M603.84,421.78a1.8,1.8,0,0,1,1.29,2,1.73,1.73,0,0,1-2,1.29,1.89,1.89,0,0,1-1.35-2.15,1.78,1.78,0,0,1,2.22-1.11"/><path class="cls-20" d="M611.58,437.3v-4.71l-42.32,2.23s-1.94.89-1.69,2.26Z"/><path class="cls-20" d="M589.58,423.77c0,.21,1.08.28,2.16,1s1.65,1.56,1.84,1.47-.15-1.32-1.46-2.11S589.53,423.57,589.58,423.77Z"/><path class="cls-20" d="M585,425.77c0,.21.89.55,1.64,1.45s1,1.84,1.19,1.83.33-1.23-.63-2.32S585,425.56,585,425.77Z"/><path class="cls-20" d="M582.51,431.34c.19,0,.47-1-.11-2.2s-1.59-1.61-1.67-1.43.54.8,1,1.76S582.29,431.32,582.51,431.34Z"/><path class="cls-3" d="M619.15,201.11s10,17.26,11.42,32.7c1.25,14-7.59,30-7.59,30l-15.26,57.46,4.5,98.25-24.4,1.26L573.74,308.12,578,203.27Z"/><path class="cls-19" d="M577.88,387.46l12.35,19S575.08,425.39,577,429.12l37.68-22.64-18-30.38Z"/><path class="cls-2" d="M600.9,397.82a1.8,1.8,0,0,1,2.12,1.11,1.71,1.71,0,0,1-1.09,2.11,1.88,1.88,0,0,1-2.23-1.19,1.79,1.79,0,0,1,1.37-2.07"/><path class="cls-20" d="M614.7,406.48l-1.94-3-35.4,22.82s-1.24,1.74-.34,2.81Z"/><path class="cls-20" d="M589.51,406.62c.11.18,1.08-.28,2.34-.24s2.21.54,2.34.36-.79-1.07-2.32-1.1S589.36,406.48,589.51,406.62Z"/><path class="cls-20" d="M586.54,410.63c.06.21,1.05,0,2.14.44s1.77,1.12,1.94,1-.33-1.23-1.69-1.7S586.43,410.46,586.54,410.63Z"/><path class="cls-20" d="M587.13,416.71c.19-.06-.1-1.13-1.18-1.86s-2.18-.6-2.17-.4.87.41,1.75,1S586.94,416.8,587.13,416.71Z"/><path class="cls-3" d="M566.1,208s-29.7,106.83-23.32,118.79,39.14,78.55,39.14,78.55l27.51-15.16L578,316.74l23.9-52.57s11.45-10,15.88-23.93-3.21-37-3.21-37h-47.8Z"/><path class="cls-21" d="M619.15,225.45s.08.28.19.83.25,1.36.4,2.44a60.5,60.5,0,0,1,.58,9.4,37.55,37.55,0,0,1-.74,6.72,21.75,21.75,0,0,1-1.11,3.69,24.5,24.5,0,0,1-1.93,3.68A30.71,30.71,0,0,1,602,264.39l.14-.12-23.85,52.59v-.24c.44,1,.9,2.1,1.37,3.2l30,70.28.08.17-.17.09-20.18,11-5.5,3-1.43.76-.5.24s.15-.11.47-.3l1.41-.8,5.44-3.07L609.33,390l-.09.26c-7.7-17.94-18.36-42.77-30.15-70.21l-1.36-3.2-.06-.12.06-.11c8.89-19.51,17.11-37.57,23.94-52.55l0-.09.11,0A30.44,30.44,0,0,0,616.21,252a24.25,24.25,0,0,0,1.92-3.61,21.29,21.29,0,0,0,1.12-3.63,38.83,38.83,0,0,0,.8-6.65,63.34,63.34,0,0,0-.46-9.37c-.12-1.08-.25-1.9-.33-2.45S619.15,225.45,619.15,225.45Z"/><path class="cls-21" d="M578,227.22a3.57,3.57,0,0,1,.56-.06l1.67-.13,6.4-.42,22.86-1.42.28,0v.28c0,6.73,0,14.29,0,22.31v.13l-.1.09-3.44,2.94-11.72,10-.14.13-.17-.09L579,253.36l-.13-.06v-.15c-.28-7.82-.51-14.31-.68-18.9-.06-2.22-.12-4-.15-5.23q0-.84,0-1.35c0-.31,0-.46,0-.45a3.17,3.17,0,0,1,0,.5c0,.35.05.82.09,1.4.07,1.26.16,3,.29,5.27.22,4.55.54,11,.92,18.74l-.14-.21,15.27,7.54-.31,0,11.71-10c1.18-1,2.34-2,3.44-2.94l-.1.22c0-8,0-15.58,0-22.31l.27.26-22.71,1.15-6.46.29-1.73.07Z"/><path class="cls-21" d="M609.41,229.63a5.26,5.26,0,0,1-1.22.26c-.79.12-1.94.28-3.35.45-2.84.35-6.77.73-11.12,1s-8.29.38-11.15.38c-1.43,0-2.58,0-3.38,0a4.74,4.74,0,0,1-1.24-.1,5.19,5.19,0,0,1,1.24-.12l3.37-.15c2.85-.12,6.79-.29,11.13-.55s8.26-.59,11.1-.83l3.37-.27A5,5,0,0,1,609.41,229.63Z"/><path class="cls-17" d="M605.18,89.45c-.7,3.63-2.87,6.26-4.86,5.88s-3-3.63-2.35-7.26,2.87-6.27,4.86-5.89S605.87,85.81,605.18,89.45Z"/><path class="cls-11" d="M563.48,130.77c3.38-.85,3.85-.58,6.48-1.38s4.75-6.87,6.06-7.62l21.11-1.8c5.45,2.2,12-.86,15.15-5.83s3.37-11.29,2.24-17.06-3.51-11.2-5.33-16.79c-2.11-6.51-3.74-13.72-9-18.11-3.47-2.89-8-4.09-12.44-5-4-.81-8.17-1.45-12.17-.62-2,.42-3.91,1.19-5.9,1.67-2.31.56-4.73.73-6.89,1.73-4.45,2-6.72,7.12-7.39,12s-.11,9.81-.81,14.66a67.55,67.55,0,0,1-1.52,6.88c-2.05,4.44-4.3,8.86-4,13.61.23,3.43,1.81,6.61,2.57,10s.45,10.38-2.26,12.49c2.56,1.19,4.69,3.41,6.31,3.34C558.29,132.78,558.88,131.92,563.48,130.77Z"/><path class="cls-11" d="M571.71,61.08c-2.05.41-4.2.1-6.21.67-2.9.82-5.06,3.38-6.17,6.18a29.65,29.65,0,0,0-1.55,8.89l-.57,8.1a24.77,24.77,0,0,1-.72,5.15c-.53,1.87-2,6.83-2.07,9.26a26.11,26.11,0,0,0,6,18.29c1.86,2.11,10.53,2.17,13.29,2.72,1.22-1.06,4.25-1,5.47-2.11.21-.18-8.82-7.09-8.72-7.34a1.83,1.83,0,0,0-.12-1.31,64.57,64.57,0,0,1,2.73-48.06"/><path class="cls-17" d="M596.14,122.87l3.15-49.61h0a4.14,4.14,0,0,0-3.7-4.22l-22-5.62c-7.06-.77-11.77,7.92-12.23,15-.52,7.87,1.17,14.5,2.09,20.38a13.91,13.91,0,0,0,4.69,8.85c3,2.95,5.21,3.49,5.21,3.49s-.26,11.93-.26,11.93,5.73-1,10-1.47C592.41,120.59,596.14,122.87,596.14,122.87Z"/><path class="cls-22" d="M573.31,111.14a34.73,34.73,0,0,0,15.5-4.86s-3.77,9.06-15.59,7.92Z"/><path class="cls-23" d="M579.63,100.38a5.14,5.14,0,0,1-1.47,2.14,7.68,7.68,0,0,1-3.27,1.22,4.76,4.76,0,0,1-5.1-3.09,14.77,14.77,0,0,0,6.2.73C578.9,100.93,579.63,100.38,579.63,100.38Z"/><path class="cls-24" d="M579.07,100s1,0,.76,1.07A1.25,1.25,0,0,0,579.07,100Z"/><path class="cls-24" d="M570.35,100.38s-1-.2-.92.93A1.25,1.25,0,0,1,570.35,100.38Z"/><path class="cls-4" d="M578.59,100.65s-1,1.87-2.2,1.91a22.25,22.25,0,0,1-4.21-.11c-.7-.19-1.74-1.65-1.74-1.65Z"/><path class="cls-25" d="M577.78,101.36a16.49,16.49,0,0,1-6.86,0,1.62,1.62,0,0,1-.48-.61l8.15-.15A1.6,1.6,0,0,1,577.78,101.36Z"/><path class="cls-26" d="M576.31,103.31a2.38,2.38,0,0,1-.49.13,7.22,7.22,0,0,1-3.37-.25,1.28,1.28,0,0,1-.34-.2l-.06,0-.41-.31h0c1.24-.13,3.81,0,5.08,0a2,2,0,0,1,.6.1l-.52.31-.32.16Z"/><path class="cls-27" d="M574.51,101.48a19.91,19.91,0,0,1-4.48-.75,7.63,7.63,0,0,0,2.09-.57,9.93,9.93,0,0,1,2.37.17,10.07,10.07,0,0,1,2.62-.13c.59.16,1.6.18,2.24.34A10.77,10.77,0,0,1,574.51,101.48Z"/><path class="cls-28" d="M577.54,100.47a5.69,5.69,0,0,0-1.89-.17.43.43,0,0,0-.22.12A5.4,5.4,0,0,0,577.54,100.47Z"/><path class="cls-27" d="M579.43,100.84s-1.43,3.43-4.36,3.87c-2.55.38-4.53-2.33-5.19-3.83,0,0,2,2.45,4.46,2.5C576.59,103.43,578.38,101.86,579.43,100.84Z"/><path class="cls-28" d="M574.37,104.43c-.7-.15,2-.44,2.73-1S576.15,104.84,574.37,104.43Z"/><g class="cls-29"><path class="cls-11" d="M571,94.86s3,2.82,4.52,0C575.52,94.91,573.9,98.5,571,94.86Z"/></g><path class="cls-11" d="M570.7,82.49s-3.32-2.58-9.22.39c0,0,5.72-1.43,8-.15C569.47,82.73,570.86,83.52,570.7,82.49Z"/><path class="cls-11" d="M579.25,82.18s4-2.66,10.49,1.24c0,0-6.4-2.13-9.11-.86C580.63,82.56,579,83.33,579.25,82.18Z"/><path class="cls-11" d="M570.23,62.62A2.84,2.84,0,0,1,571.44,61,16.87,16.87,0,0,1,584.27,58a30,30,0,0,1,12.3,5.34c3.23,2.24,6.27,5,7.91,8.54A28.67,28.67,0,0,1,606.4,80c.93,6.8,2.75,13.63,2.69,20.5,0,2.67.46,7.17,0,10.47-.49,3.53-3.91,7.83-7.38,8.61l-7.82.78s4.23-14.6,3.91-19.86c-.29-4.62-.25-9.68-.77-14.27,0-.35.91-14.72.73-15a2.46,2.46,0,0,0-1.08-.82l-4.88-2.5a47,47,0,0,1-4.6-2.57,44.5,44.5,0,0,1-4.62-3.18c-2.11-1.81-4.05-3.25-6.16-5.06-1.32-1.13-3.88,10.87-4.84,9.41a6.25,6.25,0,0,1-1.05-4.95"/><path class="cls-11" d="M562.39,75.5l18.62,1a.89.89,0,0,0,1-.64c.78-1.72,1.59-3.42,2.4-5.13l.31-.66c.4,0,.79.08,1.18.14.18,2.17.36,4.34.55,6.49l7.16.37c.19-1.44.38-2.86.56-4.28.31.17.62.35.92.54.26,1.07.49,2.14.74,3.21.06.28.4.7.64.72l2.9.16a16.1,16.1,0,0,1,2.44,5.8,2,2,0,0,0-.18.25s-.47,19.3-2.36,25.24c0,0,.58,1.55,1.8.56,1-.8,4.07-14,4.69-21,.73-2.67,0-6.38-.37-10.57l1.41.08c.43-5.83-.71-2-3-7.52-1.78-4.22-3.55-5.75-8-7-3.32-.91-6.54-3.24-10-3a14.19,14.19,0,0,0-2.75.83,2.29,2.29,0,0,1-1.15.18,37.63,37.63,0,0,0-9.92-1.74,13.79,13.79,0,0,0-11.27,4.74c-1,1.15,0,2.62-.76,3.94-1.22,2.1-.92,1.84-1.44,4.12"/><path class="cls-17" d="M596.47,89.43a3.45,3.45,0,0,1,5-2.93c1.19.69,2.11,2.08,2,4.75-.3,7.12-7.38,5.36-7.38,5.15S596.33,92.38,596.47,89.43Z"/><path class="cls-30" d="M598.42,93.8s.12.09.33.19a1.25,1.25,0,0,0,.92.06,3.07,3.07,0,0,0,1.54-2.69,4.14,4.14,0,0,0-.28-1.79,1.42,1.42,0,0,0-.89-1,.63.63,0,0,0-.75.31c-.1.19-.06.34-.1.35s-.15-.13-.08-.42a.83.83,0,0,1,.3-.43.9.9,0,0,1,.69-.16,1.75,1.75,0,0,1,1.25,1.16,4.18,4.18,0,0,1,.35,2c-.1,1.43-.89,2.74-1.93,3a1.32,1.32,0,0,1-1.13-.24C598.43,94,598.4,93.81,598.42,93.8Z"/><path class="cls-11" d="M605.24,69c2.73,8.79,7.17,16.84,9.9,23.19,1.26,2.94,3.08,6.41,3.67,9.55.64,3.46-.84,6.91-1.66,10.33s-.71,7.63,2.14,9.7a22.77,22.77,0,0,1-13.44,4.85,4.22,4.22,0,0,1-2.62-.57,1.65,1.65,0,0,1-.39-2.37,11.68,11.68,0,0,1-14.8,1.53c-.32-3.8-.56-7.92,1.53-11.1,1.71-2.6,4.79-4.24,5.92-7.15.67-1.73-.22-3.9.08-5.73s1.51-4.28,2-4.53h0a9,9,0,0,0,9.61-6.64l.15-.57Z"/><path class="cls-9" d="M566.82,153.62a39.85,39.85,0,0,0-3.11,19.11c.45,4.19,2.92,14.86,2.92,14.86L566.29,208s54.16-4.05,54.12-4.16.58-25.72.1-43.72-8.41-36.52-8.41-36.52-7.2-4.16-12.61-3.71-28.06,3-28.06,3Z"/><path class="cls-9" d="M570.54,123.57s-9,1.3-17.43,14.48c-8.67,13.6-12.64,19.23-12.64,19.23l24.7,16.13s13.61-20.52,15.31-24.92S584.08,123.15,570.54,123.57Z"/><path class="cls-9" d="M606.75,122.19s7.82,3.09,11,8.06c2.1,3.24,15,25.94,15,25.94L618,166.54,606.75,135Z"/><g class="cls-13"><path class="cls-31" d="M563.26,176.29l2.86,1.29s13.5-17.9,14-28l-14.83,23-2.49-1.32Z"/></g><path class="cls-3" d="M618.46,138.05a1.94,1.94,0,0,1,.11.5c.06.39.13.88.22,1.46.18,1.27.42,3.11.67,5.39.51,4.56,1.06,10.88,1.41,17.87s.49,13.32.52,17.91c0,2.29,0,4.15,0,5.43q0,.88,0,1.47a3.08,3.08,0,0,1-.05.52,1.77,1.77,0,0,1-.06-.51c0-.4,0-.89-.06-1.48,0-1.36-.09-3.19-.15-5.43-.13-4.58-.3-10.91-.67-17.89s-.84-13.29-1.26-17.85c-.2-2.22-.37-4.05-.5-5.4-.05-.59-.09-1.08-.12-1.48A1.53,1.53,0,0,1,618.46,138.05Z"/><path class="cls-11" d="M605.24,69c2.73,8.79,7.17,16.84,9.9,23.19,1.26,2.94,3.08,6.41,3.67,9.55.64,3.46-.84,6.91-1.66,10.33s-.71,7.63,2.14,9.7a22.77,22.77,0,0,1-13.44,4.85,4.22,4.22,0,0,1-2.62-.57,1.65,1.65,0,0,1-.39-2.37,11.68,11.68,0,0,1-14.8,1.53c-.32-3.8-.56-7.92,1.53-11.1,1.71-2.6,4.79-4.24,5.92-7.15.67-1.73-.22-3.9.08-5.73s1.51-4.28,2-4.53h0a9,9,0,0,0,9.61-6.64l.15-.57Z"/><path class="cls-3" d="M581.54,147.06c-.09,0,.6-1.27,1.12-3.44a16.09,16.09,0,0,0-4.79-15.78c-1.64-1.51-2.9-2.15-2.84-2.23a3,3,0,0,1,.89.41,13.54,13.54,0,0,1,2.2,1.54,15.63,15.63,0,0,1,4.9,16.16,13.71,13.71,0,0,1-1,2.5A3.23,3.23,0,0,1,581.54,147.06Z"/><path class="cls-16" d="M562.65,216.76l23.24.51a2,2,0,0,1,1.93,2c-.47,11.52-2.59,68.71,2.16,69.6,5.27,1,10.86-9.07,18.62-5.58s16.95,7.45,21.28,3.07,7.8-55.09-9.48-82.83l-55,3.16Z"/><path class="cls-3" d="M591.28,210.45a4.24,4.24,0,0,1-1.14,0l-3.1-.07c-2.62,0-6.23,0-10.21.27s-7.57.75-10.15,1.15l-3.06.49a4.39,4.39,0,0,1-1.14.13,5.11,5.11,0,0,1,1.1-.33c.71-.18,1.74-.41,3-.65a87.1,87.1,0,0,1,10.18-1.31,85.8,85.8,0,0,1,10.26-.11c1.31.06,2.37.14,3.1.23A5.51,5.51,0,0,1,591.28,210.45Z"/><path class="cls-3" d="M603,216.9a9.8,9.8,0,0,1-1.61-.25c-1-.2-2.51-.47-4.36-.79-3.68-.64-8.8-1.37-14.48-1.82s-10.86-.51-14.6-.45c-1.87,0-3.38.06-4.43.1a11.46,11.46,0,0,1-1.63,0,8.84,8.84,0,0,1,1.62-.2c1-.1,2.56-.2,4.43-.27a127.29,127.29,0,0,1,29.16,2.28c1.84.36,3.32.69,4.34.95A11,11,0,0,1,603,216.9Z"/><path class="cls-3" d="M612.13,237.3a9,9,0,0,1,0,1.49c0,1.05-.11,2.41-.18,4.05-.12,3.41-.21,8.13,0,13.35s.55,9.91.9,13.31c.17,1.63.32,3,.43,4a9.55,9.55,0,0,1,.11,1.49,7.41,7.41,0,0,1-.31-1.46c-.17-.94-.38-2.31-.6-4-.44-3.4-.88-8.12-1-13.35s0-10,.2-13.38c.11-1.71.22-3.09.33-4A8,8,0,0,1,612.13,237.3Z"/><path class="cls-3" d="M619.65,272.4c-.14,0-1.1-10.24-2.14-22.89s-1.76-22.93-1.62-22.94,1.1,10.24,2.14,22.9S619.79,272.39,619.65,272.4Z"/><path class="cls-17" d="M543.2,159l-2,2.67-.72-13.57-13.69-4.61s-3.21,34.13-2.72,39.42c.53,5.78.65,6.07,2.12,8.71,1.87,3.37,8.4,5.73,12.14,4.74s7.73-6.08,10.72-9.11c5.42-5.52,13.79-16,13.79-16Z"/><path class="cls-30" d="M543.2,159a16.21,16.21,0,0,1-1.5,2.28c-1,1.38-2.25,3.3-3.6,5.48s-2.49,4.2-3.29,5.67a16.67,16.67,0,0,1-1.38,2.36,12.49,12.49,0,0,1,1.05-2.53,62.75,62.75,0,0,1,3.18-5.77,61.2,61.2,0,0,1,3.75-5.42A12.22,12.22,0,0,1,543.2,159Z"/><path class="cls-17" d="M526.7,145.24l-5.33-3c-2.15-1.7-4.11-3.38-4.63-6.07h0s15.55,7,16.8,7.59,7.1,3,6.93,5.43Z"/><g class="cls-13"><path d="M582.42,209.39c5.76-.14,11.51-.1,17.26.26,1.16.07,2.67.53,2.63,1.69a1.57,1.57,0,0,1-1.15,1.31,4.74,4.74,0,0,1-1.84.06L584,211.13a46.06,46.06,0,0,0-20.63,1.51l-.2-1.26S579.18,209.47,582.42,209.39Z"/></g><path d="M588.08,88.22s-.36,4.16-6.51,2.63Z"/><path class="cls-32" d="M579.35,90.24s.95-4,4.2-4.56a4.74,4.74,0,0,1,4.8,1.79,4.11,4.11,0,0,1-3.2,3.34A10.7,10.7,0,0,1,579.35,90.24Z"/><path class="cls-33" d="M583.55,85.68a4.81,4.81,0,0,0-3.09,2.15,2.7,2.7,0,0,0,2.59,2.3,2.59,2.59,0,0,0,2.54-2.72,2.83,2.83,0,0,0-.67-1.81A5.46,5.46,0,0,0,583.55,85.68Z"/><ellipse class="cls-34" cx="583.01" cy="87.4" rx="1.58" ry="1.68" transform="translate(-6.24 105.39) rotate(-10.27)"/><path class="cls-34" d="M583.55,85.68a4.69,4.69,0,0,0-3,2A2.58,2.58,0,0,0,583,89.88a2.48,2.48,0,0,0,2.42-2.6,2.71,2.71,0,0,0-.61-1.68A5.75,5.75,0,0,0,583.55,85.68Z"/><g class="cls-35"><path d="M583.29,86.43a4.72,4.72,0,0,1,4.79,1.79l-.05.27a4.57,4.57,0,0,0,.32-1,4.74,4.74,0,0,0-4.8-1.79c-2.87.51-3.94,3.67-4.15,4.4C579.89,88.87,581,86.84,583.29,86.43Z"/></g><path class="cls-36" d="M583.55,85.68a4.76,4.76,0,0,0-3.09,2.15,2.87,2.87,0,0,0,.47,1.14,2.52,2.52,0,0,1,4.62-1.08,2.59,2.59,0,0,0,0-.48,2.83,2.83,0,0,0-.67-1.81A5.46,5.46,0,0,0,583.55,85.68Z"/><path d="M584.09,87.4A1.09,1.09,0,0,1,583,88.54a1.14,1.14,0,0,1-1.1-1.15A1.09,1.09,0,0,1,583,86.25,1.14,1.14,0,0,1,584.09,87.4Z"/><path class="cls-32" d="M585.41,87.21a.89.89,0,0,1-.87.94,1,1,0,0,1-.91-1,.9.9,0,0,1,.88-.94A.94.94,0,0,1,585.41,87.21Z"/><path class="cls-32" d="M583.82,88.73a.32.32,0,0,1-.31.33.34.34,0,0,1-.33-.34.32.32,0,0,1,.32-.33A.33.33,0,0,1,583.82,88.73Z"/><path d="M581.18,86.14a7.16,7.16,0,0,0-1.83,4.1s.95-4,4.2-4.56a4.74,4.74,0,0,1,4.8,1.79s1.35-.49,1.11-.88C587.77,83.82,583.24,83.7,581.18,86.14Z"/><path d="M563.09,87.57s.43,3.84,6.66,2.48Z"/><path class="cls-32" d="M572,89.51s-1-3.69-4.34-4.25a4.86,4.86,0,0,0-4.84,1.61,4,4,0,0,0,3.3,3.12A11.9,11.9,0,0,0,572,89.51Z"/><path class="cls-33" d="M566.47,85A5,5,0,0,0,563,86.59a2.64,2.64,0,1,0,4.85-1.51A5.58,5.58,0,0,0,566.47,85Z"/><path class="cls-34" d="M566.47,85a5,5,0,0,0-3.33,1.51,2.51,2.51,0,1,0,4.64-1.41A6,6,0,0,0,566.47,85Z"/><path class="cls-36" d="M566.47,85A5,5,0,0,0,563,86.59a2.52,2.52,0,0,0,.3,1.15,2.64,2.64,0,0,1,4.85-.39,2.46,2.46,0,0,0,.11-.45,2.64,2.64,0,0,0-.41-1.82A5.58,5.58,0,0,0,566.47,85Z"/><path d="M566.76,86.68a1.11,1.11,0,1,1-2.2-.31,1.11,1.11,0,0,1,2.2.31Z"/><path class="cls-32" d="M568.13,86.68a.91.91,0,1,1-.78-1A.91.91,0,0,1,568.13,86.68Z"/><path class="cls-32" d="M566.29,87.91a.33.33,0,0,1-.37.28.32.32,0,0,1-.28-.37.33.33,0,0,1,.37-.28A.33.33,0,0,1,566.29,87.91Z"/><g class="cls-35"><path d="M567.94,86a4.88,4.88,0,0,0-4.85,1.61s0,.1.06.24a3.52,3.52,0,0,1-.34-.94,4.86,4.86,0,0,1,4.84-1.61c2.93.5,4.07,3.43,4.29,4.1A5.62,5.62,0,0,0,567.94,86Z"/></g><path d="M570.07,85.7A6.47,6.47,0,0,1,572,89.51s-1-3.69-4.34-4.25a4.86,4.86,0,0,0-4.84,1.61s-1.38-.46-1.14-.82C563.34,83.51,567.94,83.43,570.07,85.7Z"/></g></g></svg>