<?xml version="1.0" encoding="utf-8"?>
<!-- Generator: Adobe Illustrator 24.2.1, SVG Export Plug-In . SVG Version: 6.00 Build 0)  -->
<svg version="1.1" id="Layer_1" xmlns="http://www.w3.org/2000/svg" xmlns:xlink="http://www.w3.org/1999/xlink" x="0px" y="0px"
	 viewBox="0 0 151.9 300.5" style="enable-background:new 0 0 151.9 300.5;" xml:space="preserve">
<style type="text/css">
	.st0{fill:#EBEBEB;}
	.st1{fill:#E0E0E0;}
	.st2{fill:#FAFAFA;}
	.st3{fill:#FFFFFF;}
	.st4{fill:#263238;}
	.st5{fill:#E25F97;}
	.st6{opacity:0.15;fill:#121823;enable-background:new    ;}
	.st7{fill:#F0B3AD;}
	.st8{fill:#E8ECED;}
	.st9{fill:#717991;}
	.st10{fill:#626C81;}
	.st11{fill:#3F2F7C;}
	.st12{fill:#8D80B1;}
	.st13{opacity:0.47;fill:#F0B3AD;enable-background:new    ;}
	.st14{opacity:0.82;}
	.st15{fill:#F6F6F6;}
	.st16{fill:#595739;}
	.st17{fill:#3B6246;}
	.st18{fill:#5B806A;}
	.st19{opacity:0.5;}
	.st20{opacity:0.2;}
	.st21{fill:#BA7F6C;}
	.st22{fill:#DD4B43;}
	.st23{fill:#391204;}
	.st24{fill:#E3E3E3;}
	.st25{fill:#A83A3E;}
	.st26{fill:#9B2F35;}
	.st27{fill:#8E252C;}
	.st28{fill:#821B23;}
	.st29{fill:#E06F69;}
	.st30{fill:#74D3C5;}
	.st31{opacity:0.3;}
	.st32{fill:#7B4B45;}
	.st33{font-family:'Gorditas-Bold';}
	.st34{font-size:11.43px;}
</style>
<g>
	<g id="ilustracion_contacto">
		<rect x="54.1" y="19.7" class="st0" width="16.1" height="4.3"/>
		<path class="st1" d="M63.4,28.4C63.4,28.4,63.4,28.4,63.4,28.4v-0.3v-0.8c0-0.7,0-1.8,0-3.1v0H47.3c0,0-0.1,0.1,0.1-0.1l0,0v4.2
			l-0.1-0.1h11.5h3.4l0,0h-3.4H47.3h-0.1v-4.1l0,0l0.1-0.1h16.1h0v0v3.1c0,0.4,0,0.6,0,0.8L63.4,28.4L63.4,28.4z"/>
		<rect x="23" y="13.1" class="st1" width="27.9" height="29.1"/>
		<rect x="21.1" y="13.1" class="st2" width="27.9" height="29.1"/>
		<path class="st1" d="M49,42.2H21.1V13.1H49V42.2z M21.2,42.2H49V13.1H21.2V42.2z"/>
		<rect x="24.9" y="17" class="st3" width="20.4" height="21.3"/>
		<path class="st1" d="M24.9,38.5c-0.1,0.2-0.3,0.4-0.5,0.6c-0.3,0.3-0.8,0.8-1.3,1.3s-1,1-1.3,1.3c-0.2,0.2-0.4,0.3-0.6,0.5
			c0.1-0.2,0.3-0.4,0.5-0.6c0.3-0.3,0.8-0.8,1.3-1.3s1-1,1.3-1.3C24.5,38.8,24.7,38.6,24.9,38.5z"/>
		<path class="st1" d="M45.3,38.4c0.2,0.1,0.4,0.3,0.6,0.5c0.3,0.3,0.8,0.8,1.3,1.3s1,1,1.3,1.3c0.2,0.2,0.4,0.4,0.5,0.6
			c-0.2-0.1-0.4-0.3-0.6-0.5c-0.3-0.3-0.8-0.8-1.3-1.3s-1-1-1.3-1.3C45.6,38.8,45.4,38.6,45.3,38.4z"/>
		<path class="st1" d="M45.2,17.1c0.1-0.2,0.3-0.4,0.5-0.6c0.3-0.4,0.8-0.8,1.3-1.3s1-0.9,1.3-1.3c0.2-0.2,0.4-0.4,0.6-0.5
			c-0.1,0.2-0.3,0.4-0.5,0.6c-0.3,0.3-0.8,0.8-1.3,1.3s-1,1-1.3,1.3C45.7,16.8,45.5,17,45.2,17.1z"/>
		<path class="st1" d="M24.8,17.1c-0.2-0.1-0.4-0.3-0.6-0.5c-0.4-0.3-0.8-0.8-1.3-1.3s-1-1-1.3-1.3c-0.2-0.2-0.4-0.4-0.5-0.6
			c0.2,0.1,0.4,0.3,0.6,0.5l1.3,1.3c0.5,0.5,1,1,1.3,1.3C24.5,16.7,24.7,16.9,24.8,17.1z"/>
		<path class="st1" d="M45.2,38.3c0,0,0-0.1,0-0.1v-0.3c0-0.3,0-0.7,0-1.2c0-1,0-2.5,0-4.3c0-3.7,0-9,0-15.4l0.1,0.1H25l0,0l0.1-0.1
			c0,7.8,0,15.1,0,21.3L25,38.2h14.7h4.1l0,0h-4.1H25h-0.1v-0.1c0-6.2,0-13.5,0-21.3V17h20.4v0.1c0,6.4,0,11.7,0,15.4
			c0,1.8,0,3.3,0,4.3c0,0.5,0,0.9,0,1.1S45.3,38.2,45.2,38.3L45.2,38.3z"/>
		<rect x="31.7" y="24.3" class="st0" width="6.8" height="6.8"/>
		<rect x="87.4" y="158.5" class="st1" width="27.9" height="29.1"/>
		<rect x="85.6" y="158.5" class="st2" width="27.9" height="29.1"/>
		<path class="st1" d="M113.5,187.6H85.5v-29.1h27.9V187.6z M85.6,187.6h27.9v-29.1H85.6V187.6z"/>
		<rect x="89.3" y="162.4" class="st3" width="20.4" height="21.3"/>
		<path class="st1" d="M89.3,183.8c-0.1,0.2-0.3,0.4-0.5,0.6c-0.3,0.4-0.8,0.8-1.3,1.3s-1,1-1.3,1.3c-0.2,0.2-0.4,0.4-0.6,0.5
			c0.1-0.2,0.3-0.4,0.5-0.6c0.3-0.3,0.8-0.8,1.3-1.3s1-1,1.3-1.3C88.9,184.1,89.1,183.9,89.3,183.8z"/>
		<path class="st1" d="M109.7,183.7c0.2,0.1,0.4,0.3,0.6,0.5c0.3,0.3,0.8,0.8,1.3,1.3s1,1,1.3,1.3c0.2,0.2,0.4,0.4,0.5,0.6
			c-0.2-0.1-0.4-0.3-0.6-0.5l-1.3-1.3c-0.5-0.5-0.9-1-1.3-1.3C110,184.1,109.8,183.9,109.7,183.7z"/>
		<path class="st1" d="M109.6,162.4c0.1-0.2,0.3-0.4,0.5-0.6c0.3-0.4,0.8-0.8,1.3-1.3s1-1,1.3-1.3c0.2-0.2,0.4-0.4,0.6-0.5
			c-0.1,0.2-0.3,0.4-0.5,0.6c-0.3,0.3-0.8,0.8-1.3,1.3s-1,1-1.3,1.3C110.1,162.1,109.9,162.3,109.6,162.4z"/>
		<path class="st1" d="M89.2,162.5c-0.2-0.1-0.4-0.3-0.6-0.5c-0.3-0.3-0.8-0.8-1.3-1.3s-1-1-1.3-1.3c-0.2-0.2-0.4-0.4-0.5-0.6
			c0.2,0.1,0.4,0.3,0.6,0.5c0.3,0.3,0.8,0.8,1.3,1.3s1,1,1.3,1.3C88.9,162.1,89.1,162.3,89.2,162.5z"/>
		<path class="st1" d="M109.6,183.6v-0.4c0-0.3,0-0.6,0-1.1c0-1,0-2.5,0-4.3c0-3.7,0-9,0-15.4l0.1,0.1H89.3l0.1-0.1
			c0,7.8,0,15.1,0,21.3l-0.1-0.1H104h4.1l0,0h-4.1H89.3h-0.1v-0.1c0-6.2,0-13.5,0-21.3v-0.1h20.5v0.1c0,6.4,0,11.7,0,15.4
			c0,1.9,0,3.3,0,4.3c0,0.5,0,0.9,0,1.1v0.3C109.7,183.4,109.7,183.6,109.6,183.6z"/>
		<rect x="96.1" y="169.6" class="st0" width="6.8" height="6.8"/>
		<rect x="9.5" y="140" class="st1" width="27.9" height="29.1"/>
		<rect x="7.6" y="140" class="st2" width="27.9" height="29.1"/>
		<path class="st1" d="M35.5,169.1H7.6V140h27.9V169.1z M7.6,169h27.9v-29H7.6V169z"/>
		<rect x="11.4" y="143.9" class="st3" width="20.4" height="21.3"/>
		<path class="st1" d="M11.4,165.3c-0.1,0.2-0.3,0.4-0.5,0.6c-0.3,0.3-0.8,0.8-1.3,1.3l-1.3,1.3c-0.2,0.2-0.4,0.3-0.6,0.5
			c0.1-0.2,0.3-0.4,0.5-0.6c0.3-0.4,0.8-0.8,1.3-1.3s1-1,1.3-1.3C10.9,165.6,11.1,165.4,11.4,165.3z"/>
		<path class="st1" d="M31.8,165.2c0.2,0.1,0.4,0.3,0.6,0.5c0.3,0.3,0.8,0.8,1.3,1.3s1,1,1.3,1.3c0.2,0.2,0.3,0.4,0.5,0.6
			c-0.2-0.1-0.4-0.3-0.6-0.5c-0.3-0.3-0.8-0.8-1.3-1.3s-1-1-1.3-1.3C32.1,165.6,31.9,165.4,31.8,165.2z"/>
		<path class="st1" d="M31.7,143.9c0.1-0.2,0.3-0.4,0.5-0.6c0.3-0.3,0.8-0.8,1.3-1.3s1-1,1.3-1.3c0.2-0.2,0.4-0.4,0.6-0.5
			c-0.1,0.2-0.3,0.4-0.5,0.6c-0.3,0.4-0.8,0.8-1.3,1.3s-1,1-1.3,1.3C32.1,143.6,31.9,143.8,31.7,143.9z"/>
		<path class="st1" d="M11.3,144c-0.2-0.1-0.4-0.3-0.6-0.5c-0.4-0.3-0.8-0.8-1.3-1.3s-1-1-1.3-1.3c-0.2-0.2-0.4-0.4-0.5-0.6
			c0.2,0.1,0.4,0.3,0.6,0.5c0.3,0.3,0.8,0.8,1.3,1.3s1,1,1.3,1.3C11,143.6,11.2,143.8,11.3,144z"/>
		<path class="st1" d="M31.7,165.1c0,0,0-0.1,0-0.1v-0.3c0-0.3,0-0.6,0-1.1c0-1,0-2.5,0-4.3c0-3.7,0-9,0-15.4l0.1,0.1H11.4l0.1-0.1
			c0,7.8,0,15.1,0,21.3l-0.1-0.1h14.7h4.1l0,0h-4.1H11.3h-0.1V165c0-6.1,0-13.5,0-21.3v-0.1h20.5v0.1c0,6.4,0,11.7,0,15.4
			c0,1.9,0,3.3,0,4.3c0,0.5,0,0.9,0,1.1s0,0.2,0,0.3L31.7,165.1z"/>
		<rect x="18.1" y="151.1" class="st0" width="6.8" height="6.8"/>
		<path class="st1" d="M14.6,48.3l4.2-1l1.2,8.5l-2.8,0.7L14.6,48.3z M18,60.8c-0.5-0.3-0.8-0.7-0.9-1.3c-0.1-0.5,0-1.1,0.3-1.5
			c0.7-0.9,2-1.2,3.1-0.7c0.5,0.3,0.8,0.7,0.9,1.2c0.1,0.5,0,1.1-0.3,1.5c-0.3,0.5-0.8,0.8-1.4,0.9C19.1,61.2,18.5,61.1,18,60.8z"/>
		<path class="st1" d="M6.2,49.8c0.8,0,1.4,0.7,1.4,1.5c0,0,0,0.1,0,0.1c-0.1,0.4-0.3,0.8-0.6,1.1c-0.3,0.3-0.7,0.5-1.1,0.5
			c-0.4,0-0.7-0.2-1-0.5c-0.3-0.3-0.4-0.7-0.4-1.1c0-0.4,0.2-0.8,0.5-1.1C5.3,49.9,5.7,49.7,6.2,49.8z M12.9,56.6l-2.4,2.1l-3.8-5
			l1.6-1.4L12.9,56.6z"/>
		<path class="st1" d="M98.4,116.7l4.2-1l1.2,8.5l-2.8,0.6L98.4,116.7z M101.9,129.2c-0.5-0.3-0.8-0.7-0.9-1.2
			c-0.1-0.5,0-1.1,0.3-1.5c0.7-0.9,2-1.2,3.1-0.7c0.5,0.3,0.8,0.7,0.9,1.2c0.1,0.5,0,1.1-0.3,1.5c-0.3,0.5-0.8,0.8-1.4,0.9
			C103,129.6,102.4,129.5,101.9,129.2z"/>
		<path class="st1" d="M90.1,118.1c0.4,0,0.7,0.2,1,0.5c0.3,0.3,0.4,0.7,0.3,1.1c-0.1,0.9-0.9,1.5-1.7,1.5c-0.4,0-0.7-0.2-1-0.5
			c-0.3-0.3-0.4-0.7-0.4-1.1C88.5,118.8,89.2,118.1,90.1,118.1L90.1,118.1z M96.8,125l-2.4,2.1l-3.8-5l1.6-1.4L96.8,125z"/>
		<rect x="108.4" y="74.1" class="st0" width="16.1" height="4.3"/>
		<path class="st1" d="M117.7,82.8C117.7,82.8,117.7,82.8,117.7,82.8v-0.3v-0.8c0-0.7,0-1.8,0-3.1l0,0h-16.1c0,0-0.1,0.1,0.1-0.1
			l0,0v4.2l-0.1-0.1h11.5h3.4l0,0h-3.4h-11.5h-0.1v-4.1l0,0l0.1-0.1h16.1h0.1l0,0v3.2c0,0.4,0,0.6,0,0.8L117.7,82.8L117.7,82.8z"/>
		<path class="st1" d="M112,22.9C112,22.9,112,22.8,112,22.9v-1.1c0-0.7,0-1.8,0-3.1v0H95.9c0,0-0.1,0.1,0.1-0.1l0,0v2.1
			c0,0.7,0,1.4,0,2.1l-0.1-0.1h11.5h3.4l0,0h-3.4L95.9,23h-0.1v-4.4l0,0l0.1-0.1h16.1l0,0v0v3.2L112,22.9L112,22.9z"/>
		<path class="st1" d="M114.1,18.6C114.1,18.6,114.1,18.6,114.1,18.6v-0.3v-0.9c0-0.7,0-1.8,0-3.1l0.1,0.1h-9.7l0.1-0.1l0,0v4.2
			l-0.1-0.1h6.9h2l0,0h-2h-7h-0.1v-4.1l0,0c0,0,0.2-0.2,0.1-0.1h9.7h0.1v0.1c0,1.3,0,2.4,0,3.1c0,0.4,0,0.6,0,0.8
			C114.2,18.4,114.2,18.5,114.1,18.6z"/>
		<path class="st1" d="M89,106.5C89,106.5,89,106.5,89,106.5v-1.1c0-0.7,0-1.8,0-3.1l0,0H72.9l0.1-0.1l0,0v2.2c0,0.7,0,1.4,0,2.1
			l-0.1-0.1h11.5h3.4l0,0h-3.4H72.9h-0.1v-4.3l0,0l0.1-0.1H89l0,0v0.1v3.2c0,0.3,0,0.6,0,0.8v0.3L89,106.5z"/>
		<path class="st1" d="M91.2,102.3C91.2,102.2,91.2,102.2,91.2,102.3V102v-0.9v-3.1l0.1,0.1h-9.7c-0.1,0.1,0.1-0.1,0.1-0.1l0,0v4.2
			l-0.1-0.1h6.9h2l0,0h-2h-7h-0.1v-0.1c0-0.7,0-1.3,0-2.1v-2l0,0c0,0,0.2-0.2,0.1-0.1h9.7h0.1V98c0,1.3,0,2.4,0,3.1
			c0,0.3,0,0.6,0,0.8C91.2,102.1,91.2,102.2,91.2,102.3z"/>
		<path class="st1" d="M137.6,122.4C137.6,122.3,137.6,122.3,137.6,122.4v-1.1c0-0.7,0-1.8,0-3.1l0,0h-16.1c0,0-0.1,0.1,0.1-0.1l0,0
			v2.2c0,0.7,0,1.4,0,2.1l-0.1-0.1H133h3.4l0,0H133h-11.5h-0.1v-4.3l0,0l0.1-0.1h16.1h0.1v0.1v3.2c0,0.3,0,0.6,0,0.8v0.3
			L137.6,122.4z"/>
		<path class="st1" d="M139.8,118.1C139.8,118.1,139.8,118.1,139.8,118.1v-0.3V117v-3.1l0.1,0.1h-9.7l0.1-0.1l0,0v4.2l-0.1-0.1h6.9
			h2h0.6c0.1,0,0.1,0,0.2,0h-0.7h-2h-7H130v-0.1c0-0.7,0-1.3,0-2.1v-2.2l0,0c0,0,0.2-0.2,0.1-0.1h9.7h0.1v0.1c0,1.3,0,2.4,0,3.1
			c0,0.4,0,0.6,0,0.8S139.8,118.1,139.8,118.1z"/>
		<rect x="74.7" y="138.1" class="st0" width="16.1" height="4.3"/>
		<path class="st1" d="M84,146.9C84,146.9,84,146.8,84,146.9v-1.1c0-0.7,0-1.8,0-3.1v0.1H67.9l0.1-0.1l0,0v4.2l-0.1-0.1h11.5h3.4
			l0,0h-3.4H67.9h-0.1v-4.3l0,0c0.2-0.2,0.1,0,0.1-0.1H84l0,0l0,0v3.1c0,0.4,0,0.6,0,0.8v0.3L84,146.9z"/>
		<path class="st1" d="M55.3,170.6v-1.1c0-0.7,0-1.8,0-3.1l0,0H39.2l0.1-0.1l0,0v4.2l-0.1-0.1h11.5h3.4l0,0h-3.4H39.2h-0.1v-0.1
			c0-0.7,0-1.4,0-2.1v-2.1l0,0l0.1-0.1h16.1h0v0.1v3.1c0,0.4,0,0.6,0,0.8v0.2C55.3,170.3,55.3,170.5,55.3,170.6z"/>
		<path class="st1" d="M57.5,166.3V166v-0.9V162l0.1,0.1h-9.7L48,162l0,0v4.2l-0.1-0.1h6.9h2l0,0h-2h-7h-0.1v-4.1l0,0l0.1-0.1h9.7
			h0.1v0.1c0,1.3,0,2.4,0,3.1c0,0.4,0,0.6,0,0.8C57.5,166.1,57.5,166.2,57.5,166.3z"/>
		<rect x="43.7" y="195.6" class="st0" width="16.1" height="4.3"/>
		<path class="st1" d="M53,204.4v-1.1c0-0.7,0-1.8,0-3.1v0.1H36.9l0.1-0.1l0,0v4.2l-0.1-0.1h11.5h3.4l0,0h-3.4H36.9h-0.1v-4.3l0,0
			l0.1-0.1H53h0l0,0v3.2c0,0.4,0,0.6,0,0.8v0.2c0.1,0,0.2,0.1,0.2,0.2C53.2,204.3,53.1,204.4,53,204.4z"/>
		<path class="st1" d="M24.3,228.1v-1.1c0-0.7,0-1.8,0-3.1l0,0H8.2l0.1-0.1l0,0v4.2L8.2,228h11.5H23l0,0h-3.4H8.2h0v-4.3l0,0
			l0.1-0.1h16.1h0.1v0.1v3.2c0,0.4,0,0.6,0,0.8L24.3,228.1C24.3,228,24.3,228.1,24.3,228.1z"/>
		<path class="st1" d="M26.5,223.8C26.5,223.8,26.5,223.8,26.5,223.8v-1.2v-3.1l0.1,0.1h-9.7l0.1-0.1l0,0v4.2l-0.1-0.1h6.9h2l0,0h-2
			h-7h-0.1v-4.3l0,0l0.1-0.1h9.7h0.1v0.1c0,1.3,0,2.4,0,3.1c0,0.4,0,0.6,0,0.8S26.5,223.8,26.5,223.8z"/>
		<rect x="109.7" y="204.9" class="st0" width="16.1" height="4.3"/>
		<path class="st1" d="M119,213.6C119,213.6,119,213.6,119,213.6v-0.3v-0.8c0-0.7,0-1.8,0-3.1v0.1h-16.1c0,0-0.1,0.1,0.1-0.1l0,0
			v4.2l-0.1-0.1h11.5h3.4h1.2c0.1,0,0.1,0,0.1,0h-1.2h-3.4h-11.5h-0.1v-4.3l0,0l0.1-0.1H119l0,0l0,0v3.1c0,0.4,0,0.6,0,0.8v0.3
			V213.6z"/>
		<path class="st1" d="M90.3,237.3C90.3,237.3,90.3,237.3,90.3,237.3v-1.1c0-0.7,0-1.8,0-3.1l0,0H74.3l0.1-0.1l0,0v2.1
			c0,0.7,0,1.4,0,2.1l-0.1-0.1h11.5h3.4l0,0h-3.4H74.2h-0.1v-4.3l0,0l0.1-0.1h16.1l0,0v0.1v3.1c0,0.4,0,0.6,0,0.8v0.3L90.3,237.3z"
			/>
		<path class="st1" d="M92.5,233.1C92.5,233,92.5,233,92.5,233.1v-0.3v-0.9v-3.1l0.1,0.1h-9.7l0.1-0.1l0,0v4.2l-0.1-0.1h6.9h2l0,0
			h-2h-7h-0.1v-4.3l0,0c0,0,0.2-0.2,0.1-0.1h9.7h0.1v0.1c0,1.3,0,2.4,0,3.1c0,0.4,0,0.6,0,0.8C92.6,232.7,92.6,232.9,92.5,233.1z"/>
		<rect x="126" y="248.4" class="st0" width="16.1" height="4.3"/>
		<path class="st1" d="M135.3,257.2C135.3,257.2,135.3,257.1,135.3,257.2V256c0-0.7,0-1.8,0-3.1l0,0h-16.1l0.1-0.1l0,0v1.2
			c0,0.4,0,0.7,0,1.1v2.1l-0.1-0.1h11.5h3.4l0,0h-3.4h-11.5h-0.1v-4.3l0,0l0.1-0.1h16.1h0.1v0.1v3.1c0,0.4,0,0.6,0,0.8v0.3
			L135.3,257.2z"/>
		<path class="st1" d="M106.6,280.9v-1.1c0-0.7,0-1.8,0-3.1v0H90.5l0.1-0.1l0,0v4.2l-0.1-0.1h11.5h3.4h0.9h-0.9H102H90.5h-0.1v-0.1
			c0-0.7,0-1.4,0-2.1v-2.1l0,0l0.1-0.1h16.1h0.1v0v3.1c0,0.4,0,0.6,0,0.8v0.2C106.6,280.7,106.5,280.8,106.6,280.9z"/>
		<path class="st1" d="M108.8,276.6v-0.3v-0.9v-3.1l0.1,0.1h-9.7l0.1-0.1l0,0v4.2l-0.1-0.1h6.9h2l0,0h-2h-7H99v-4.3l0,0
			c0,0,0.2-0.2,0.1-0.1h9.7h0.1v0c0,1.3,0,2.4,0,3.1c0,0.4,0,0.6,0,0.8C108.8,276.3,108.8,276.5,108.8,276.6z"/>
		<polygon class="st3" points="73.1,10.4 75.6,60.9 84.5,60.8 84.5,74 97.1,61 137.6,61 142.1,7.8 		"/>
		<path class="st4" d="M73.1,10.4l69.1-2.7h0.1v0.1c-1.4,15.9-2.9,34-4.5,53.2v0.1H97.1h0.1L84.5,74l-0.1,0.1V60.8l0.1,0.1L75.6,61
			h-0.1l0,0C74,30.2,73.1,11,73.1,10.4c0,0.6,1,19.8,2.6,50.6l-0.1-0.1l8.9-0.2h0.1V74h-0.1l12.7-13l0,0h40.5l-0.1,0.1
			c1.6-19.2,3.2-37.3,4.6-53.2l0.1,0.1L73.1,10.4z"/>
		<polygon class="st5" points="131.4,23 135.4,13.3 138.9,15.4 		"/>
		<polygon class="st5" points="135.4,30.4 146,31.1 145.2,35.1 		"/>
		<polygon class="st5" points="133.8,25 147.7,17 150.4,23.1 		"/>
		<polygon class="st5" points="118.4,17.4 119,18.9 120.4,19.5 119,20.1 118.4,21.6 117.8,20.1 116.3,19.5 117.8,18.9 		"/>
		<polygon class="st5" points="83.2,51.3 83.8,52.7 85.3,53.3 83.8,54 83.2,55.4 82.6,54 81.1,53.3 82.6,52.7 		"/>
		<polygon class="st5" points="113.3,16.5 113.7,17.2 114.4,17.5 113.7,17.8 113.3,18.6 113,17.8 112.3,17.5 113,17.2 		"/>
		<polygon class="st5" points="88.6,50.7 88.9,51.4 89.6,51.7 88.9,52 88.6,52.8 88.3,52 87.6,51.7 88.3,51.4 		"/>
		<polygon class="st5" points="135.6,40 135.9,40.8 136.6,41.1 135.9,41.4 135.6,42.1 135.3,41.4 134.6,41.1 135.3,40.8 		"/>
		<path class="st6" d="M89.6,288.8c0,3.2-18.2,5.9-40.7,5.9S8.2,292,8.2,288.8s18.2-5.9,40.7-5.9S89.6,285.6,89.6,288.8z"/>
		<polygon class="st7" points="24.4,238.4 27.2,282.1 11.9,289.2 35.4,287.8 41.6,221.1 		"/>
		<path class="st7" d="M37.5,264.7l4.1-43.6l-17.3,17.3l1.6,24.5C29.8,263.5,33.7,264.1,37.5,264.7z"/>
		<polygon class="st8" points="11.9,289.2 35.4,287.8 35.2,289.1 12,290.2 		"/>
		<polygon class="st8" points="18.1,285.9 19.2,289.6 28.8,288.6 26,282.2 		"/>
		<polygon class="st7" points="72.5,238.4 69.6,282.1 85,289.2 61.5,287.8 55.2,221.1 		"/>
		<path class="st7" d="M59.3,264.7l-4.1-43.6l17.3,17.3l-1.6,24.5C67,263.5,63.2,264.1,59.3,264.7z"/>
		<polygon class="st8" points="85,289.2 61.5,287.8 61.6,289.1 84.8,290.2 		"/>
		<polygon class="st8" points="78.8,285.9 77.6,289.6 68,288.6 70.9,282.2 		"/>
		<path class="st9" d="M43.1,104.9c0,0-21.6,21.1-23.5,45.6c-1.6,20.7,3.1,107.4,3.1,107.4s3.7,4.1,17.7,1.5l8-90.8l6.1,91.9
			c0,0,4.7,5,19.5-0.1c0,0,12.5-115.2-9.4-141.7L43.1,104.9z"/>
		<path class="st10" d="M65.7,120.1c-0.3-0.5-0.7-1-1.1-1.4l-21.6-13.8c-4.8,5-9.1,10.5-12.8,16.3C36.3,122.8,55.4,125.1,65.7,120.1
			z"/>
		<path class="st10" d="M47.9,155.3l-18.7-9.6l0.2,114.4c3.7,0.3,7.4,0,11-0.7l7.8-88L47.9,155.3z"/>
		<path class="st11" d="M69.4,62.2c-3.3-0.8-2.4-7.5-6.7-21c-4.6-14.5-26-7.3-17.7-9.4c-0.4,0-11.7,1.3-13.3,15.2
			c-1.6,14.1-2.9,20.8-6,22.2s-7.5,7.8,3,12.8c4.8,2.3,13.4,3.1,21.6,2.3l0,0h0.3h0.3l0,0c8.2-0.8,16.4-3.3,20.8-6.4
			C81.3,71,72.7,63.1,69.4,62.2z"/>
		<path class="st12" d="M61.6,63C55,55,55.2,44.9,54,35.2c-4-1.4-8.9-0.5-13,0.2c1.1,4.3,1.6,8.8,1.7,13.2
			c0.1,5.9-0.6,12.7-4.1,17.7c-2.1,3-5.2,4.4-8.1,6.2c-2.2,1.4-3.8,3.5-4.8,6c-0.2,0.4-0.3,0.9-0.5,1.3c1.1,0.9,2.3,1.6,3.6,2.2
			c4.8,2.3,13.4,3.1,21.6,2.3l0,0h0.3h0.3l0,0c8.2-0.8,16.3-3.2,20.7-6.4c0-1.8-0.5-3.5-1.4-5C68.1,69.1,64.4,66.4,61.6,63z"/>
		<polygon class="st7" points="36.3,73.2 44.5,72.3 58.1,72.1 61.1,72.3 60.7,78.5 50.7,86 36.3,81.7 36,76.6 		"/>
		<path class="st7" d="M42.7,65.1c0,0,0.8,7.8-0.6,9.1c0,0,3.2,3.6,9.2,2.7c0,0,4.6-0.9,5.8-2.7c0,0-1.4-9.4-1.5-11.4
			C55.6,62.8,44,61,42.7,65.1z"/>
		<path class="st13" d="M42.9,69.6c2.8,1.7,5.8,2.4,9.1,1.2c1.6-0.6,3-1.5,4.2-2.6c-0.3-2.3-0.6-4.5-0.6-5.4c0,0-11.6-1.8-12.9,2.3
			C42.7,65.1,42.9,67.3,42.9,69.6z"/>
		<path class="st7" d="M60.5,45L60.5,45c-1.3-6.9-7.8-11.7-14.8-10.8c-7.4,0.6-12.9,7-12.3,14.4c0.1,1,0.3,2.1,0.7,3
			C35.3,57,39,68,50.3,69C50.3,69,63.6,65.6,60.5,45z"/>
		<path class="st7" d="M36.7,56.2c0.9,1.8,0.8,3.6-0.1,4.1s-2.5-0.5-3.3-2.3s-0.8-3.6,0.1-4.1S35.8,54.4,36.7,56.2z"/>
		<path class="st7" d="M64.4,54.5c-0.3,2-1.4,3.4-2.5,3.2s-1.7-1.9-1.4-3.8s1.4-3.4,2.5-3.2S64.7,52.6,64.4,54.5z"/>
		<path class="st11" d="M45.2,52.6c0,0-2.4-2.2-7.1-0.4c0,0,4.5-0.7,6.2,0.5C44.3,52.7,45.3,53.4,45.2,52.6z"/>
		<path class="st11" d="M51.3,52.4c0,0,1.9-2.7,6.9-1.7c0,0-4.6,0.2-6,1.6C52.2,52.3,51.4,53.2,51.3,52.4z"/>
		<g class="st14">
			<path class="st11" d="M47.9,59.1c0,0,1.6,1.5,2.4-0.1C50.3,59,49.5,61,47.9,59.1z"/>
			<path class="st11" d="M47.1,58.6c-0.3,0.3-0.3,0.7,0,1c0.1,0.1,0.2,0.2,0.4,0.2C47.2,59.5,47,59,47.1,58.6z"/>
			<path class="st11" d="M51,58.3c0.3,0.2,0.4,0.7,0.2,1c-0.1,0.1-0.2,0.2-0.3,0.2C51.1,59.2,51.1,58.7,51,58.3z"/>
		</g>
		<path class="st11" d="M61,43.8l0.8-0.1c-0.1-2.7-0.9-5.2-2.3-7.5c-0.9-1.8-2.8-3-4.8-3c-1.8-0.2-3.7-1.2-5.5-0.8
			c-0.5,0.2-0.9,0.4-1.4,0.7c-0.2,0.1-0.4,0.2-0.6,0.2c-1.8-0.3-3.6-0.3-5.4-0.2c-2.3,0.2-4.3,1.5-5.6,3.4c-0.5,0.7-0.9,1.4-1.2,2.2
			c-0.5,1.2-0.9,1.1-1,2.3c-3.8,7.4,0.6,12.5,0.6,12.5c-0.1-0.3,0.8,2,0.8,1.6c0.9,2.3,1.4,5.1,1.7,5.4c0.6,0.6,1-0.8,1-0.8
			c-2.3-4.3-1.2-9.9,0-13.8l10-0.9c0.2,0,0.4-0.2,0.5-0.4c0.3-1,0.6-1.9,0.9-2.9l0.1-0.4h0.6c0.3,1.1,0.5,2.3,0.8,3.4l3.8-0.4
			c0-0.8,0-1.5,0-2.3l0.5,0.2c0.2,0.5,0.4,1.1,0.7,1.6c0,0.1,0.3,0.3,0.4,0.3l1.5-0.1c0.7,0.8,1.3,1.8,1.7,2.9c0,0-0.1,0.1-0.1,0.2
			c0,0,1.3,10.2,0.7,13.5c0,0,0.4,0.8,1,0.2s1-7.7,0.8-11.4C62.2,47.9,61.5,46,61,43.8z"/>
		<path d="M57.2,54c0,0-0.2,2.7-4.2,1.8L57.2,54z"/>
		<path class="st15" d="M51.5,55.5c0,0,0.6-2.6,2.7-3c1.2-0.3,2.4,0.1,3.2,1.1c-0.2,1.1-1,2-2.1,2.2C54.1,56,52.8,55.9,51.5,55.5z"
			/>
		<path class="st16" d="M56.2,53.6c0.1,1-0.6,1.8-1.6,1.9c-1,0.1-1.8-0.6-1.9-1.6c0,0,0-0.1,0-0.1c-0.1-1,0.7-1.8,1.6-1.8
			c0,0,0,0,0,0C55.3,51.9,56.1,52.6,56.2,53.6z"/>
		<path class="st17" d="M56.1,53.5c0.1,0.9-0.6,1.7-1.6,1.8c-0.9,0.1-1.7-0.6-1.8-1.6c-0.1-0.9,0.6-1.7,1.5-1.8
			C55.2,51.9,56,52.6,56.1,53.5z"/>
		<path class="st18" d="M55.5,53.6c0,0.6-0.4,1.1-1,1.1c0,0,0,0,0,0c-0.6,0-1.1-0.4-1.1-1c0-0.6,0.4-1.1,1-1.1
			C55,52.6,55.5,53,55.5,53.6C55.5,53.6,55.5,53.6,55.5,53.6z"/>
		<g class="st19">
			<path d="M54.7,53.2c0.6,0,1.1,0.2,1.5,0.6c0-0.1,0-0.2,0-0.3c-0.1-1-0.9-1.7-1.9-1.6c-1,0.1-1.7,0.9-1.6,1.8c0,0,0,0,0,0
				c0,0.4,0.2,0.7,0.4,1C53.2,53.9,53.9,53.3,54.7,53.2z"/>
		</g>
		<path d="M55.2,53.6c0,0.4-0.3,0.8-0.7,0.8c-0.4,0-0.8-0.3-0.8-0.7l0,0c0-0.4,0.3-0.8,0.7-0.8C54.8,52.9,55.1,53.2,55.2,53.6z"/>
		<path class="st15" d="M56.4,53.6c0,0.3-0.2,0.6-0.6,0.6c0,0,0,0,0,0c-0.3,0-0.6-0.2-0.6-0.6c0-0.3,0.2-0.6,0.6-0.6
			C56.1,53,56.4,53.2,56.4,53.6C56.4,53.6,56.4,53.6,56.4,53.6z"/>
		<path class="st15" d="M55.3,54.5c0,0.1-0.1,0.2-0.3,0.2c-0.1,0-0.2-0.1-0.2-0.2c0-0.1,0.1-0.2,0.3-0.2
			C55.2,54.3,55.3,54.4,55.3,54.5z"/>
		<path d="M52.7,52.8c-0.7,0.7-1.1,1.7-1.2,2.7c0,0,0.6-2.6,2.7-3c1.2-0.3,2.4,0.1,3.2,1.1c0,0,0.9-0.3,0.7-0.6
			C57,51.2,54,51.2,52.7,52.8z"/>
		<g class="st20">
			<path d="M54.1,53c1.2-0.3,2.4,0.1,3.2,1c0,0,0,0.1,0,0.2c0.1-0.2,0.2-0.4,0.2-0.7c-0.8-0.9-2-1.4-3.2-1.1
				c-1.9,0.4-2.6,2.4-2.7,2.9C52,54.2,52.9,53.3,54.1,53z"/>
		</g>
		<path d="M39.5,55.1c0,0,0.5,2.6,4.4,1.3L39.5,55.1z"/>
		<path class="st15" d="M45.3,55.8c0,0-0.9-2.5-3.1-2.6c-1.2-0.2-2.4,0.4-3,1.4c0.3,1.1,1.2,1.8,2.3,1.9
			C42.9,56.6,44.2,56.4,45.3,55.8z"/>
		<path class="st16" d="M40.5,54.5c0.1,1,0.9,1.7,1.9,1.6s1.7-0.9,1.6-1.9c-0.1-1-0.9-1.7-1.9-1.6c0,0,0,0,0,0
			C41.2,52.7,40.4,53.6,40.5,54.5C40.5,54.5,40.5,54.5,40.5,54.5z"/>
		
			<ellipse transform="matrix(0.998 -6.244214e-02 6.244214e-02 0.998 -3.3098 2.7436)" class="st17" cx="42.2" cy="54.3" rx="1.7" ry="1.7"/>
		<path class="st18" d="M41.2,54.5c0,0.6,0.6,1,1.1,1c0.6,0,1.1-0.5,1-1.1s-0.5-1.1-1.1-1C41.6,53.4,41.1,53.9,41.2,54.5
			C41.2,54.5,41.2,54.5,41.2,54.5z"/>
		<path d="M41.5,54.5c0,0.4,0.4,0.7,0.8,0.7c0.4,0,0.7-0.4,0.7-0.8c0-0.4-0.4-0.7-0.8-0.7c0,0,0,0,0,0
			C41.8,53.7,41.5,54.1,41.5,54.5z"/>
		<g class="st20">
			<path d="M42.5,53.6c-1.2-0.2-2.4,0.4-3,1.4v0.2c-0.1-0.2-0.2-0.4-0.3-0.6c0.6-1,1.8-1.6,3-1.4c1.9,0.1,2.8,2.1,3,2.5
				C44.7,54.6,43.7,53.9,42.5,53.6z"/>
		</g>
		<g class="st19">
			<path d="M42.5,54c0.6,0,1.1,0.2,1.5,0.6c0-0.1,0-0.2,0-0.3c-0.1-1-0.9-1.7-1.8-1.6c-1,0.1-1.7,0.9-1.6,1.8c0,0.4,0.2,0.7,0.4,1
				C41,54.7,41.6,54,42.5,54z"/>
		</g>
		<path class="st15" d="M44,54.3c0,0.3-0.2,0.6-0.6,0.6c-0.3,0-0.6-0.2-0.6-0.6s0.2-0.6,0.6-0.6C43.7,53.8,44,54,44,54.3L44,54.3z"
			/>
		<path class="st15" d="M42.9,55.2c0,0.1,0,0.2-0.2,0.3c-0.1,0-0.2,0-0.3-0.2c0,0,0-0.1,0-0.1c0-0.1,0.1-0.2,0.2-0.2c0,0,0,0,0,0
			C42.8,55,42.9,55.1,42.9,55.2C42.9,55.2,42.9,55.2,42.9,55.2z"/>
		<path d="M43.8,53.3c0.8,0.6,1.3,1.5,1.5,2.5c0,0-0.9-2.5-3.1-2.6c-1.2-0.2-2.4,0.4-3,1.4c0,0-0.9-0.2-0.8-0.5
			C39.4,52.3,42.3,51.9,43.8,53.3z"/>
		<path class="st21" d="M46.3,62.1c0,0-0.8,0-0.6,0.8C45.7,62.5,45.9,62.2,46.3,62.1z"/>
		<path class="st21" d="M52.8,61.8c0,0,0.8-0.1,0.7,0.7C53.4,62.2,53.1,61.9,52.8,61.8z"/>
		<path class="st21" d="M53.2,61.9c0,0-0.1,0.2-0.7,0.2s-6.3,0.3-6.3,0.3s-0.3,0-0.3-0.2l-0.1,0.2c0,0,1.9,2.3,3,2.4
			c0.9,0.1,1.8,0,2.6-0.3c0.7-0.7,1.4-1.5,2-2.4L53.2,61.9z"/>
		<path class="st22" d="M46,62.5c0,0,1.2,2.9,3.6,2.8s2.9-2,3.4-3.1L46,62.5z"/>
		<path class="st23" d="M52.3,62.3l-5.8,0.3H46c0,0,1.8,2,2.8,2.1c0.8,0.1,1.7,0,2.4-0.3c0.7-0.6,1.3-1.4,1.8-2.1L52.3,62.3z"/>
		<path class="st3" d="M46.3,62.5c0.4,0.4,1,0.7,1.7,0.7c1.3,0,2.5-0.1,3.8-0.3c0.4-0.2,0.7-0.4,1-0.7L46.3,62.5z"/>
		<path class="st24" d="M52.3,62.5c0.2-0.1,0.3-0.2,0.4-0.3l-6.4,0.3c0.2,0.2,0.4,0.3,0.7,0.3C47.3,62.8,52.2,62.6,52.3,62.5z"/>
		<path class="st25" d="M48.8,64.7c0.4,0,0.9,0,1.3,0c0.4,0,0.7-0.1,1.1-0.3c0.1-0.1,0.3-0.2,0.4-0.3c-0.2-0.1-0.5-0.2-0.8-0.2
			c-0.4-0.1-0.8-0.1-1.2,0l-0.2,0c-0.6-0.1-1.2,0-1.7,0.3c0.2,0.1,0.4,0.3,0.6,0.4C48.4,64.5,48.6,64.6,48.8,64.7z"/>
		<path class="st26" d="M47.7,64.1c0.1,0.1,0.3,0.2,0.4,0.3c0.1,0.1,0.2,0.1,0.4,0.2c0.2,0.1,0.3,0.1,0.5,0.1c0.3,0,0.7,0,1,0h0.2
			c0.3,0,0.7-0.2,1-0.3c0.1-0.1,0.3-0.2,0.4-0.3l-0.1,0h-0.6h-0.8l-0.5,0.1h-0.2c-0.2,0-0.4,0-0.6,0h-0.5c-0.2,0-0.4,0-0.5,0
			L47.7,64.1z"/>
		<path class="st27" d="M47.7,64.1c0.2,0.1,0.3,0.2,0.5,0.3c0.1,0.1,0.3,0.1,0.5,0.2c0.2,0,0.3,0.1,0.5,0.1c0.3,0,0.6,0,0.9,0h0.2
			c0.3-0.1,0.6-0.2,0.9-0.3c0.1-0.1,0.3-0.2,0.4-0.3l-0.1,0c-0.1,0.1-0.2,0.1-0.3,0.1l-0.3,0.1c-0.2,0-0.5,0.1-0.8,0.1h-0.5h-0.2
			h-0.6c-0.2,0-0.3,0-0.5-0.1c-0.2-0.1-0.4-0.1-0.5-0.2C47.7,64.1,47.7,64.1,47.7,64.1z"/>
		<path class="st28" d="M51.2,64.2c-0.3,0.2-0.7,0.3-1.1,0.3c-0.4,0.1-0.9,0.1-1.3,0c-0.2,0-0.3-0.1-0.5-0.2
			c-0.2-0.1-0.4-0.2-0.5-0.3l-0.1,0.1c0.2,0.1,0.4,0.3,0.6,0.4c0.2,0.1,0.4,0.2,0.5,0.2c0.4,0,0.9,0,1.3,0c0.4,0,0.7-0.1,1.1-0.3
			c0.1-0.1,0.3-0.2,0.4-0.3h-0.2C51.4,64.1,51.3,64.1,51.2,64.2z"/>
		<path class="st29" d="M49.5,65c-0.5,0-1-0.2-1.5-0.4C47.6,64.3,48.7,65.4,49.5,65z"/>
		<path class="st22" d="M53.1,62.2L53.1,62.2L53.1,62.2C53.1,62.2,53.2,62.2,53.1,62.2z"/>
		<path class="st22" d="M46.5,62.5l5.8-0.3H53c-0.4,0-1.2-0.4-1.7-0.5c-0.6,0-1.2,0.1-1.8,0.2c-0.7-0.1-1.3-0.1-2,0.1
			c-0.4,0.1-1.2,0.4-1.4,0.5L46.5,62.5z"/>
		<path class="st22" d="M46.1,62.6L46.1,62.6z"/>
		<path class="st30" d="M38.2,72.9c0,0-1.5,9.7,8.2,9.8s14.7-10.5,14.7-10.5l7.5,2.7c-1.3,2-2.1,4.3-2.4,6.7
			c-0.3,3.3,0.1,6.7,1.2,9.8c-0.9,11.3-2,24.4-2.5,25.5c-1,2-23.5,5.2-41.2-5.7c0,0-3.2-13.8,5.6-36.1L38.2,72.9z"/>
		<path class="st30" d="M66.2,81.7c0-0.3,0.1-0.7,0.1-1c-8.5,15.2-23.6,23.7-42,25.2c-0.5,3.5-0.6,5.5-0.6,5.5
			c17.6,10.9,40.1,7.6,41.1,5.6c0.5-1.1,1.6-14.2,2.5-25.5C66.3,88.4,65.9,85,66.2,81.7z"/>
		<g class="st31">
			<path d="M45.3,98.7c-0.3,2.1-0.5,4.5,0.9,6c0.9,0.8,2,1.4,3.1,1.9c2.1,1.3,4,3,5.4,5.1c1.4,2.1,3,4,4.8,5.7
				c1.9,1.7,4.3,2.6,6.9,2.4l-0.5-4.9l-12.8-13L45.3,98.7z"/>
		</g>
		<path class="st30" d="M29.3,75.3c0,0-3,1-5.7,6.6c-1.7,3.4-7.7,24.2-7.9,26.8c0,0.2,0,0.3,0,0.6c-0.8,7.3,6.2,12.3,12.1,8.4
			c1.8-1.2,3.1-2.9,3.7-4.9l2.3-7L29.3,75.3z"/>
		<path class="st4" d="M46.8,109.3c0,0-2.6-1.5-5.8-3.5s-5.7-3.6-5.7-3.6s2.6,1.5,5.8,3.5S46.8,109.3,46.8,109.3z"/>
		<path class="st30" d="M66.1,74.3c0,0,7.2,1.4,8.7,6.3c1.4,4.4,4.5,23.9,5,28c0.6,5.6-0.6,11.8-6.6,12.4s-17.1-9.7-17.1-9.7
			l7.3-9.5l2.9,1.6l-0.5-13.5L66.1,74.3z"/>
		<path class="st4" d="M68.5,120L68.5,120l-0.3-0.1c-0.2-0.1-0.4-0.2-0.8-0.3c-0.9-0.5-1.9-1-2.8-1.6c-3-2-5.9-4.2-8.6-6.6l0,0l0,0
			l2.8-3.7l4.5-5.8l0,0l0,0c1.6,0.8,3.1,1.7,4.4,2.4s2.4,1.4,3.4,2l2.2,1.3l0.6,0.4l0.2,0.1l0,0l0,0l-0.1-0.2l-0.6-0.3l-2.2-1.3
			l-3.4-2c-1.3-0.7-2.8-1.6-4.4-2.4h0.1l-4.5,5.8l-2.8,3.7v-0.1c2.7,2.4,5.6,4.6,8.5,6.6c0.9,0.6,1.8,1.1,2.7,1.6
			c0.3,0.2,0.6,0.3,0.8,0.3L68.5,120L68.5,120z"/>
		<path class="st4" d="M30.5,91.6h-0.2h-0.5l-1.7-0.2l-6-0.8h0.1c-0.4,1.4-0.9,3-1.3,4.6c-1,3.5-1.8,6.7-2.3,9
			c-0.3,1.2-0.5,2.1-0.6,2.8l-0.1,0.8v0.2c0,0,0,0,0,0.1c0,0,0,0,0-0.1v-0.2L18,107c0.1-0.7,0.3-1.6,0.6-2.8c0.5-2.3,1.3-5.5,2.3-9
			c0.5-1.6,0.9-3.2,1.3-4.6l0,0l0,0l6,0.8l1.7,0.2l0.5,0.1L30.5,91.6z"/>
		<path class="st4" d="M31.9,88.4c0,0,0.2,5,0.5,11.1s0.4,11.1,0.3,11.1s-0.2-5-0.5-11.1S31.9,88.4,31.9,88.4z"/>
		<path class="st4" d="M65.8,90.7c0,0,0,0.1,0,0.1v0.4c0,0.3,0,0.8,0,1.4c0,1.2,0.1,2.8,0.2,4.5s0.2,3.3,0.2,4.5l0.1,1.4v0.4
			c0,0,0,0.1,0,0.1c0,0,0-0.1,0-0.1v-0.4l-0.1-1.4c-0.1-1.2-0.2-2.7-0.3-4.5s-0.1-3.3-0.1-4.5c0-0.6,0-1,0-1.4v-0.4
			C65.8,90.7,65.8,90.7,65.8,90.7z"/>
		<path class="st4" d="M70.9,79.5c0,0-1.2,1.9-2.7,4.3S65.5,88,65.4,88s1.2-1.9,2.7-4.3S70.9,79.5,70.9,79.5z"/>
		<path class="st7" d="M34,74.8c-0.8,0-0.9-0.4-1.8,0.9s-0.4,2.9-1.9,3.2s-2.5-3-2.6-3.3c-0.1-0.1-0.5-1-1-2.1
			c-0.6-1.4-1.4-3.1-2-4.5c-1.1-2.5-2.3-1.5-2.3-1.5l2,7.2c0,0-2.9-5.4-4.1-6.5s-2-0.2-2-0.2l3.9,7.6l-4-5.5
			c-0.9-1.2-1.6-1.2-1.9-0.8c-0.2,0.6-0.1,1.3,0.2,1.8c0.3,0.6,4,6.3,3.9,6.3s-3.2-2.3-4-2.7s-1.5-0.1-1.6,0.6s5.8,5.9,5.8,5.9
			l2.6,6.7l-0.5,2.6l7.4,0.9l0.1-3.9c0.9-1.4,1.6-2.8,2.2-4.4c0.6-1.8,1.5-6.6,1.8-7.1S34.8,74.7,34,74.8z"/>
		<path class="st32" d="M30,83.2c0,0-0.1,0-0.4-0.1C29.2,83,28.8,83,28.4,83c-0.3,0-0.5,0-0.8,0.1c-0.3,0.1-0.6,0.1-1,0
			c-0.3-0.1-0.7-0.3-0.9-0.6c-0.2-0.3-0.5-0.6-0.7-0.9c-0.8-1-1.7-1.9-2.8-2.7c-0.4-0.3-0.7-0.5-1-0.7c-0.1-0.1-0.2-0.1-0.3-0.2h0.1
			l0.3,0.2c0.2,0.1,0.6,0.4,1,0.7c1.1,0.8,2,1.7,2.8,2.7c0.2,0.3,0.5,0.6,0.7,0.9c0.2,0.3,0.5,0.5,0.8,0.6c0.3,0.1,0.6,0.1,0.9,0
			c0.3,0,0.5,0,0.8,0c0.4,0,0.8,0,1.2,0.1L30,83.2L30,83.2z"/>
		<path class="st4" d="M45,86l0.3,16.7c0,0.8,0.7,1.5,1.5,1.5c0,0,0,0,0,0l7-0.2c0.8,0,1.5-0.7,1.5-1.5L55.8,86
			c0-0.8-0.6-1.5-1.5-1.6c0,0,0,0-0.1,0h-7.8C45.7,84.4,45,85.1,45,86C45,86,45,86,45,86z"/>
		<path class="st3" d="M51.2,87.6c0,0.4-0.3,0.7-0.7,0.7c-0.4,0-0.6-0.3-0.6-0.7c0-0.4,0.3-0.7,0.6-0.7C50.9,87,51.2,87.3,51.2,87.6
			L51.2,87.6z"/>
		<path class="st7" d="M55.7,89.8c0,0,2,2.4,2.8,3.4s1,4.5,1,4.5l0.5,4l2.8,1.6l-5.3,6.6l-4.3-4l-4.2-1.5c0,0-2.8-2.7-3.3-3.9
			c-0.3-0.7-0.4-1.4-0.4-2.2c-0.6-1.3-1.1-2.6-1.6-3.9c-0.2-0.9-0.3-1.9-0.3-2.8c0,0,0.7-0.2,1.4,1l-1-2.1c0,0,0.5-1.6,1.9,0
			s3.7,4.1,3.7,4.1l2.6,2.1l0.3-0.4c0,0-4.6-5.6-4.5-6.6s1.1-1.1,2.1,0s5.1,6.4,5.7,6.4s0.7-0.7,0.7-0.7l-0.4-2l-0.2-0.4L55.7,89.8z
			"/>
		<path class="st32" d="M48.5,98.2c-0.1-0.1-0.1-0.1-0.2-0.2l-0.5-0.6c-0.4-0.5-0.9-1.2-1.4-2s-1-1.5-1.3-2l-0.4-0.6
			c0-0.1-0.1-0.2-0.1-0.2c0.1,0.1,0.1,0.1,0.2,0.2l0.4,0.6c0.3,0.5,0.8,1.2,1.3,2s1,1.5,1.4,2l0.4,0.6C48.4,98,48.5,98.1,48.5,98.2z
			"/>
		<path class="st32" d="M47.3,100.8c0,0-0.6-0.7-1.2-1.6c-0.4-0.5-0.8-1.1-1.2-1.7c0.5,0.5,0.9,1.1,1.3,1.6
			C46.5,99.7,46.9,100.2,47.3,100.8z"/>
		<text transform="matrix(1 0 0 1 78.03 35.67)" class="st5 st33 st34">MEN</text>
		<text transform="matrix(1 0 0 1 103.89 35.67)" class="st5 st33 st34">S</text>
		<text transform="matrix(1 0 0 1 110.65 35.67)" class="st5 st33 st34">AJE</text>
		<text transform="matrix(1 0 0 1 85.04 49.38)" class="st5 st33 st34">NUE</text>
		<text transform="matrix(1 0 0 1 110.37 49.38)" class="st5 st33 st34">V</text>
		<text transform="matrix(1 0 0 1 119.15 49.38)" class="st5 st33 st34">O</text>
	</g>
</g>
</svg>
