<svg id="Layer_1" data-name="Layer 1" xmlns="http://www.w3.org/2000/svg" viewBox="0 0 1000 1000"><defs><style>.cls-1{fill:#fff;}</style></defs><path class="cls-1" d="M466.07,681c-8-2.59-16.41-3.83-24.19-7.22-4.42-1.92-5.37.27-5.33,4.29.17,18.5.36,37,.11,55.49-.05,4,1.75,5.22,4.83,6a302.92,302.92,0,0,0,38.22,7.26,268,268,0,0,0,63.6-.62c15.13-1.89,29.8-5.79,44.46-10.24a249.67,249.67,0,0,0,70.39-34.2A255.86,255.86,0,0,0,719.54,642a282,282,0,0,0,33.67-60c1.33-3.27,1-4.25-2.25-5.4q-25.58-8.87-51-18.19c-4.51-1.65-5.52,1.55-6.73,4.33a201.3,201.3,0,0,1-16.75,31.46c-24,35.89-55.85,61.8-96.18,77.61-28.39,11.13-57.67,14.94-87.86,13.59C483.62,684.07,474.48,684.69,466.07,681Z"/><path class="cls-1" d="M466.07,681c3.53,2.06,6.47,4.74,11.41,4.1s9.93,1,15,.28C483.87,682.54,474.84,682.56,466.07,681Z"/><path class="cls-1" d="M674.57,464.47a5.47,5.47,0,0,0-.2-1.28c-1.63-11.29-3.65-22.48-8.28-33h0a15.31,15.31,0,0,0-2.44-7.1c-23.29-55.36-64.22-90.86-123.07-101.75-67.78-12.56-124,9.89-166.3,64.75-22.72,29.49-32.9,63.57-32.76,100.69.1,27.35.46,54.72.24,82.05-.43,55.66.13,111.31-.41,167a8.29,8.29,0,0,0,3.51,7.44,288.78,288.78,0,0,0,54.79,33.27c4.79,2.24,5,.45,5-3.62q-.12-74.64,0-149.28c0-1.87-.63-3.86.77-6,7.75,5.07,15.11,10.54,23.16,15,86.12,47.35,195.63,9.4,233.93-81.16,2.82-6.66,5.83-13.26,6.8-20.54h0a15.72,15.72,0,0,0,2.34-7.16c.75-5.06,2.67-9.92,2.69-15.11h0c2.15-6.63,1.15-13.56,1.62-20.33A102.61,102.61,0,0,0,674.57,464.47ZM509.07,590.09A104.23,104.23,0,0,1,404.58,485.51C404.5,427.82,451.37,381,509.31,380.9c57-.1,104.29,47.3,104.3,104.54A104.53,104.53,0,0,1,509.07,590.09Z"/><path class="cls-1" d="M753.44,389.39c-26.81-65-71.58-113.16-135.38-142.78-43.84-20.36-90.11-28.05-138.4-22.15-71.92,8.79-130.61,41.73-176.24,97.57-29.57,36.18-47.27,78-54.76,124.13a29,29,0,0,0-.16,2.95,10.23,10.23,0,0,0-.47,2.3,84.81,84.81,0,0,0-1.56,16.76c.09-.28.19-.57.28-.86a2.42,2.42,0,0,1-.28.86c-.36,8.66-1,17.32-.05,26-.07,5.63-1,11.3.85,16.83,1.47,22.3,6.93,43.75,14.55,64.62a259.27,259.27,0,0,0,40,71.62c1.08,1.38,2.37,2.6,3.56,3.89h0c.87,1.24,1.75,2.49,2.55,3.65,1.32-.37,1.21-1.18,1.21-1.94q0-53.9,0-107.79a18.81,18.81,0,0,0-.3-2.33,195.9,195.9,0,0,0,.07-28.46c.77-15.13-.24-30.28,1-45.42q5.44-64.6,47.41-113.9a189.9,189.9,0,0,1,79.76-55.84c55.49-20.53,109.8-17.71,162.49,9,43,21.79,74,55.3,93.07,99.53,2.4,5.56,4.58,6.57,10.2,4.4,15.92-6.14,32.06-11.68,48.18-17.27C754.14,393.65,754.72,392.49,753.44,389.39Z"/></svg>