<?xml version="1.0" encoding="utf-8"?>
<!-- Generator: Adobe Illustrator 24.2.1, SVG Export Plug-In . SVG Version: 6.00 Build 0)  -->
<svg version="1.1" id="Layer_1" xmlns="http://www.w3.org/2000/svg" xmlns:xlink="http://www.w3.org/1999/xlink" x="0px" y="0px"
	 viewBox="0 0 370.8 352.6" style="enable-background:new 0 0 370.8 352.6;" xml:space="preserve">
<style type="text/css">
	.st0{clip-path:url(#SVGID_2_);}
	.st1{opacity:0.34;}
	.st2{fill:#DDD6FE;}
	.st3{opacity:0.57;fill:#E25F97;enable-background:new    ;}
	.st4{opacity:0.33;}
	.st5{fill:#6455BC;}
	.st6{opacity:0.44;}
	.st7{opacity:0.53;fill:#DDD6FE;enable-background:new    ;}
	.st8{fill:#74D3C5;}
	.st9{opacity:0.39;fill:none;stroke:#3F2F7C;stroke-width:0.41;stroke-miterlimit:10;enable-background:new    ;}
	.st10{fill:#14B59D;}
	.st11{opacity:0.39;fill:none;stroke:#3F2F7C;stroke-width:0.55;stroke-miterlimit:10;enable-background:new    ;}
	.st12{opacity:0.34;fill:#DDD6FE;enable-background:new    ;}
	.st13{fill:#F6F6F6;stroke:#A793F7;stroke-width:0.84;stroke-miterlimit:10;}
	.st14{fill:#A793F7;}
	.st15{fill:#FFFFFF;}
	.st16{fill:#3F2F7C;}
	.st17{fill:none;stroke:#A793F7;stroke-width:0.91;stroke-miterlimit:10;}
	.st18{fill:none;stroke:#A793F7;stroke-width:0.91;stroke-miterlimit:10;stroke-dasharray:11.25,11.25;}
	.st19{fill:#E25F97;}
	.st20{opacity:0.38;fill:#E25F97;enable-background:new    ;}
	.st21{opacity:0.43;fill:#6455BC;enable-background:new    ;}
	.st22{fill:none;stroke:#1E154A;stroke-width:0.89;stroke-miterlimit:10;}
	.st23{fill:#8F81B3;}
	.st24{fill:#F0B3AD;}
	.st25{opacity:0.47;fill:#F0B3AD;enable-background:new    ;}
	.st26{opacity:0.82;}
	.st27{fill:#DE312D;}
	.st28{opacity:0.49;fill:#3F2F7C;enable-background:new    ;}
	.st29{fill:none;stroke:#3F2F7C;stroke-width:0.91;stroke-miterlimit:10;}
	.st30{fill:url(#SVGID_3_);}
	.st31{opacity:0.36;fill:#3F2F7C;enable-background:new    ;}
	.st32{fill:#1E154A;}
</style>
<g>
	<g id="Ilustracion_index">
		<g>
			<defs>
				<rect id="SVGID_1_" x="7.4" y="-42.1" width="356.5" height="501.4"/>
			</defs>
			<clipPath id="SVGID_2_">
				<use xlink:href="#SVGID_1_"  style="overflow:visible;"/>
			</clipPath>
			<g class="st0">
				<g class="st1">
					<path class="st2" d="M21.5,327.5C4.8,310.5,5,283.1,22,266.4c3.9-3.9,8.6-7,13.7-9.1c5.6-2.3,11.7-3.5,17.2-6.1
						c19.3-9,23.2-32,34.1-50.2c15.8-26.5,43.9-46,74.6-49s63.2,11.8,79,38.3c8.6,14.3,12.4,31.3,22.7,44.4
						c7.3,9.2,17.4,15.9,28.8,19c9.9,2.7,20.4,2.5,30.4,4.7c15.5,3.4,30.1,13.4,36.3,28s1.8,33.8-11.6,42.2L21.5,327.5z"/>
				</g>
				<g class="st1">
					<path class="st2" d="M50.8,327.6c-7.6-7.8-10.8-18.9-8.8-29.5c2.1-10.5,6.5-19.7,16.4-23.8c4.3-1.8,8.9-2.6,13.1-4.6
						c14.6-6.8,20.1-24.3,28.3-38.1c12-20.1,33.4-35,56.7-37.2s48,8.9,60,29.1c6.5,10.9,9.4,23.8,17.2,33.7
						c5.6,7,13.2,12.1,21.8,14.4c7.5,2,15.5,1.9,23.1,3.6c11.8,2.6,22.9,10.2,27.5,21.3s1.4,25.7-8.9,32.1L50.8,327.6z"/>
				</g>
				<path class="st3" d="M208.8,293.1l10.3-65.2c0.9-6,6.5-10,12.5-9.1l67.5,10.6c6,0.9,10,6.5,9.1,12.5l-10.3,65.2
					c-0.9,6-6.5,10-12.5,9.1l-67.5-10.6C212,304.6,207.9,299.1,208.8,293.1z"/>
				<path class="st3" d="M215.7,289.6l8.9-56.2c0.8-5.1,5.6-8.6,10.8-7.8l58.2,9.2c5.1,0.8,8.6,5.6,7.8,10.8l-8.9,56.2
					c-0.8,5.1-5.6,8.6-10.8,7.8l-58.2-9.2C218.4,299.5,214.9,294.7,215.7,289.6z"/>
				<g class="st4">
					<path class="st5" d="M229.9,307.7c-0.2,0-0.4-0.3-0.4-0.5l13.6-86.5c0.1-0.2,0.3-0.4,0.6-0.3c0.2,0.1,0.3,0.2,0.3,0.5
						l-13.6,86.5C230.3,307.5,230.1,307.7,229.9,307.7C229.9,307.7,229.9,307.7,229.9,307.7z"/>
				</g>
				<g class="st4">
					<path class="st5" d="M252.6,311.2c-0.2,0-0.4-0.3-0.4-0.5l13.6-86.5c0-0.2,0.3-0.4,0.5-0.4c0.2,0,0.4,0.3,0.4,0.5l0,0
						l-13.6,86.5C253.1,311.1,252.9,311.3,252.6,311.2z"/>
				</g>
				<g class="st4">
					<path class="st5" d="M275.4,314.8c-0.2,0-0.4-0.3-0.4-0.5c0,0,0,0,0,0l13.6-86.5c0-0.2,0.3-0.4,0.5-0.4c0.2,0,0.4,0.3,0.4,0.5
						l-13.6,86.5C275.8,314.7,275.6,314.9,275.4,314.8C275.4,314.8,275.4,314.8,275.4,314.8z"/>
				</g>
				<g class="st4">
					<path class="st5" d="M304.5,260.5l-87.2-13.7c-0.2-0.1-0.4-0.3-0.3-0.6c0.1-0.2,0.2-0.3,0.4-0.3l87.2,13.7
						c0.2,0,0.4,0.3,0.4,0.5S304.8,260.5,304.5,260.5z"/>
				</g>
				<g class="st4">
					<path class="st5" d="M299.8,290.5l-87.2-13.7c-0.2,0-0.4-0.3-0.4-0.5s0.3-0.4,0.5-0.4l87.2,13.7c0.2,0,0.4,0.3,0.4,0.5
						S300,290.6,299.8,290.5L299.8,290.5z"/>
				</g>
				<path class="st5" d="M241.3,249.6c-0.2,1.2-1.3,2-2.5,1.8c-1.2-0.2-2-1.3-1.8-2.5s1.3-2,2.5-1.8c0,0,0,0,0,0
					C240.7,247.3,241.5,248.4,241.3,249.6z"/>
				<path class="st5" d="M287,256.8c-0.2,1.2-1.3,2-2.5,1.8c-1.2-0.2-2-1.3-1.8-2.5c0.2-1.2,1.3-2,2.5-1.8c0,0,0,0,0,0
					C286.4,254.5,287.2,255.6,287,256.8z"/>
				<path class="st5" d="M236.7,279.8c-0.2,1.2-1.3,2-2.5,1.8s-2-1.3-1.8-2.5c0.2-1.2,1.3-2,2.5-1.8c0,0,0,0,0,0
					C236.1,277.5,236.9,278.6,236.7,279.8z"/>
				<path class="st5" d="M282.1,287c-0.2,1.2-1.3,2-2.5,1.8s-2-1.3-1.8-2.5c0.2-1.2,1.3-2,2.5-1.8c0,0,0,0,0,0
					C281.5,284.7,282.3,285.8,282.1,287C282.1,287,282.1,287,282.1,287z"/>
				<g class="st6">
					<path class="st5" d="M43.3,255.9c0,0,24.4-33.2,73.6-26.4c0,0,32.2,43,31.1,72.2c0,0-39.1,26.5-72.6,25
						C75.4,326.7,51.2,315.5,43.3,255.9z"/>
					<path class="st7" d="M51,256c0,0,21.7-29.6,65.6-23.6c0,0,28.7,38.4,27.7,64.4c0,0-34.9,23.7-64.8,22.3
						C79.6,319.1,58.1,309.1,51,256z"/>
					
						<ellipse transform="matrix(0.9856 -0.1692 0.1692 0.9856 -44.9521 20.9386)" class="st5" cx="100.4" cy="274.2" rx="5.8" ry="6.1"/>
				</g>
				<path class="st8" d="M78.7,301.6c-2.4,3.4-6.1,4.9-8.4,3.3s-2.1-5.6,0.3-9s9.8-9.7,12-8.1S81.1,298.2,78.7,301.6z"/>
				<line class="st9" x1="79.3" y1="292.1" x2="70.3" y2="304.9"/>
				<path class="st8" d="M49.6,304.1c3.3,2.5,7.4,2.7,9,0.5s0.2-6-3.1-8.4s-12.3-6.1-13.9-4S46.3,301.6,49.6,304.1z"/>
				<line class="st9" x1="46.1" y1="295.4" x2="58.6" y2="304.7"/>
				<path class="st10" d="M74.6,297.7c-1.6,5.4-5.8,8.9-9.4,7.8s-5-6.3-3.4-11.7s8.5-16.5,12-15.5S76.2,292.3,74.6,297.7z"/>
				<line class="st11" x1="71.4" y1="285.3" x2="65.2" y2="305.5"/>
				<path class="st10" d="M63.9,293.4c2.7,4.9,2.2,10.4-1,12.1s-8-0.8-10.7-5.8s-5.9-17.6-2.6-19.4S61.2,288.4,63.9,293.4z"/>
				<line class="st11" x1="52.8" y1="287" x2="62.9" y2="305.5"/>
				<path class="st8" d="M69.8,295.5c0,5.6-3,10.2-6.6,10.2s-6.7-4.6-6.7-10.2s3.3-18.3,6.9-18.3S69.8,289.9,69.8,295.5z"/>
				<line class="st11" x1="63.1" y1="284.6" x2="63.1" y2="305.7"/>
				<path class="st5" d="M51.1,306.4c-4.1,6.3-2.3,14.8,4,18.9c6.3,4.1,14.8,2.3,18.9-4c3-4.5,3-10.4,0-14.9H51.1z"/>
				<path class="st5" d="M76.1,313.4c-0.1-2.5-0.8-4.9-2.2-7H51.1c-1.4,2.1-2.1,4.5-2.2,7H76.1z"/>
				<path class="st5" d="M75.9,308.7H48.6c-1.2,0-2.1-0.9-2.1-2.1l0,0c0-1.2,1-2.1,2.1-2.1h27.3c1.2,0,2.1,1,2.1,2.1l0,0
					C78,307.8,77,308.7,75.9,308.7z"/>
				<ellipse class="st12" cx="340.8" cy="192.6" rx="8.6" ry="9.1"/>
				<circle class="st12" cx="314.9" cy="185.3" r="4.5"/>
				<ellipse class="st12" cx="38.2" cy="150.1" rx="8.7" ry="9.1"/>
				<circle class="st12" cx="48.2" cy="127.4" r="4.6"/>
				<circle class="st12" cx="58.3" cy="144.7" r="4.6"/>
				<path class="st13" d="M81,241.4L81,241.4c0-0.1,0-0.2,0-0.3v-21.3c0-5.5-4.5-10-10-10H29.6c-5.5,0-10,4.5-10,10v21.3
					c0,5.5,4.5,10,10,10h57.1C82.8,250.8,81,241.4,81,241.4z"/>
				<path class="st14" d="M27.7,220.3h47.1c0.5,0,0.9-0.4,0.9-0.9l0,0c0-0.5-0.4-0.9-0.9-0.9H27.7c-0.5,0-0.9,0.4-0.9,0.9l0,0
					C26.8,219.9,27.2,220.3,27.7,220.3z"/>
				<path class="st14" d="M27.7,231.9h47.1c0.5,0,0.9-0.4,0.9-0.9l0,0c0-0.5-0.4-0.9-0.9-0.9H27.7c-0.5,0-0.9,0.4-0.9,0.9l0,0
					C26.8,231.5,27.2,231.9,27.7,231.9z"/>
				<path class="st14" d="M75,225.9H42.6c-0.4,0-0.7-0.3-0.7-0.7v-0.1c0-0.4,0.3-0.7,0.7-0.7H75c0.4,0,0.7,0.3,0.7,0.7v0.1
					C75.7,225.6,75.4,225.9,75,225.9z"/>
				<path class="st14" d="M75,237.6H42.6c-0.4,0-0.7-0.3-0.7-0.7v-0.1c0-0.4,0.3-0.7,0.7-0.7H75c0.4,0,0.7,0.3,0.7,0.7v0.1
					C75.7,237.3,75.4,237.6,75,237.6z"/>
				<path class="st13" d="M233.3,158.3L233.3,158.3c0-0.1,0-0.2,0-0.3v-21.3c0-5.5,4.5-10,10-10h41.4c5.5,0,10,4.5,10,10V158
					c0,5.5-4.5,10-10,10h-57.1C231.6,167.7,233.3,158.3,233.3,158.3z"/>
				<path class="st14" d="M286.6,137.2h-47.1c-0.5,0-0.9-0.4-0.9-0.9l0,0c0-0.5,0.4-0.9,0.9-0.9h47.1c0.5,0,0.9,0.4,0.9,0.9l0,0
					C287.5,136.8,287.1,137.2,286.6,137.2z"/>
				<path class="st14" d="M286.6,148.8h-47.1c-0.5,0-0.9-0.4-0.9-0.9l0,0c0-0.5,0.4-0.9,0.9-0.9h47.1c0.5,0,0.9,0.4,0.9,0.9l0,0
					C287.5,148.4,287.1,148.8,286.6,148.8z"/>
				<path class="st14" d="M239.3,141.4h32.5c0.4,0,0.7,0.3,0.7,0.7v0.1c0,0.4-0.3,0.7-0.7,0.7h-32.5c-0.4,0-0.7-0.3-0.7-0.7v-0.1
					C238.6,141.7,238.9,141.4,239.3,141.4z"/>
				<path class="st14" d="M239.3,153h32.5c0.4,0,0.7,0.3,0.7,0.7v0.1c0,0.4-0.3,0.7-0.7,0.7h-32.5c-0.4,0-0.7-0.3-0.7-0.7v-0.1
					C238.6,153.3,238.9,153,239.3,153z"/>
				<ellipse class="st15" cx="319.7" cy="262.1" rx="8.4" ry="8.9"/>
				<path class="st16" d="M356.2,320.6h-13.1v-59c1.9-2.8,2.6-6.3,1.9-9.6l2.7-1.5c1.7-0.9,2.4-3,1.6-4.7s-3-2.4-4.7-1.6
					c-0.1,0.1-0.2,0.1-0.3,0.2l-2.7,1.5c-4.8-4.7-12.5-4.5-17.2,0.3c-0.7,0.7-1.2,1.5-1.7,2.3l-0.2-0.3l-13.7,0.8l16.5,29.4
					l7.8-11.3l-0.2-0.3c2.1,0,4.2-0.5,6.1-1.6l0.3-0.2v55.5h-15c-1.8-0.1-3.4,1.3-3.5,3.1c-0.1,1.8,1.3,3.4,3.1,3.5
					c0.1,0,0.2,0,0.4,0h31.8c1.8-0.1,3.2-1.6,3.1-3.5C359.2,322.1,357.9,320.7,356.2,320.6L356.2,320.6z"/>
				<path class="st15" d="M273,318.6c2.5,5.1,6.9,8.5,11.9,8.5c7.8,0,14.2-8.3,14.2-18.6c0-0.5,0-1,0-1.5h-28.3c0,0.4,0,0.8,0,1.2
					c-2.8,0.9-4.7,3-4.6,5.3C266.2,316.3,269.3,318.5,273,318.6z M269.2,313.3c0-1.4,0.6-2.7,1.6-3.6c0.1,2.8,0.8,5.5,1.9,8
					C270.7,317,269.4,315.3,269.2,313.3z"/>
				<path class="st12" d="M266.1,313.4c0.1,2.9,3.2,5.1,6.9,5.2c2.5,5.1,6.9,8.5,11.9,8.5c3.3-0.1,6.5-1.5,8.8-4
					c-1.8,0.1-3.5,0-5.3-0.3c-3.6-0.6-7.1-2-10.2-4c-4-2.9-6.2-7.2-7.4-11.9l0,0c0,0.4,0,0.8,0,1.2C268,309,266,311.1,266.1,313.4z
					 M269.2,313.3c0-1.4,0.6-2.7,1.6-3.6c0.1,2.8,0.8,5.5,1.9,8C270.7,317,269.4,315.3,269.2,313.3z"/>
				<ellipse class="st2" cx="284.9" cy="307.1" rx="14.4" ry="1.8"/>
				<path class="st5" d="M272.8,307.1c0,0.8,5.4,1.5,12.1,1.5s12.1-0.7,12.1-1.5s-5.4-1.5-12.1-1.5S272.8,306.3,272.8,307.1z"/>
				<path class="st15" d="M286.3,307.3c0.7,0,1.3-0.3,1.8-0.8c0.5-0.5,0.9-1.1,1.1-1.7c0.2-0.7,0.3-1.4,0.3-2.1
					c-0.1-0.7-0.2-1.4-0.5-2c-0.5-1.2-1.1-2.3-1.9-3.4c-0.7-1-1.2-2-1.7-3.1c-0.5-1-0.7-2.1-0.8-3.3c-0.1-1.1,0.2-2.2,0.6-3.2
					c0.2-0.5,0.6-0.9,0.9-1.3c0.4-0.4,0.8-0.7,1.3-0.9c0.5-0.2,1-0.2,1.5,0.1c0.5,0.3,0.9,0.8,0.9,1.4c0.1-0.3,0.1-0.7,0-1
					c-0.1-0.3-0.3-0.6-0.6-0.9c-0.3-0.3-0.6-0.4-1-0.5c-0.4-0.1-0.7-0.1-1.1,0c-1.4,0.3-2.6,1.1-3.4,2.4c-0.8,1.2-1.1,2.6-1.1,4
					c0,1.4,0.3,2.7,0.9,4c0.5,1.2,1.2,2.3,1.9,3.4c0.7,1,1.4,2,2,3c0.3,0.5,0.5,1,0.6,1.6c0.1,0.5,0.2,1.1,0.1,1.6
					C288.1,305.8,287.3,306.8,286.3,307.3z"/>
				<path class="st15" d="M282.3,305.1c0.5-0.4,0.9-1,1-1.6c0.1-0.7,0.1-1.4-0.1-2c-0.4-1.2-1.1-2.2-1.9-3.2c-0.4-0.4-0.7-0.8-1-1.3
					s-0.6-0.9-0.8-1.4c-0.5-1-1-2-1.4-3.1c-0.3,1.2-0.3,2.5,0,3.6c0.2,0.6,0.4,1.2,0.7,1.8c0.3,0.5,0.6,1.1,1,1.5
					c0.7,0.8,1.4,1.6,2,2.5c0.3,0.4,0.4,0.9,0.6,1.4C282.5,304,282.5,304.6,282.3,305.1z"/>
				<path class="st5" d="M295.5,312c0,0.3,0.2,0.6,0.6,0.6c0.3,0,0.6-0.2,0.6-0.6c0,0,0,0,0,0c0-0.3-0.3-0.6-0.6-0.6
					C295.8,311.4,295.5,311.7,295.5,312z"/>
				<path class="st5" d="M288.8,313.2c0,0.3,0.3,0.6,0.6,0.6s0.6-0.3,0.6-0.6c0-0.3-0.3-0.6-0.6-0.6l0,0
					C289,312.7,288.8,312.9,288.8,313.2z"/>
				<circle class="st5" cx="281.5" cy="313.4" r="0.6"/>
				<path class="st5" d="M273.5,312.1c0,0.3,0.2,0.6,0.6,0.6c0.3,0,0.6-0.2,0.6-0.6c0,0,0,0,0,0c0-0.3-0.3-0.6-0.6-0.6
					C273.7,311.6,273.5,311.8,273.5,312.1z"/>
				<path class="st5" d="M292.4,316.9c0,0.3,0.3,0.6,0.6,0.6s0.6-0.3,0.6-0.6c0-0.3-0.3-0.6-0.6-0.6l0,0
					C292.7,316.3,292.4,316.6,292.4,316.9z"/>
				<path class="st5" d="M284.9,318.6c0,0.3,0.3,0.6,0.6,0.6s0.6-0.3,0.6-0.6c0-0.3-0.3-0.6-0.6-0.6l0,0
					C285.1,318,284.9,318.3,284.9,318.6z"/>
				<path class="st5" d="M276.6,317c0,0.3,0.3,0.6,0.6,0.6c0.3,0,0.6-0.3,0.6-0.6c0-0.3-0.3-0.6-0.6-0.6
					C276.8,316.4,276.6,316.7,276.6,317z"/>
				<path class="st5" d="M289.1,322.6c0,0.3,0.3,0.6,0.6,0.6s0.6-0.3,0.6-0.6c0-0.3-0.3-0.6-0.6-0.6l0,0
					C289.3,322.1,289.1,322.3,289.1,322.6z"/>
				<circle class="st5" cx="281.1" cy="322.4" r="0.6"/>
				<path class="st17" d="M207.5,91.3c-1.4,1.2-2.8,2.4-4.1,3.5"/>
				<path class="st18" d="M194.5,101.8c-22.7,16.9-48.6,29.2-76.1,36.2c-4.8,1.2-9.9,2.2-14.7,1.3s-9.6-4.4-10.6-9.3
					c-1.3-6.6,4.4-12.6,10.4-15.9c4.8-2.7,10.7-4.6,15.7-2.3c4.4,2,6.9,6.8,7.7,11.6c1.5,8.9-1.9,17.9-6.7,25.5s-10.9,14.4-15.6,22
					c-11.4,18.5-14.4,40.9-8.3,61.7c4.6,15.3,14.9,29.4,28.8,37"/>
				<path class="st17" d="M130.2,272.1c1.7,0.7,3.4,1.3,5.2,1.8"/>
				<path class="st16" d="M209.6,79c0,0-11.6-4.3-26.7,1.7c0,0,12.8,11.6,17.8,14.1C200.7,94.8,214.9,81.1,209.6,79z"/>
				<path class="st16" d="M210.5,82.2c-2.2,0.6-4.5,1.1-6.9,1.3c-6,0.5-12-0.9-17.1-4.1c-1.2,0.4-2.4,0.8-3.6,1.2
					c0,0,12.8,11.6,17.8,14.1C200.7,94.8,208.8,87,210.5,82.2z"/>
				<path class="st16" d="M221.6,100.8c0,0-3.6,11.8-17.5,20.2c0,0-1.5-17.2-0.4-22.7C203.7,98.3,223.1,95.3,221.6,100.8z"/>
				<path class="st16" d="M215,97.5c-3.8,0-7.6,0.2-11.3,0.8c-1,5.5,0.4,22.7,0.4,22.7c0.4-0.3,0.9-0.5,1.3-0.8
					C209,112.8,210.1,104.3,215,97.5z"/>
				<path class="st19" d="M232.9,94.7c-15.8,8.9-31.4,11.1-34.9,5s6.5-18.4,22.3-27.3s34.9-5,34.9-5S248.6,85.8,232.9,94.7z"/>
				<path class="st20" d="M254.1,70c-6.5,7.7-14.5,14-23.6,18.3c-5.1,2.4-10.5,4.1-16.1,4.8c-4.5,0.7-9.9,0.9-13.9-1.7
					c-0.4-0.3-0.7-0.6-1-0.9c-2.2,3.6-2.8,6.8-1.5,9.2c3.5,6.2,19.1,3.9,34.9-5C245.1,87.8,251.7,75.3,254.1,70z"/>
				<path class="st16" d="M248.7,79.6c2.6-3.8,4.8-7.9,6.4-12.1c-4.5-0.8-9.2-1-13.8-0.8C244.8,70.4,247.3,74.8,248.7,79.6z"/>
				<path class="st8" d="M236.5,87c-3.7,2.1-8.3,0.8-10.4-2.9c-2.1-3.7-0.8-8.3,2.9-10.4s8.3-0.8,10.4,2.9c0,0,0,0,0,0
					C241.5,80.3,240.2,84.9,236.5,87z"/>
				<circle class="st15" cx="232.8" cy="80.3" r="5.8"/>
				<polygon class="st16" points="206.9,92.4 208.8,95.7 190.3,104.3 				"/>
				<path class="st13" d="M72.2,47h56.6c6,0,10.9,4.9,10.9,10.9v31.5c0,6-4.9,10.9-10.9,10.9H72.2c-6,0-10.9-4.9-10.9-10.9V57.9
					C61.3,51.9,66.2,47,72.2,47z"/>
				<path class="st21" d="M139.4,55.1c-1.3-4.8-5.6-8.1-10.5-8.1H72.2c-4.9,0-9.2,3.3-10.5,8.1L139.4,55.1z"/>
				<path class="st21" d="M62.5,94.3c1.8,3.7,5.6,6.1,9.8,6.1h56.6c4.1,0,7.9-2.4,9.8-6.1H62.5z"/>
				<circle class="st5" cx="116.9" cy="73.9" r="14.3"/>
				<path class="st19" d="M123.2,61.1L117,74.8l13.7-5.1C130.7,69.8,129,62.8,123.2,61.1z"/>
				<path class="st19" d="M93.6,64.5h-25c-0.5,0-0.9-0.4-0.9-0.9v0l0,0c0-0.5,0.4-0.9,0.9-0.9l0,0h25c0.5,0,0.9,0.4,0.9,0.9v0l0,0
					C94.5,64.1,94.1,64.5,93.6,64.5L93.6,64.5z"/>
				<path class="st19" d="M93.6,68.2h-25c-0.5,0-0.9-0.4-0.9-0.9v0l0,0c0-0.5,0.4-0.9,0.9-0.9l0,0h25c0.5,0,0.9,0.4,0.9,0.9v0l0,0
					C94.5,67.8,94.1,68.2,93.6,68.2L93.6,68.2z"/>
				<polygon class="st14" points="82.4,187.8 78.3,185.1 73.8,186.8 75.1,182.2 72,178.4 76.9,178.2 79.5,174.1 81.2,178.7 
					85.9,179.9 82.1,182.9 				"/>
				<polygon class="st14" points="175.7,95.1 171.9,95 169.7,98 168.7,94.3 165.1,93.1 168.3,91.1 168.3,87.3 171.3,89.6 
					174.9,88.5 173.6,92.1 				"/>
				<polygon class="st14" points="287.6,194.6 284.1,191.2 279.3,192.2 281.4,187.8 279,183.5 283.8,184.2 287.1,180.6 288,185.4 
					292.4,187.4 288.1,189.7 				"/>
				<polygon class="st14" points="218.3,48.3 214.8,44.9 210,45.9 212.1,41.5 209.7,37.3 214.5,37.9 217.8,34.3 218.7,39.1 
					223.1,41.2 218.8,43.5 				"/>
				<line class="st22" x1="-101.4" y1="327.3" x2="477" y2="327.3"/>
				<path class="st16" d="M212,189.2c-5.1-1.9-2.7-12.4-7.5-34.9c-5.2-24.1-40.8-15.9-27.1-17.9c-0.7-0.1-19,0.3-23.7,22.3
					c-4.8,22.4-7.9,33-13,34.8s-13.2,11.4,2.9,21c7.4,4.4,21,7.1,34.4,7.1h1.1c13.4,0,27-2.7,34.4-7.1
					C229.7,205.1,217.1,191.1,212,189.2z"/>
				<path class="st23" d="M199.2,189.1c-9.3-13.9-7.5-30.1-7.9-45.9c-6.2-2.9-14.2-2.2-20.9-1.7c1,7.1,1.3,14.4,0.7,21.6
					c-0.7,9.6-2.9,20.3-9.3,27.8c-3.8,4.4-9,6.2-14.1,8.7c-3.7,2-6.7,5.1-8.6,8.9c-0.4,0.7-0.7,1.4-1,2.1c1.6,1.6,3.5,3,5.5,4.2
					c7.4,4.4,21,7.1,34.4,7.1h1.1c13.3,0,26.8-2.6,34.2-7c0.3-2.8-0.2-5.7-1.5-8.2C208.8,199.9,203.2,195.1,199.2,189.1z"/>
				<path class="st24" d="M168.5,189.6c0,0,0.1,12.7-2.4,14.6c0,0,4.6,6.3,14.4,5.8c0,0,7.6-0.7,9.7-3.4c0,0-0.8-15.3-0.6-18.6
					C189.6,188,171.3,183.2,168.5,189.6z"/>
				<path class="st25" d="M168.2,196.9c4.2,3.1,8.9,4.8,14.5,3.4c2.6-0.7,5-1.9,7.2-3.6c-0.1-3.7-0.3-7.4-0.2-8.8
					c0,0-18.3-4.7-21.1,1.6C168.5,189.6,168.5,193.2,168.2,196.9z"/>
				<path class="st24" d="M200.4,160.1L200.4,160.1c-0.9-11-10.4-19.7-22.1-19.7c-12.2,0-22.1,9.5-22.1,21.2c0,1.7,0.2,3.4,0.6,5
					c1,8.8,5.2,27.1,23.3,30.6C180.1,197.1,202.1,193.7,200.4,160.1z"/>
				<path class="st24" d="M160.2,174.3c1.2,3,0.8,5.9-0.9,6.5s-3.9-1.3-5.1-4.2s-0.8-5.9,0.9-6.5S159,171.3,160.2,174.3z"/>
				<path class="st24" d="M205,176c-0.8,3.1-2.8,5.2-4.5,4.8s-2.4-3.3-1.6-6.4s2.8-5.2,4.5-4.8S205.8,172.9,205,176z"/>
				<path class="st16" d="M173.5,174.2c0,0-4.8,3.2-9.3-2.3h-1.6l1.6,0.7C164.2,172.7,169.1,179.2,173.5,174.2z"/>
				<path class="st16" d="M174.5,169.9c0,0-3.5-4-11.4-1.7c0,0,7.4-0.4,9.9,1.7C172.9,169.9,174.5,171.2,174.5,169.9z"/>
				<path class="st16" d="M185.3,174.8c0,0,4.8,3.2,9.3-2.3h1.6l-1.6,0.7C194.6,173.2,189.7,179.8,185.3,174.8z"/>
				<path class="st16" d="M184.3,170.4c0,0,3.5-4,11.4-1.7c0,0-7.4-0.4-9.9,1.7C185.8,170.4,184.3,171.7,184.3,170.4z"/>
				<g class="st26">
					<path class="st16" d="M177.8,180.8c0,0,2.4,2.6,3.9,0.3C181.6,181,180,184,177.8,180.8z"/>
					<path class="st16" d="M176.6,179.9c-0.5,0.4-0.5,1.1-0.1,1.6c0.2,0.2,0.4,0.3,0.6,0.4C176.6,181.3,176.4,180.6,176.6,179.9z"/>
					<path class="st16" d="M182.9,179.9c0.5,0.4,0.5,1.1,0.1,1.6c-0.2,0.2-0.4,0.3-0.6,0.4C182.8,181.4,183,180.6,182.9,179.9z"/>
				</g>
				<path class="st16" d="M201.2,158.2h1.2c0.1-5-0.3-7.8-2.6-12.4c-1.7-3.6-3.3-4.8-7.2-5.7c-2.9-0.6-5.8-2.5-8.8-2.1
					c-0.8,0.2-1.6,0.5-2.3,0.8c-0.3,0.2-0.7,0.2-1,0.2c-2.8-0.7-5.7-1.1-8.6-1.1c-3.7,0-7.2,1.7-9.5,4.6c-0.8,1-1.6,2.1-2.2,3.3
					c-1,1.9-1.6,1.6-1.9,3.6c-7.3,11.4-1,20.3-1,20.3c-0.1-0.6,1,3.3,1,2.8c1.1,3.9,1.4,8.4,1.8,9c0.8,1.1,1.8-1.2,1.8-1.2
					c-3-7.3-0.4-16.2,2.2-22.1h16.1c0.4,0,0.7-0.2,0.8-0.6c0.6-1.5,1.2-3,1.9-4.5l0.2-0.6l1,0.1l0.8,5.6h6.2
					c0.1-1.3,0.2-2.5,0.3-3.7c0.3,0.1,0.5,0.3,0.8,0.4c0.3,0.9,0.5,1.8,0.8,2.7c0.1,0.2,0.4,0.6,0.6,0.6h2.5
					c1.1,1.5,1.9,3.1,2.4,4.9l-0.1,0.2c0,0,0.5,16.6-0.9,21.9c0,0,0.6,1.3,1.6,0.4c0.8-0.7,2.9-12.3,3.1-18.3
					C202.5,165,201.7,161.8,201.2,158.2z"/>
				<path class="st27" d="M175.6,186.1c0,0,0.3,0.6,2-0.2c1.9-1,4.2-0.8,5.9,0.6c0.4,0.1,0.9,0.1,1.3-0.2c-0.3,2.2-2.2,3.9-4.4,3.9
					C176.3,190.5,175.6,186.1,175.6,186.1z"/>
				<path class="st15" d="M177.9,187c1.6,0.1,3.1,0.2,4.7,0.1c0,0-0.1,1.5-2.4,1.5S177.9,187,177.9,187z"/>
				<path class="st28" d="M190.1,163.5c-4.3,0-7.8,4.1-7.8,9.2c0,0.3,0,0.7,0,1c-2.1-2.2-4.8-0.6-5.5-0.1c0-0.3,0-0.6,0-0.9
					c0-5.1-3.5-9.2-7.8-9.2s-7.9,4.1-7.9,9.2s3.5,9.2,7.9,9.2c3.8,0,7-3.2,7.7-7.4c1.6-1.4,4-1.5,5.7-0.2c0.6,4.3,3.8,7.6,7.7,7.6
					c4.3,0,7.8-4.1,7.8-9.2S194.4,163.5,190.1,163.5z M169,181.2c-4,0-7.3-3.8-7.3-8.6s3.3-8.6,7.3-8.6s7.3,3.8,7.3,8.6
					S173,181.2,169,181.2z M190.1,181.2c-4,0-7.3-3.8-7.3-8.6s3.3-8.6,7.3-8.6s7.3,3.8,7.3,8.6S194.1,181.2,190.1,181.2L190.1,181.2
					z"/>
				<path class="st8" d="M212.7,212.6c-0.4-1.7-18.5-7.7-22.3-9c-4,2.9-9,4.3-14,3.7c-3.9-0.4-7.9-1.9-10.4-4.9h-0.2
					c0,0-24,7.7-24.4,9.6s13.4,40.2,12.4,50.3c-1,10.1-8.1,18.7-6.7,23.5c0,0,11.8,1.8,23,2.5v0.4c11.5,1.4,36.9-2.4,36.9-2.4
					c1.4-4.8-5.8-13.4-6.7-23.5S213.2,214.5,212.7,212.6z"/>
				<path class="st8" d="M207,232.4c-4.9,3.9-10.4,7.1-16.3,9.3c-10.2,3.9-24.1,3.2-33.6-2.3c-4.4-2.6-8.1-6.2-11-10.4
					c3.7,12.2,8.2,27.6,7.6,33.4c-0.9,10.1-8.1,18.7-6.7,23.5c0,0,11.8,1.8,23,2.5v0.4c11.5,1.4,36.9-2.4,36.9-2.4
					c1.4-4.8-5.8-13.4-6.7-23.5C199.7,257.5,203.5,244,207,232.4z"/>
				<path class="st15" d="M167.7,201.7l-2,0.8c0,0,4.6,10.6,13.2,14.2c0,0,10.8-5.8,12.6-13l-1.5-1.1
					C190.1,202.7,180.4,208.7,167.7,201.7z"/>
				<path class="st8" d="M142.2,211.2c0,0-36,44.1-31.1,53.5s31.1,22.6,37.7,22.6l9.3-6.7c0,0-24.8-20.4-24-24.4
					s20.4-26.2,20.4-26.2S149.3,206.5,142.2,211.2z"/>
				<path class="st8" d="M134.2,256.2c0.8-3.5,16-21.1,19.6-25.3c-10.2,5.1-19,13.5-23.7,24c-3.6,7.6-4.1,16.3-1.4,24.2
					c8.1,4.6,16.7,8.1,20.1,8.1l9.3-6.7C158.2,280.6,133.3,260.2,134.2,256.2z"/>
				<path class="st5" d="M155.9,301.5c0,0-57.2-46.6-67-30.2s18.6,46.1,60.3,51.9L155.9,301.5z"/>
				<path class="st8" d="M213.4,212.5c0,0,36,44.2,31.1,53.5s-31,22.6-37.7,22.6l-9.3-6.7c0,0,24.9-20.4,24-24.4
					S201,231.4,201,231.4S206.3,207.9,213.4,212.5z"/>
				<path class="st8" d="M237.9,269.4c-5.9-10.5-13.4-19.7-23.1-26.9c-3.5-2.6-6.9-5.2-10.3-7.9l-1.7-1.3c4.7,5.4,18,21,18.8,24.3
					c0.9,4-24,24.4-24,24.4l9.3,6.7c5.5,0,24.1-9,33.3-17.4C239.1,270.9,238.3,270.2,237.9,269.4z"/>
				<path class="st5" d="M201.5,301.5c0,0,57.2-46.6,67-30.2s-18.6,46.1-60.3,51.9L201.5,301.5z"/>
				<path class="st8" d="M165.5,203.1c0,0,6.2,10.9,13.5,13.6c0,0,9.6-5.2,12.6-13c0,0,1.7-0.3,1.6,0.7s-5.9,11.6-14.1,14.4
					c0,0-6.8-1.4-16.1-15.5C162.9,203.4,164.9,202,165.5,203.1z"/>
				<path class="st29" d="M107.2,283.8c0,0,17.8,8.3,22,15.4"/>
				<path class="st29" d="M243.8,284.4c0,0-16.6,8.9-20.8,16.6"/>
				
					<linearGradient id="SVGID_3_" gradientUnits="userSpaceOnUse" x1="173.235" y1="60.7356" x2="173.235" y2="262.7156" gradientTransform="matrix(1 0 0 -1 0 381.2756)">
					<stop  offset="0" style="stop-color:#FFFFFF"/>
					<stop  offset="6.000000e-02" style="stop-color:#FFFFFF;stop-opacity:0.86"/>
					<stop  offset="0.16" style="stop-color:#FFFFFF;stop-opacity:0.66"/>
					<stop  offset="0.26" style="stop-color:#FFFFFF;stop-opacity:0.48"/>
					<stop  offset="0.37" style="stop-color:#FFFFFF;stop-opacity:0.33"/>
					<stop  offset="0.48" style="stop-color:#FFFFFF;stop-opacity:0.21"/>
					<stop  offset="0.59" style="stop-color:#FFFFFF;stop-opacity:0.12"/>
					<stop  offset="0.71" style="stop-color:#FFFFFF;stop-opacity:5.000000e-02"/>
					<stop  offset="0.84" style="stop-color:#FFFFFF;stop-opacity:1.000000e-02"/>
					<stop  offset="1" style="stop-color:#FFFFFF;stop-opacity:0"/>
				</linearGradient>
				<polygon class="st30" points="126.2,318.9 55.2,118.6 291.2,118.6 230.2,320.5 				"/>
				<rect x="125.5" y="255.8" class="st16" width="104.2" height="65.2"/>
				<path class="st31" d="M220.1,255.8c-1.6,17.4-8.2,34.1-22.6,45.2c-10.8,8.4-24.1,12-37.6,11.8c-11.6-0.2-22.9-2.5-34.4-3.8v12
					h104.2v-65.2L220.1,255.8z"/>
				<path class="st2" d="M180.5,288.4c-0.1,2.2-2,3.9-4.3,3.7c-2.2-0.1-3.9-2-3.7-4.3c0.1-2.1,1.9-3.7,4-3.7
					C178.8,284.2,180.6,286.1,180.5,288.4C180.5,288.4,180.5,288.4,180.5,288.4z"/>
				<path class="st32" d="M231.4,327.6h-106c-2,0-3.5-1.6-3.6-3.5l0,0c0-2,1.6-3.5,3.6-3.5h106c2,0,3.5,1.6,3.5,3.5l0,0
					C234.9,326,233.3,327.6,231.4,327.6z"/>
			</g>
		</g>
	</g>
</g>
</svg>
